<svg width="1361" height="1121" viewBox="0 0 1361 1121" fill="none" xmlns="http://www.w3.org/2000/svg">
<g opacity="0.2" filter="url(#filter0_f_175_188)">
<ellipse cx="690.5" cy="370" rx="670.5" ry="350" fill="#35875D"/>
</g>
<path d="M211.035 606C212.53 606 213.662 606.63 214.431 607.891C215.213 609.138 215.605 610.953 215.605 613.336C215.605 615.719 215.213 617.541 214.431 618.802C213.662 620.063 212.53 620.693 211.035 620.693C209.554 620.693 208.422 620.063 207.639 618.802C206.856 617.541 206.465 615.719 206.465 613.336C206.465 610.967 206.856 609.152 207.639 607.891C208.422 606.63 209.554 606 211.035 606ZM207.953 613.336C207.953 615.026 208.107 616.35 208.415 617.306L213.068 608.099C212.579 607.448 211.901 607.122 211.035 607.122C210.071 607.122 209.316 607.635 208.771 608.66C208.226 609.672 207.953 611.23 207.953 613.336ZM211.035 619.55C212.013 619.55 212.775 619.044 213.32 618.033C213.865 617.008 214.137 615.442 214.137 613.336C214.137 611.549 213.963 610.163 213.613 609.18L208.96 618.469C209.463 619.19 210.154 619.55 211.035 619.55Z" fill="url(#paint0_linear_175_188)" fill-opacity="0.6"/>
<path d="M212.293 643.135H215.374V644.236H207.387V643.135H210.951V631.455L207.555 633.471L206.968 632.536L211.161 629.959H212.293V643.135Z" fill="url(#paint1_linear_175_188)" fill-opacity="0.6"/>
<path d="M211.035 653.502C212.53 653.502 213.662 654.133 214.431 655.393C215.213 656.64 215.605 658.455 215.605 660.838C215.605 663.221 215.213 665.043 214.431 666.304C213.662 667.565 212.53 668.195 211.035 668.195C209.554 668.195 208.422 667.565 207.639 666.304C206.856 665.043 206.465 663.221 206.465 660.838C206.465 658.469 206.856 656.654 207.639 655.393C208.422 654.133 209.554 653.502 211.035 653.502ZM207.953 660.838C207.953 662.529 208.107 663.852 208.415 664.808L213.068 655.601C212.579 654.95 211.901 654.624 211.035 654.624C210.071 654.624 209.316 655.137 208.771 656.162C208.226 657.174 207.953 658.732 207.953 660.838ZM211.035 667.052C212.013 667.052 212.775 666.546 213.32 665.535C213.865 664.51 214.137 662.944 214.137 660.838C214.137 659.051 213.963 657.665 213.613 656.682L208.96 665.971C209.463 666.692 210.154 667.052 211.035 667.052Z" fill="url(#paint2_linear_175_188)" fill-opacity="0.6"/>
<path d="M212.293 690.637H215.374V691.738H207.387V690.637H210.951V678.957L207.555 680.973L206.968 680.038L211.161 677.461H212.293V690.637Z" fill="url(#paint3_linear_175_188)" fill-opacity="0.6"/>
<path d="M212.293 714.388H215.374V715.489H207.387V714.388H210.951V702.708L207.555 704.724L206.968 703.789L211.161 701.212H212.293V714.388Z" fill="url(#paint4_linear_175_188)" fill-opacity="0.6"/>
<path d="M211.035 724.755C212.53 724.755 213.662 725.386 214.431 726.646C215.213 727.893 215.605 729.708 215.605 732.091C215.605 734.474 215.213 736.296 214.431 737.557C213.662 738.818 212.53 739.448 211.035 739.448C209.554 739.448 208.422 738.818 207.639 737.557C206.856 736.296 206.465 734.474 206.465 732.091C206.465 729.722 206.856 727.907 207.639 726.646C208.422 725.386 209.554 724.755 211.035 724.755ZM207.953 732.091C207.953 733.782 208.107 735.105 208.415 736.061L213.068 726.854C212.579 726.203 211.901 725.878 211.035 725.878C210.071 725.878 209.316 726.39 208.771 727.415C208.226 728.427 207.953 729.985 207.953 732.091ZM211.035 738.305C212.013 738.305 212.775 737.8 213.32 736.788C213.865 735.763 214.137 734.197 214.137 732.091C214.137 730.304 213.963 728.919 213.613 727.935L208.96 737.225C209.463 737.945 210.154 738.305 211.035 738.305Z" fill="url(#paint5_linear_175_188)" fill-opacity="0.6"/>
<path d="M212.293 761.89H215.374V762.992H207.387V761.89H210.951V750.21L207.555 752.226L206.968 751.291L211.161 748.714H212.293V761.89Z" fill="url(#paint6_linear_175_188)" fill-opacity="0.6"/>
<path d="M211.035 772.257C212.53 772.257 213.662 772.888 214.431 774.149C215.213 775.396 215.605 777.211 215.605 779.594C215.605 781.977 215.213 783.798 214.431 785.059C213.662 786.32 212.53 786.95 211.035 786.95C209.554 786.95 208.422 786.32 207.639 785.059C206.856 783.798 206.465 781.977 206.465 779.594C206.465 777.224 206.856 775.409 207.639 774.149C208.422 772.888 209.554 772.257 211.035 772.257ZM207.953 779.594C207.953 781.284 208.107 782.607 208.415 783.563L213.068 774.356C212.579 773.705 211.901 773.38 211.035 773.38C210.071 773.38 209.316 773.892 208.771 774.918C208.226 775.929 207.953 777.488 207.953 779.594ZM211.035 785.807C212.013 785.807 212.775 785.302 213.32 784.29C213.865 783.265 214.137 781.699 214.137 779.594C214.137 777.806 213.963 776.421 213.613 775.437L208.96 784.727C209.463 785.447 210.154 785.807 211.035 785.807Z" fill="url(#paint7_linear_175_188)" fill-opacity="0.6"/>
<path d="M211.035 796.008C212.53 796.008 213.662 796.639 214.431 797.9C215.213 799.147 215.605 800.962 215.605 803.345C215.605 805.728 215.213 807.549 214.431 808.81C213.662 810.071 212.53 810.701 211.035 810.701C209.554 810.701 208.422 810.071 207.639 808.81C206.856 807.549 206.465 805.728 206.465 803.345C206.465 800.975 206.856 799.16 207.639 797.9C208.422 796.639 209.554 796.008 211.035 796.008ZM207.953 803.345C207.953 805.035 208.107 806.358 208.415 807.314L213.068 798.107C212.579 797.456 211.901 797.131 211.035 797.131C210.071 797.131 209.316 797.643 208.771 798.669C208.226 799.68 207.953 801.239 207.953 803.345ZM211.035 809.558C212.013 809.558 212.775 809.053 213.32 808.041C213.865 807.016 214.137 805.451 214.137 803.345C214.137 801.557 213.963 800.172 213.613 799.188L208.96 808.478C209.463 809.198 210.154 809.558 211.035 809.558Z" fill="url(#paint8_linear_175_188)" fill-opacity="0.6"/>
<path d="M212.293 833.143H215.374V834.245H207.387V833.143H210.951V821.464L207.555 823.48L206.968 822.544L211.161 819.967H212.293V833.143Z" fill="url(#paint9_linear_175_188)" fill-opacity="0.6"/>
<path d="M211.035 843.511C212.53 843.511 213.662 844.141 214.431 845.402C215.213 846.649 215.605 848.464 215.605 850.847C215.605 853.23 215.213 855.052 214.431 856.312C213.662 857.573 212.53 858.204 211.035 858.204C209.554 858.204 208.422 857.573 207.639 856.312C206.856 855.052 206.465 853.23 206.465 850.847C206.465 848.478 206.856 846.663 207.639 845.402C208.422 844.141 209.554 843.511 211.035 843.511ZM207.953 850.847C207.953 852.537 208.107 853.86 208.415 854.816L213.068 845.61C212.579 844.958 211.901 844.633 211.035 844.633C210.071 844.633 209.316 845.145 208.771 846.171C208.226 847.182 207.953 848.741 207.953 850.847ZM211.035 857.061C212.013 857.061 212.775 856.555 213.32 855.543C213.865 854.518 214.137 852.953 214.137 850.847C214.137 849.059 213.963 847.674 213.613 846.69L208.96 855.98C209.463 856.7 210.154 857.061 211.035 857.061Z" fill="url(#paint10_linear_175_188)" fill-opacity="0.6"/>
<path d="M212.293 880.645H215.374V881.747H207.387V880.645H210.951V868.966L207.555 870.982L206.968 870.046L211.161 867.469H212.293V880.645Z" fill="url(#paint11_linear_175_188)" fill-opacity="0.6"/>
<path d="M212.293 904.396H215.374V905.498H207.387V904.396H210.951V892.717L207.555 894.733L206.968 893.798L211.161 891.221H212.293V904.396Z" fill="url(#paint12_linear_175_188)" fill-opacity="0.6"/>
<path d="M249.965 653.502C251.46 653.502 252.592 654.133 253.361 655.393C254.144 656.64 254.535 658.455 254.535 660.838C254.535 663.221 254.144 665.043 253.361 666.304C252.592 667.565 251.46 668.195 249.965 668.195C248.484 668.195 247.352 667.565 246.569 666.304C245.787 665.043 245.395 663.221 245.395 660.838C245.395 658.469 245.787 656.654 246.569 655.393C247.352 654.133 248.484 653.502 249.965 653.502ZM246.884 660.838C246.884 662.529 247.037 663.852 247.345 664.808L251.998 655.601C251.509 654.95 250.832 654.624 249.965 654.624C249.001 654.624 248.246 655.137 247.701 656.162C247.156 657.174 246.884 658.732 246.884 660.838ZM249.965 667.052C250.943 667.052 251.705 666.546 252.25 665.535C252.795 664.51 253.068 662.944 253.068 660.838C253.068 659.051 252.893 657.665 252.543 656.682L247.89 665.971C248.393 666.692 249.085 667.052 249.965 667.052Z" fill="url(#paint13_linear_175_188)" fill-opacity="0.6"/>
<path d="M251.223 690.637H254.304V691.738H246.318V690.637H249.881V678.957L246.485 680.973L245.898 680.038L250.091 677.461H251.223V690.637Z" fill="url(#paint14_linear_175_188)" fill-opacity="0.6"/>
<path d="M249.965 701.004C251.46 701.004 252.592 701.635 253.361 702.895C254.144 704.142 254.535 705.957 254.535 708.34C254.535 710.723 254.144 712.545 253.361 713.806C252.592 715.067 251.46 715.697 249.965 715.697C248.484 715.697 247.352 715.067 246.569 713.806C245.787 712.545 245.395 710.723 245.395 708.34C245.395 705.971 245.787 704.156 246.569 702.895C247.352 701.635 248.484 701.004 249.965 701.004ZM246.884 708.34C246.884 710.031 247.037 711.354 247.345 712.31L251.998 703.103C251.509 702.452 250.832 702.126 249.965 702.126C249.001 702.126 248.246 702.639 247.701 703.664C247.156 704.676 246.884 706.234 246.884 708.34ZM249.965 714.554C250.943 714.554 251.705 714.049 252.25 713.037C252.795 712.012 253.068 710.446 253.068 708.34C253.068 706.553 252.893 705.168 252.543 704.184L247.89 713.474C248.393 714.194 249.085 714.554 249.965 714.554Z" fill="url(#paint15_linear_175_188)" fill-opacity="0.6"/>
<path d="M249.965 724.755C251.46 724.755 252.592 725.386 253.361 726.646C254.144 727.893 254.535 729.708 254.535 732.091C254.535 734.474 254.144 736.296 253.361 737.557C252.592 738.818 251.46 739.448 249.965 739.448C248.484 739.448 247.352 738.818 246.569 737.557C245.787 736.296 245.395 734.474 245.395 732.091C245.395 729.722 245.787 727.907 246.569 726.646C247.352 725.386 248.484 724.755 249.965 724.755ZM246.884 732.091C246.884 733.782 247.037 735.105 247.345 736.061L251.998 726.854C251.509 726.203 250.832 725.878 249.965 725.878C249.001 725.878 248.246 726.39 247.701 727.415C247.156 728.427 246.884 729.985 246.884 732.091ZM249.965 738.305C250.943 738.305 251.705 737.8 252.25 736.788C252.795 735.763 253.068 734.197 253.068 732.091C253.068 730.304 252.893 728.919 252.543 727.935L247.89 737.225C248.393 737.945 249.085 738.305 249.965 738.305Z" fill="url(#paint16_linear_175_188)" fill-opacity="0.6"/>
<path d="M251.223 761.89H254.304V762.992H246.318V761.89H249.881V750.21L246.485 752.226L245.898 751.291L250.091 748.714H251.223V761.89Z" fill="url(#paint17_linear_175_188)" fill-opacity="0.6"/>
<path d="M249.965 772.257C251.46 772.257 252.592 772.888 253.361 774.149C254.144 775.396 254.535 777.211 254.535 779.594C254.535 781.977 254.144 783.798 253.361 785.059C252.592 786.32 251.46 786.95 249.965 786.95C248.484 786.95 247.352 786.32 246.569 785.059C245.787 783.798 245.395 781.977 245.395 779.594C245.395 777.224 245.787 775.409 246.569 774.149C247.352 772.888 248.484 772.257 249.965 772.257ZM246.884 779.594C246.884 781.284 247.037 782.607 247.345 783.563L251.998 774.356C251.509 773.705 250.832 773.38 249.965 773.38C249.001 773.38 248.246 773.892 247.701 774.918C247.156 775.929 246.884 777.488 246.884 779.594ZM249.965 785.807C250.943 785.807 251.705 785.302 252.25 784.29C252.795 783.265 253.068 781.699 253.068 779.594C253.068 777.806 252.893 776.421 252.543 775.437L247.89 784.727C248.393 785.447 249.085 785.807 249.965 785.807Z" fill="url(#paint18_linear_175_188)" fill-opacity="0.6"/>
<path d="M251.223 809.392H254.304V810.494H246.318V809.392H249.881V797.713L246.485 799.728L245.898 798.793L250.091 796.216H251.223V809.392Z" fill="url(#paint19_linear_175_188)" fill-opacity="0.6"/>
<path d="M249.965 819.76C251.46 819.76 252.592 820.39 253.361 821.651C254.144 822.898 254.535 824.713 254.535 827.096C254.535 829.479 254.144 831.301 253.361 832.561C252.592 833.822 251.46 834.453 249.965 834.453C248.484 834.453 247.352 833.822 246.569 832.561C245.787 831.301 245.395 829.479 245.395 827.096C245.395 824.726 245.787 822.911 246.569 821.651C247.352 820.39 248.484 819.76 249.965 819.76ZM246.884 827.096C246.884 828.786 247.037 830.109 247.345 831.065L251.998 821.859C251.509 821.207 250.832 820.882 249.965 820.882C249.001 820.882 248.246 821.394 247.701 822.42C247.156 823.431 246.884 824.99 246.884 827.096ZM249.965 833.31C250.943 833.31 251.705 832.804 252.25 831.792C252.795 830.767 253.068 829.202 253.068 827.096C253.068 825.308 252.893 823.923 252.543 822.939L247.89 832.229C248.393 832.949 249.085 833.31 249.965 833.31Z" fill="url(#paint20_linear_175_188)" fill-opacity="0.6"/>
<path d="M249.965 843.511C251.46 843.511 252.592 844.141 253.361 845.402C254.144 846.649 254.535 848.464 254.535 850.847C254.535 853.23 254.144 855.052 253.361 856.312C252.592 857.573 251.46 858.204 249.965 858.204C248.484 858.204 247.352 857.573 246.569 856.312C245.787 855.052 245.395 853.23 245.395 850.847C245.395 848.478 245.787 846.663 246.569 845.402C247.352 844.141 248.484 843.511 249.965 843.511ZM246.884 850.847C246.884 852.537 247.037 853.86 247.345 854.816L251.998 845.61C251.509 844.958 250.832 844.633 249.965 844.633C249.001 844.633 248.246 845.145 247.701 846.171C247.156 847.182 246.884 848.741 246.884 850.847ZM249.965 857.061C250.943 857.061 251.705 856.555 252.25 855.543C252.795 854.518 253.068 852.953 253.068 850.847C253.068 849.059 252.893 847.674 252.543 846.69L247.89 855.98C248.393 856.7 249.085 857.061 249.965 857.061Z" fill="url(#paint21_linear_175_188)" fill-opacity="0.6"/>
<path d="M251.223 880.645H254.304V881.747H246.318V880.645H249.881V868.966L246.485 870.982L245.898 870.046L250.091 867.469H251.223V880.645Z" fill="url(#paint22_linear_175_188)" fill-opacity="0.6"/>
<path d="M249.965 891.013C251.46 891.013 252.592 891.643 253.361 892.904C254.144 894.151 254.535 895.966 254.535 898.349C254.535 900.732 254.144 902.554 253.361 903.815C252.592 905.075 251.46 905.706 249.965 905.706C248.484 905.706 247.352 905.075 246.569 903.815C245.787 902.554 245.395 900.732 245.395 898.349C245.395 895.98 245.787 894.165 246.569 892.904C247.352 891.643 248.484 891.013 249.965 891.013ZM246.884 898.349C246.884 900.039 247.037 901.362 247.345 902.318L251.998 893.112C251.509 892.461 250.832 892.135 249.965 892.135C249.001 892.135 248.246 892.648 247.701 893.673C247.156 894.684 246.884 896.243 246.884 898.349ZM249.965 904.563C250.943 904.563 251.705 904.057 252.25 903.046C252.795 902.02 253.068 900.455 253.068 898.349C253.068 896.562 252.893 895.176 252.543 894.192L247.89 903.482C248.393 904.202 249.085 904.563 249.965 904.563Z" fill="url(#paint23_linear_175_188)" fill-opacity="0.6"/>
<path d="M251.223 928.147H254.304V929.249H246.318V928.147H249.881V916.468L246.485 918.484L245.898 917.549L250.091 914.972H251.223V928.147Z" fill="url(#paint24_linear_175_188)" fill-opacity="0.6"/>
<path d="M251.223 951.899H254.304V953H246.318V951.899H249.881V940.219L246.485 942.235L245.898 941.3L250.091 938.723H251.223V951.899Z" fill="url(#paint25_linear_175_188)" fill-opacity="0.6"/>
<path d="M191.57 677.253C193.065 677.253 194.197 677.884 194.966 679.144C195.748 680.391 196.14 682.206 196.14 684.589C196.14 686.972 195.748 688.794 194.966 690.055C194.197 691.316 193.065 691.946 191.57 691.946C190.088 691.946 188.956 691.316 188.174 690.055C187.391 688.794 187 686.972 187 684.589C187 682.22 187.391 680.405 188.174 679.144C188.956 677.884 190.088 677.253 191.57 677.253ZM188.488 684.589C188.488 686.28 188.642 687.603 188.95 688.559L193.603 679.352C193.114 678.701 192.436 678.375 191.57 678.375C190.606 678.375 189.851 678.888 189.306 679.913C188.761 680.925 188.488 682.483 188.488 684.589ZM191.57 690.803C192.548 690.803 193.31 690.297 193.855 689.286C194.4 688.261 194.672 686.695 194.672 684.589C194.672 682.802 194.498 681.417 194.148 680.433L189.495 689.722C189.998 690.443 190.689 690.803 191.57 690.803Z" fill="url(#paint26_linear_175_188)" fill-opacity="0.6"/>
<path d="M191.57 701.004C193.065 701.004 194.197 701.635 194.966 702.895C195.748 704.142 196.14 705.957 196.14 708.34C196.14 710.723 195.748 712.545 194.966 713.806C194.197 715.067 193.065 715.697 191.57 715.697C190.088 715.697 188.956 715.067 188.174 713.806C187.391 712.545 187 710.723 187 708.34C187 705.971 187.391 704.156 188.174 702.895C188.956 701.635 190.088 701.004 191.57 701.004ZM188.488 708.34C188.488 710.031 188.642 711.354 188.95 712.31L193.603 703.103C193.114 702.452 192.436 702.126 191.57 702.126C190.606 702.126 189.851 702.639 189.306 703.664C188.761 704.676 188.488 706.234 188.488 708.34ZM191.57 714.554C192.548 714.554 193.31 714.049 193.855 713.037C194.4 712.012 194.672 710.446 194.672 708.34C194.672 706.553 194.498 705.168 194.148 704.184L189.495 713.474C189.998 714.194 190.689 714.554 191.57 714.554Z" fill="url(#paint27_linear_175_188)" fill-opacity="0.6"/>
<path d="M192.828 738.139H195.909V739.24H187.922V738.139H191.486V726.459L188.09 728.475L187.503 727.54L191.696 724.963H192.828V738.139Z" fill="url(#paint28_linear_175_188)" fill-opacity="0.6"/>
<path d="M191.57 748.506C193.065 748.506 194.197 749.137 194.966 750.398C195.748 751.644 196.14 753.459 196.14 755.842C196.14 758.225 195.748 760.047 194.966 761.308C194.197 762.569 193.065 763.199 191.57 763.199C190.088 763.199 188.956 762.569 188.174 761.308C187.391 760.047 187 758.225 187 755.842C187 753.473 187.391 751.658 188.174 750.398C188.956 749.137 190.088 748.506 191.57 748.506ZM188.488 755.842C188.488 757.533 188.642 758.856 188.95 759.812L193.603 750.605C193.114 749.954 192.436 749.629 191.57 749.629C190.606 749.629 189.851 750.141 189.306 751.166C188.761 752.178 188.488 753.737 188.488 755.842ZM191.57 762.056C192.548 762.056 193.31 761.551 193.855 760.539C194.4 759.514 194.672 757.948 194.672 755.842C194.672 754.055 194.498 752.67 194.148 751.686L189.495 760.976C189.998 761.696 190.689 762.056 191.57 762.056Z" fill="url(#paint29_linear_175_188)" fill-opacity="0.6"/>
<path d="M192.828 785.641H195.909V786.743H187.922V785.641H191.486V773.962L188.09 775.977L187.503 775.042L191.696 772.465H192.828V785.641Z" fill="url(#paint30_linear_175_188)" fill-opacity="0.6"/>
<path d="M192.828 809.392H195.909V810.494H187.922V809.392H191.486V797.713L188.09 799.728L187.503 798.793L191.696 796.216H192.828V809.392Z" fill="url(#paint31_linear_175_188)" fill-opacity="0.6"/>
<path d="M231.758 643.135H234.839V644.236H226.853V643.135H230.416V631.455L227.02 633.471L226.433 632.536L230.626 629.959H231.758V643.135Z" fill="url(#paint32_linear_175_188)" fill-opacity="0.6"/>
<path d="M230.5 653.502C231.995 653.502 233.127 654.133 233.896 655.393C234.679 656.64 235.07 658.455 235.07 660.838C235.07 663.221 234.679 665.043 233.896 666.304C233.127 667.565 231.995 668.195 230.5 668.195C229.019 668.195 227.887 667.565 227.104 666.304C226.321 665.043 225.93 663.221 225.93 660.838C225.93 658.469 226.321 656.654 227.104 655.393C227.887 654.133 229.019 653.502 230.5 653.502ZM227.419 660.838C227.419 662.529 227.572 663.852 227.88 664.808L232.533 655.601C232.044 654.95 231.366 654.624 230.5 654.624C229.536 654.624 228.781 655.137 228.236 656.162C227.691 657.174 227.419 658.732 227.419 660.838ZM230.5 667.052C231.478 667.052 232.24 666.546 232.785 665.535C233.33 664.51 233.602 662.944 233.602 660.838C233.602 659.051 233.428 657.665 233.078 656.682L228.425 665.971C228.928 666.692 229.62 667.052 230.5 667.052Z" fill="url(#paint33_linear_175_188)" fill-opacity="0.6"/>
<path d="M231.758 690.637H234.839V691.738H226.853V690.637H230.416V678.957L227.02 680.973L226.433 680.038L230.626 677.461H231.758V690.637Z" fill="url(#paint34_linear_175_188)" fill-opacity="0.6"/>
<path d="M231.758 714.388H234.839V715.489H226.853V714.388H230.416V702.708L227.02 704.724L226.433 703.789L230.626 701.212H231.758V714.388Z" fill="url(#paint35_linear_175_188)" fill-opacity="0.6"/>
<path d="M230.5 724.755C231.995 724.755 233.127 725.386 233.896 726.646C234.679 727.893 235.07 729.708 235.07 732.091C235.07 734.474 234.679 736.296 233.896 737.557C233.127 738.818 231.995 739.448 230.5 739.448C229.019 739.448 227.887 738.818 227.104 737.557C226.321 736.296 225.93 734.474 225.93 732.091C225.93 729.722 226.321 727.907 227.104 726.646C227.887 725.386 229.019 724.755 230.5 724.755ZM227.419 732.091C227.419 733.782 227.572 735.105 227.88 736.061L232.533 726.854C232.044 726.203 231.366 725.878 230.5 725.878C229.536 725.878 228.781 726.39 228.236 727.415C227.691 728.427 227.419 729.985 227.419 732.091ZM230.5 738.305C231.478 738.305 232.24 737.8 232.785 736.788C233.33 735.763 233.602 734.197 233.602 732.091C233.602 730.304 233.428 728.919 233.078 727.935L228.425 737.225C228.928 737.945 229.62 738.305 230.5 738.305Z" fill="url(#paint36_linear_175_188)" fill-opacity="0.6"/>
<path d="M231.758 761.89H234.839V762.992H226.853V761.89H230.416V750.21L227.02 752.226L226.433 751.291L230.626 748.714H231.758V761.89Z" fill="url(#paint37_linear_175_188)" fill-opacity="0.6"/>
<path d="M231.758 785.641H234.839V786.743H226.853V785.641H230.416V773.962L227.02 775.977L226.433 775.042L230.626 772.465H231.758V785.641Z" fill="url(#paint38_linear_175_188)" fill-opacity="0.6"/>
<path d="M230.5 796.008C231.995 796.008 233.127 796.639 233.896 797.9C234.679 799.147 235.07 800.962 235.07 803.345C235.07 805.728 234.679 807.549 233.896 808.81C233.127 810.071 231.995 810.701 230.5 810.701C229.019 810.701 227.887 810.071 227.104 808.81C226.321 807.549 225.93 805.728 225.93 803.345C225.93 800.975 226.321 799.16 227.104 797.9C227.887 796.639 229.019 796.008 230.5 796.008ZM227.419 803.345C227.419 805.035 227.572 806.358 227.88 807.314L232.533 798.107C232.044 797.456 231.366 797.131 230.5 797.131C229.536 797.131 228.781 797.643 228.236 798.669C227.691 799.68 227.419 801.239 227.419 803.345ZM230.5 809.558C231.478 809.558 232.24 809.053 232.785 808.041C233.33 807.016 233.602 805.451 233.602 803.345C233.602 801.557 233.428 800.172 233.078 799.188L228.425 808.478C228.928 809.198 229.62 809.558 230.5 809.558Z" fill="url(#paint39_linear_175_188)" fill-opacity="0.6"/>
<path d="M231.758 833.143H234.839V834.245H226.853V833.143H230.416V821.464L227.02 823.48L226.433 822.544L230.626 819.967H231.758V833.143Z" fill="url(#paint40_linear_175_188)" fill-opacity="0.6"/>
<path d="M230.5 843.511C231.995 843.511 233.127 844.141 233.896 845.402C234.679 846.649 235.07 848.464 235.07 850.847C235.07 853.23 234.679 855.052 233.896 856.312C233.127 857.573 231.995 858.204 230.5 858.204C229.019 858.204 227.887 857.573 227.104 856.312C226.321 855.052 225.93 853.23 225.93 850.847C225.93 848.478 226.321 846.663 227.104 845.402C227.887 844.141 229.019 843.511 230.5 843.511ZM227.419 850.847C227.419 852.537 227.572 853.86 227.88 854.816L232.533 845.61C232.044 844.958 231.366 844.633 230.5 844.633C229.536 844.633 228.781 845.145 228.236 846.171C227.691 847.182 227.419 848.741 227.419 850.847ZM230.5 857.061C231.478 857.061 232.24 856.555 232.785 855.543C233.33 854.518 233.602 852.953 233.602 850.847C233.602 849.059 233.428 847.674 233.078 846.69L228.425 855.98C228.928 856.7 229.62 857.061 230.5 857.061Z" fill="url(#paint41_linear_175_188)" fill-opacity="0.6"/>
<path d="M269.43 629.751C270.926 629.751 272.057 630.381 272.826 631.642C273.609 632.889 274 634.704 274 637.087C274 639.47 273.609 641.292 272.826 642.553C272.057 643.814 270.926 644.444 269.43 644.444C267.949 644.444 266.817 643.814 266.034 642.553C265.252 641.292 264.86 639.47 264.86 637.087C264.86 634.718 265.252 632.903 266.034 631.642C266.817 630.381 267.949 629.751 269.43 629.751ZM266.349 637.087C266.349 638.777 266.502 640.101 266.81 641.057L271.464 631.85C270.974 631.199 270.297 630.873 269.43 630.873C268.466 630.873 267.711 631.386 267.166 632.411C266.621 633.423 266.349 634.981 266.349 637.087ZM269.43 643.301C270.408 643.301 271.17 642.795 271.715 641.784C272.26 640.759 272.533 639.193 272.533 637.087C272.533 635.3 272.358 633.914 272.009 632.931L267.355 642.22C267.858 642.941 268.55 643.301 269.43 643.301Z" fill="url(#paint42_linear_175_188)" fill-opacity="0.6"/>
<path d="M270.688 666.886H273.769V667.987H265.783V666.886H269.346V655.206L265.95 657.222L265.363 656.287L269.556 653.71H270.688V666.886Z" fill="url(#paint43_linear_175_188)" fill-opacity="0.6"/>
<path d="M270.688 690.637H273.769V691.738H265.783V690.637H269.346V678.957L265.95 680.973L265.363 680.038L269.556 677.461H270.688V690.637Z" fill="url(#paint44_linear_175_188)" fill-opacity="0.6"/>
<path d="M269.43 701.004C270.926 701.004 272.057 701.635 272.826 702.895C273.609 704.142 274 705.957 274 708.34C274 710.723 273.609 712.545 272.826 713.806C272.057 715.067 270.926 715.697 269.43 715.697C267.949 715.697 266.817 715.067 266.034 713.806C265.252 712.545 264.86 710.723 264.86 708.34C264.86 705.971 265.252 704.156 266.034 702.895C266.817 701.635 267.949 701.004 269.43 701.004ZM266.349 708.34C266.349 710.031 266.502 711.354 266.81 712.31L271.464 703.103C270.974 702.452 270.297 702.126 269.43 702.126C268.466 702.126 267.711 702.639 267.166 703.664C266.621 704.676 266.349 706.234 266.349 708.34ZM269.43 714.554C270.408 714.554 271.17 714.049 271.715 713.037C272.26 712.012 272.533 710.446 272.533 708.34C272.533 706.553 272.358 705.168 272.009 704.184L267.355 713.474C267.858 714.194 268.55 714.554 269.43 714.554Z" fill="url(#paint45_linear_175_188)" fill-opacity="0.6"/>
<path d="M269.43 724.755C270.926 724.755 272.057 725.386 272.826 726.646C273.609 727.893 274 729.708 274 732.091C274 734.474 273.609 736.296 272.826 737.557C272.057 738.818 270.926 739.448 269.43 739.448C267.949 739.448 266.817 738.818 266.034 737.557C265.252 736.296 264.86 734.474 264.86 732.091C264.86 729.722 265.252 727.907 266.034 726.646C266.817 725.386 267.949 724.755 269.43 724.755ZM266.349 732.091C266.349 733.782 266.502 735.105 266.81 736.061L271.464 726.854C270.974 726.203 270.297 725.878 269.43 725.878C268.466 725.878 267.711 726.39 267.166 727.415C266.621 728.427 266.349 729.985 266.349 732.091ZM269.43 738.305C270.408 738.305 271.17 737.8 271.715 736.788C272.26 735.763 272.533 734.197 272.533 732.091C272.533 730.304 272.358 728.919 272.009 727.935L267.355 737.225C267.858 737.945 268.55 738.305 269.43 738.305Z" fill="url(#paint46_linear_175_188)" fill-opacity="0.6"/>
<g opacity="0.6">
<path d="M1097.93 306C1099.36 306 1100.44 306.605 1101.17 307.815C1101.92 309.011 1102.29 310.753 1102.29 313.04C1102.29 315.327 1101.92 317.075 1101.17 318.285C1100.44 319.495 1099.36 320.1 1097.93 320.1C1096.52 320.1 1095.44 319.495 1094.69 318.285C1093.94 317.075 1093.57 315.327 1093.57 313.04C1093.57 310.767 1093.94 309.025 1094.69 307.815C1095.44 306.605 1096.52 306 1097.93 306ZM1094.99 313.04C1094.99 314.662 1095.14 315.932 1095.43 316.849L1099.87 308.014C1099.4 307.389 1098.76 307.077 1097.93 307.077C1097.01 307.077 1096.29 307.569 1095.77 308.553C1095.25 309.523 1094.99 311.019 1094.99 313.04ZM1097.93 319.003C1098.86 319.003 1099.59 318.518 1100.11 317.547C1100.63 316.564 1100.89 315.061 1100.89 313.04C1100.89 311.325 1100.72 309.995 1100.39 309.051L1095.95 317.966C1096.43 318.658 1097.09 319.003 1097.93 319.003Z" fill="url(#paint47_linear_175_188)"/>
<path d="M1099.13 341.637H1102.07V342.694H1094.45V341.637H1097.85V330.428L1094.61 332.363L1094.05 331.465L1098.05 328.992H1099.13V341.637Z" fill="url(#paint48_linear_175_188)"/>
<path d="M1097.93 351.586C1099.36 351.586 1100.44 352.191 1101.17 353.4C1101.92 354.597 1102.29 356.339 1102.29 358.626C1102.29 360.913 1101.92 362.661 1101.17 363.871C1100.44 365.081 1099.36 365.686 1097.93 365.686C1096.52 365.686 1095.44 365.081 1094.69 363.871C1093.94 362.661 1093.57 360.913 1093.57 358.626C1093.57 356.352 1093.94 354.61 1094.69 353.4C1095.44 352.191 1096.52 351.586 1097.93 351.586ZM1094.99 358.626C1094.99 360.248 1095.14 361.518 1095.43 362.435L1099.87 353.6C1099.4 352.975 1098.76 352.663 1097.93 352.663C1097.01 352.663 1096.29 353.155 1095.77 354.138C1095.25 355.109 1094.99 356.605 1094.99 358.626ZM1097.93 364.589C1098.86 364.589 1099.59 364.104 1100.11 363.133C1100.63 362.149 1100.89 360.647 1100.89 358.626C1100.89 356.911 1100.72 355.581 1100.39 354.637L1095.95 363.552C1096.43 364.243 1097.09 364.589 1097.93 364.589Z" fill="url(#paint49_linear_175_188)"/>
<path d="M1099.13 387.222H1102.07V388.279H1094.45V387.222H1097.85V376.014L1094.61 377.948L1094.05 377.051L1098.05 374.578H1099.13V387.222Z" fill="url(#paint50_linear_175_188)"/>
<path d="M1099.13 410.015H1102.07V411.072H1094.45V410.015H1097.85V398.807L1094.61 400.741L1094.05 399.844L1098.05 397.371H1099.13V410.015Z" fill="url(#paint51_linear_175_188)"/>
<path d="M1097.93 419.964C1099.36 419.964 1100.44 420.569 1101.17 421.779C1101.92 422.976 1102.29 424.717 1102.29 427.004C1102.29 429.291 1101.92 431.039 1101.17 432.249C1100.44 433.459 1099.36 434.064 1097.93 434.064C1096.52 434.064 1095.44 433.459 1094.69 432.249C1093.94 431.039 1093.57 429.291 1093.57 427.004C1093.57 424.731 1093.94 422.989 1094.69 421.779C1095.44 420.569 1096.52 419.964 1097.93 419.964ZM1094.99 427.004C1094.99 428.626 1095.14 429.896 1095.43 430.813L1099.87 421.978C1099.4 421.353 1098.76 421.041 1097.93 421.041C1097.01 421.041 1096.29 421.533 1095.77 422.517C1095.25 423.487 1094.99 424.983 1094.99 427.004ZM1097.93 432.967C1098.86 432.967 1099.59 432.482 1100.11 431.511C1100.63 430.528 1100.89 429.025 1100.89 427.004C1100.89 425.289 1100.72 423.959 1100.39 423.015L1095.95 431.93C1096.43 432.622 1097.09 432.967 1097.93 432.967Z" fill="url(#paint52_linear_175_188)"/>
<path d="M1099.13 455.601H1102.07V456.658H1094.45V455.601H1097.85V444.392L1094.61 446.327L1094.05 445.429L1098.05 442.956H1099.13V455.601Z" fill="url(#paint53_linear_175_188)"/>
<path d="M1097.93 465.55C1099.36 465.55 1100.44 466.155 1101.17 467.365C1101.92 468.561 1102.29 470.303 1102.29 472.59C1102.29 474.877 1101.92 476.625 1101.17 477.835C1100.44 479.045 1099.36 479.65 1097.93 479.65C1096.52 479.65 1095.44 479.045 1094.69 477.835C1093.94 476.625 1093.57 474.877 1093.57 472.59C1093.57 470.316 1093.94 468.574 1094.69 467.365C1095.44 466.155 1096.52 465.55 1097.93 465.55ZM1094.99 472.59C1094.99 474.212 1095.14 475.482 1095.43 476.399L1099.87 467.564C1099.4 466.939 1098.76 466.627 1097.93 466.627C1097.01 466.627 1096.29 467.119 1095.77 468.102C1095.25 469.073 1094.99 470.569 1094.99 472.59ZM1097.93 478.553C1098.86 478.553 1099.59 478.068 1100.11 477.097C1100.63 476.113 1100.89 474.611 1100.89 472.59C1100.89 470.875 1100.72 469.545 1100.39 468.601L1095.95 477.516C1096.43 478.207 1097.09 478.553 1097.93 478.553Z" fill="url(#paint54_linear_175_188)"/>
<path d="M1097.93 488.342C1099.36 488.342 1100.44 488.947 1101.17 490.157C1101.92 491.354 1102.29 493.096 1102.29 495.383C1102.29 497.669 1101.92 499.418 1101.17 500.628C1100.44 501.838 1099.36 502.443 1097.93 502.443C1096.52 502.443 1095.44 501.838 1094.69 500.628C1093.94 499.418 1093.57 497.669 1093.57 495.383C1093.57 493.109 1093.94 491.367 1094.69 490.157C1095.44 488.947 1096.52 488.342 1097.93 488.342ZM1094.99 495.383C1094.99 497.005 1095.14 498.274 1095.43 499.192L1099.87 490.357C1099.4 489.732 1098.76 489.419 1097.93 489.419C1097.01 489.419 1096.29 489.911 1095.77 490.895C1095.25 491.866 1094.99 493.362 1094.99 495.383ZM1097.93 501.346C1098.86 501.346 1099.59 500.86 1100.11 499.89C1100.63 498.906 1100.89 497.404 1100.89 495.383C1100.89 493.667 1100.72 492.338 1100.39 491.394L1095.95 500.309C1096.43 501 1097.09 501.346 1097.93 501.346Z" fill="url(#paint55_linear_175_188)"/>
<path d="M1099.13 523.979H1102.07V525.036H1094.45V523.979H1097.85V512.771L1094.61 514.705L1094.05 513.808L1098.05 511.335H1099.13V523.979Z" fill="url(#paint56_linear_175_188)"/>
<path d="M1097.93 533.928C1099.36 533.928 1100.44 534.533 1101.17 535.743C1101.92 536.94 1102.29 538.681 1102.29 540.968C1102.29 543.255 1101.92 545.003 1101.17 546.213C1100.44 547.423 1099.36 548.028 1097.93 548.028C1096.52 548.028 1095.44 547.423 1094.69 546.213C1093.94 545.003 1093.57 543.255 1093.57 540.968C1093.57 538.695 1093.94 536.953 1094.69 535.743C1095.44 534.533 1096.52 533.928 1097.93 533.928ZM1094.99 540.968C1094.99 542.59 1095.14 543.86 1095.43 544.777L1099.87 535.942C1099.4 535.317 1098.76 535.005 1097.93 535.005C1097.01 535.005 1096.29 535.497 1095.77 536.481C1095.25 537.451 1094.99 538.947 1094.99 540.968ZM1097.93 546.931C1098.86 546.931 1099.59 546.446 1100.11 545.475C1100.63 544.492 1100.89 542.989 1100.89 540.968C1100.89 539.253 1100.72 537.923 1100.39 536.979L1095.95 545.894C1096.43 546.586 1097.09 546.931 1097.93 546.931Z" fill="url(#paint57_linear_175_188)"/>
<path d="M1099.13 569.565H1102.07V570.622H1094.45V569.565H1097.85V558.356L1094.61 560.291L1094.05 559.393L1098.05 556.92H1099.13V569.565Z" fill="url(#paint58_linear_175_188)"/>
<path d="M1099.13 592.357H1102.07V593.414H1094.45V592.357H1097.85V581.149L1094.61 583.084L1094.05 582.186L1098.05 579.713H1099.13V592.357Z" fill="url(#paint59_linear_175_188)"/>
<path d="M1135.07 351.586C1136.5 351.586 1137.58 352.191 1138.31 353.4C1139.06 354.597 1139.43 356.339 1139.43 358.626C1139.43 360.913 1139.06 362.661 1138.31 363.871C1137.58 365.081 1136.5 365.686 1135.07 365.686C1133.66 365.686 1132.58 365.081 1131.83 363.871C1131.08 362.661 1130.71 360.913 1130.71 358.626C1130.71 356.352 1131.08 354.61 1131.83 353.4C1132.58 352.191 1133.66 351.586 1135.07 351.586ZM1132.13 358.626C1132.13 360.248 1132.28 361.518 1132.57 362.435L1137.01 353.6C1136.54 352.975 1135.9 352.663 1135.07 352.663C1134.15 352.663 1133.43 353.155 1132.91 354.138C1132.39 355.109 1132.13 356.605 1132.13 358.626ZM1135.07 364.589C1136 364.589 1136.73 364.104 1137.25 363.133C1137.77 362.149 1138.03 360.647 1138.03 358.626C1138.03 356.911 1137.86 355.581 1137.53 354.637L1133.09 363.552C1133.57 364.243 1134.23 364.589 1135.07 364.589Z" fill="url(#paint60_linear_175_188)"/>
<path d="M1136.27 387.222H1139.21V388.279H1131.59V387.222H1134.99V376.014L1131.75 377.948L1131.19 377.051L1135.19 374.578H1136.27V387.222Z" fill="url(#paint61_linear_175_188)"/>
<path d="M1135.07 397.171C1136.5 397.171 1137.58 397.776 1138.31 398.986C1139.06 400.183 1139.43 401.924 1139.43 404.211C1139.43 406.498 1139.06 408.247 1138.31 409.457C1137.58 410.666 1136.5 411.271 1135.07 411.271C1133.66 411.271 1132.58 410.666 1131.83 409.457C1131.08 408.247 1130.71 406.498 1130.71 404.211C1130.71 401.938 1131.08 400.196 1131.83 398.986C1132.58 397.776 1133.66 397.171 1135.07 397.171ZM1132.13 404.211C1132.13 405.833 1132.28 407.103 1132.57 408.021L1137.01 399.186C1136.54 398.561 1135.9 398.248 1135.07 398.248C1134.15 398.248 1133.43 398.74 1132.91 399.724C1132.39 400.695 1132.13 402.19 1132.13 404.211ZM1135.07 410.174C1136 410.174 1136.73 409.689 1137.25 408.719C1137.77 407.735 1138.03 406.232 1138.03 404.211C1138.03 402.496 1137.86 401.167 1137.53 400.223L1133.09 409.137C1133.57 409.829 1134.23 410.174 1135.07 410.174Z" fill="url(#paint62_linear_175_188)"/>
<path d="M1135.07 419.964C1136.5 419.964 1137.58 420.569 1138.31 421.779C1139.06 422.976 1139.43 424.717 1139.43 427.004C1139.43 429.291 1139.06 431.039 1138.31 432.249C1137.58 433.459 1136.5 434.064 1135.07 434.064C1133.66 434.064 1132.58 433.459 1131.83 432.249C1131.08 431.039 1130.71 429.291 1130.71 427.004C1130.71 424.731 1131.08 422.989 1131.83 421.779C1132.58 420.569 1133.66 419.964 1135.07 419.964ZM1132.13 427.004C1132.13 428.626 1132.28 429.896 1132.57 430.813L1137.01 421.978C1136.54 421.353 1135.9 421.041 1135.07 421.041C1134.15 421.041 1133.43 421.533 1132.91 422.517C1132.39 423.487 1132.13 424.983 1132.13 427.004ZM1135.07 432.967C1136 432.967 1136.73 432.482 1137.25 431.511C1137.77 430.528 1138.03 429.025 1138.03 427.004C1138.03 425.289 1137.86 423.959 1137.53 423.015L1133.09 431.93C1133.57 432.622 1134.23 432.967 1135.07 432.967Z" fill="url(#paint63_linear_175_188)"/>
<path d="M1136.27 455.601H1139.21V456.658H1131.59V455.601H1134.99V444.392L1131.75 446.327L1131.19 445.429L1135.19 442.956H1136.27V455.601Z" fill="url(#paint64_linear_175_188)"/>
<path d="M1135.07 465.55C1136.5 465.55 1137.58 466.155 1138.31 467.365C1139.06 468.561 1139.43 470.303 1139.43 472.59C1139.43 474.877 1139.06 476.625 1138.31 477.835C1137.58 479.045 1136.5 479.65 1135.07 479.65C1133.66 479.65 1132.58 479.045 1131.83 477.835C1131.08 476.625 1130.71 474.877 1130.71 472.59C1130.71 470.316 1131.08 468.574 1131.83 467.365C1132.58 466.155 1133.66 465.55 1135.07 465.55ZM1132.13 472.59C1132.13 474.212 1132.28 475.482 1132.57 476.399L1137.01 467.564C1136.54 466.939 1135.9 466.627 1135.07 466.627C1134.15 466.627 1133.43 467.119 1132.91 468.102C1132.39 469.073 1132.13 470.569 1132.13 472.59ZM1135.07 478.553C1136 478.553 1136.73 478.068 1137.25 477.097C1137.77 476.113 1138.03 474.611 1138.03 472.59C1138.03 470.875 1137.86 469.545 1137.53 468.601L1133.09 477.516C1133.57 478.207 1134.23 478.553 1135.07 478.553Z" fill="url(#paint65_linear_175_188)"/>
<path d="M1136.27 501.186H1139.21V502.243H1131.59V501.186H1134.99V489.978L1131.75 491.912L1131.19 491.015L1135.19 488.542H1136.27V501.186Z" fill="url(#paint66_linear_175_188)"/>
<path d="M1135.07 511.135C1136.5 511.135 1137.58 511.74 1138.31 512.95C1139.06 514.147 1139.43 515.888 1139.43 518.175C1139.43 520.462 1139.06 522.211 1138.31 523.421C1137.58 524.63 1136.5 525.235 1135.07 525.235C1133.66 525.235 1132.58 524.63 1131.83 523.421C1131.08 522.211 1130.71 520.462 1130.71 518.175C1130.71 515.902 1131.08 514.16 1131.83 512.95C1132.58 511.74 1133.66 511.135 1135.07 511.135ZM1132.13 518.175C1132.13 519.797 1132.28 521.067 1132.57 521.985L1137.01 513.15C1136.54 512.525 1135.9 512.212 1135.07 512.212C1134.15 512.212 1133.43 512.704 1132.91 513.688C1132.39 514.659 1132.13 516.154 1132.13 518.175ZM1135.07 524.139C1136 524.139 1136.73 523.653 1137.25 522.683C1137.77 521.699 1138.03 520.196 1138.03 518.175C1138.03 516.46 1137.86 515.131 1137.53 514.187L1133.09 523.101C1133.57 523.793 1134.23 524.139 1135.07 524.139Z" fill="url(#paint67_linear_175_188)"/>
<path d="M1135.07 533.928C1136.5 533.928 1137.58 534.533 1138.31 535.743C1139.06 536.94 1139.43 538.681 1139.43 540.968C1139.43 543.255 1139.06 545.003 1138.31 546.213C1137.58 547.423 1136.5 548.028 1135.07 548.028C1133.66 548.028 1132.58 547.423 1131.83 546.213C1131.08 545.003 1130.71 543.255 1130.71 540.968C1130.71 538.695 1131.08 536.953 1131.83 535.743C1132.58 534.533 1133.66 533.928 1135.07 533.928ZM1132.13 540.968C1132.13 542.59 1132.28 543.86 1132.57 544.777L1137.01 535.942C1136.54 535.317 1135.9 535.005 1135.07 535.005C1134.15 535.005 1133.43 535.497 1132.91 536.481C1132.39 537.451 1132.13 538.947 1132.13 540.968ZM1135.07 546.931C1136 546.931 1136.73 546.446 1137.25 545.475C1137.77 544.492 1138.03 542.989 1138.03 540.968C1138.03 539.253 1137.86 537.923 1137.53 536.979L1133.09 545.894C1133.57 546.586 1134.23 546.931 1135.07 546.931Z" fill="url(#paint68_linear_175_188)"/>
<path d="M1136.27 569.565H1139.21V570.622H1131.59V569.565H1134.99V558.356L1131.75 560.291L1131.19 559.393L1135.19 556.92H1136.27V569.565Z" fill="url(#paint69_linear_175_188)"/>
<path d="M1135.07 579.514C1136.5 579.514 1137.58 580.119 1138.31 581.329C1139.06 582.525 1139.43 584.267 1139.43 586.554C1139.43 588.841 1139.06 590.589 1138.31 591.799C1137.58 593.009 1136.5 593.614 1135.07 593.614C1133.66 593.614 1132.58 593.009 1131.83 591.799C1131.08 590.589 1130.71 588.841 1130.71 586.554C1130.71 584.28 1131.08 582.538 1131.83 581.329C1132.58 580.119 1133.66 579.514 1135.07 579.514ZM1132.13 586.554C1132.13 588.176 1132.28 589.446 1132.57 590.363L1137.01 581.528C1136.54 580.903 1135.9 580.591 1135.07 580.591C1134.15 580.591 1133.43 581.083 1132.91 582.066C1132.39 583.037 1132.13 584.533 1132.13 586.554ZM1135.07 592.517C1136 592.517 1136.73 592.032 1137.25 591.061C1137.77 590.077 1138.03 588.575 1138.03 586.554C1138.03 584.839 1137.86 583.509 1137.53 582.565L1133.09 591.48C1133.57 592.171 1134.23 592.517 1135.07 592.517Z" fill="url(#paint70_linear_175_188)"/>
<path d="M1136.27 615.15H1139.21V616.207H1131.59V615.15H1134.99V603.942L1131.75 605.876L1131.19 604.979L1135.19 602.506H1136.27V615.15Z" fill="url(#paint71_linear_175_188)"/>
<path d="M1136.27 637.943H1139.21V639H1131.59V637.943H1134.99V626.735L1131.75 628.669L1131.19 627.772L1135.19 625.299H1136.27V637.943Z" fill="url(#paint72_linear_175_188)"/>
<path d="M1079.36 374.378C1080.79 374.378 1081.87 374.983 1082.6 376.193C1083.35 377.39 1083.72 379.132 1083.72 381.419C1083.72 383.705 1083.35 385.454 1082.6 386.664C1081.87 387.874 1080.79 388.479 1079.36 388.479C1077.95 388.479 1076.87 387.874 1076.12 386.664C1075.37 385.454 1075 383.705 1075 381.419C1075 379.145 1075.37 377.403 1076.12 376.193C1076.87 374.983 1077.95 374.378 1079.36 374.378ZM1076.42 381.419C1076.42 383.041 1076.57 384.31 1076.86 385.228L1081.3 376.393C1080.83 375.768 1080.19 375.455 1079.36 375.455C1078.44 375.455 1077.72 375.947 1077.2 376.931C1076.68 377.902 1076.42 379.398 1076.42 381.419ZM1079.36 387.382C1080.29 387.382 1081.02 386.896 1081.54 385.926C1082.06 384.942 1082.32 383.439 1082.32 381.419C1082.32 379.703 1082.15 378.374 1081.82 377.43L1077.38 386.345C1077.86 387.036 1078.52 387.382 1079.36 387.382Z" fill="url(#paint73_linear_175_188)"/>
<path d="M1079.36 397.171C1080.79 397.171 1081.87 397.776 1082.6 398.986C1083.35 400.183 1083.72 401.924 1083.72 404.211C1083.72 406.498 1083.35 408.247 1082.6 409.457C1081.87 410.666 1080.79 411.271 1079.36 411.271C1077.95 411.271 1076.87 410.666 1076.12 409.457C1075.37 408.247 1075 406.498 1075 404.211C1075 401.938 1075.37 400.196 1076.12 398.986C1076.87 397.776 1077.95 397.171 1079.36 397.171ZM1076.42 404.211C1076.42 405.833 1076.57 407.103 1076.86 408.021L1081.3 399.186C1080.83 398.561 1080.19 398.248 1079.36 398.248C1078.44 398.248 1077.72 398.74 1077.2 399.724C1076.68 400.695 1076.42 402.19 1076.42 404.211ZM1079.36 410.174C1080.29 410.174 1081.02 409.689 1081.54 408.719C1082.06 407.735 1082.32 406.232 1082.32 404.211C1082.32 402.496 1082.15 401.167 1081.82 400.223L1077.38 409.137C1077.86 409.829 1078.52 410.174 1079.36 410.174Z" fill="url(#paint74_linear_175_188)"/>
<path d="M1080.56 432.808H1083.5V433.865H1075.88V432.808H1079.28V421.599L1076.04 423.534L1075.48 422.636L1079.48 420.163H1080.56V432.808Z" fill="url(#paint75_linear_175_188)"/>
<path d="M1079.36 442.757C1080.79 442.757 1081.87 443.362 1082.6 444.572C1083.35 445.768 1083.72 447.51 1083.72 449.797C1083.72 452.084 1083.35 453.832 1082.6 455.042C1081.87 456.252 1080.79 456.857 1079.36 456.857C1077.95 456.857 1076.87 456.252 1076.12 455.042C1075.37 453.832 1075 452.084 1075 449.797C1075 447.523 1075.37 445.782 1076.12 444.572C1076.87 443.362 1077.95 442.757 1079.36 442.757ZM1076.42 449.797C1076.42 451.419 1076.57 452.689 1076.86 453.606L1081.3 444.771C1080.83 444.146 1080.19 443.834 1079.36 443.834C1078.44 443.834 1077.72 444.326 1077.2 445.31C1076.68 446.28 1076.42 447.776 1076.42 449.797ZM1079.36 455.76C1080.29 455.76 1081.02 455.275 1081.54 454.304C1082.06 453.32 1082.32 451.818 1082.32 449.797C1082.32 448.082 1082.15 446.752 1081.82 445.808L1077.38 454.723C1077.86 455.414 1078.52 455.76 1079.36 455.76Z" fill="url(#paint76_linear_175_188)"/>
<path d="M1080.56 478.393H1083.5V479.45H1075.88V478.393H1079.28V467.185L1076.04 469.12L1075.48 468.222L1079.48 465.749H1080.56V478.393Z" fill="url(#paint77_linear_175_188)"/>
<path d="M1080.56 501.186H1083.5V502.243H1075.88V501.186H1079.28V489.978L1076.04 491.912L1075.48 491.015L1079.48 488.542H1080.56V501.186Z" fill="url(#paint78_linear_175_188)"/>
<path d="M1117.7 341.637H1120.64V342.694H1113.02V341.637H1116.42V330.428L1113.18 332.363L1112.62 331.465L1116.62 328.992H1117.7V341.637Z" fill="url(#paint79_linear_175_188)"/>
<path d="M1116.5 351.586C1117.93 351.586 1119.01 352.191 1119.74 353.4C1120.49 354.597 1120.86 356.339 1120.86 358.626C1120.86 360.913 1120.49 362.661 1119.74 363.871C1119.01 365.081 1117.93 365.686 1116.5 365.686C1115.09 365.686 1114.01 365.081 1113.26 363.871C1112.51 362.661 1112.14 360.913 1112.14 358.626C1112.14 356.352 1112.51 354.61 1113.26 353.4C1114.01 352.191 1115.09 351.586 1116.5 351.586ZM1113.56 358.626C1113.56 360.248 1113.71 361.518 1114 362.435L1118.44 353.6C1117.97 352.975 1117.33 352.663 1116.5 352.663C1115.58 352.663 1114.86 353.155 1114.34 354.138C1113.82 355.109 1113.56 356.605 1113.56 358.626ZM1116.5 364.589C1117.43 364.589 1118.16 364.104 1118.68 363.133C1119.2 362.149 1119.46 360.647 1119.46 358.626C1119.46 356.911 1119.29 355.581 1118.96 354.637L1114.52 363.552C1115 364.243 1115.66 364.589 1116.5 364.589Z" fill="url(#paint80_linear_175_188)"/>
<path d="M1117.7 387.222H1120.64V388.279H1113.02V387.222H1116.42V376.014L1113.18 377.948L1112.62 377.051L1116.62 374.578H1117.7V387.222Z" fill="url(#paint81_linear_175_188)"/>
<path d="M1117.7 410.015H1120.64V411.072H1113.02V410.015H1116.42V398.807L1113.18 400.741L1112.62 399.844L1116.62 397.371H1117.7V410.015Z" fill="url(#paint82_linear_175_188)"/>
<path d="M1116.5 419.964C1117.93 419.964 1119.01 420.569 1119.74 421.779C1120.49 422.976 1120.86 424.717 1120.86 427.004C1120.86 429.291 1120.49 431.039 1119.74 432.249C1119.01 433.459 1117.93 434.064 1116.5 434.064C1115.09 434.064 1114.01 433.459 1113.26 432.249C1112.51 431.039 1112.14 429.291 1112.14 427.004C1112.14 424.731 1112.51 422.989 1113.26 421.779C1114.01 420.569 1115.09 419.964 1116.5 419.964ZM1113.56 427.004C1113.56 428.626 1113.71 429.896 1114 430.813L1118.44 421.978C1117.97 421.353 1117.33 421.041 1116.5 421.041C1115.58 421.041 1114.86 421.533 1114.34 422.517C1113.82 423.487 1113.56 424.983 1113.56 427.004ZM1116.5 432.967C1117.43 432.967 1118.16 432.482 1118.68 431.511C1119.2 430.528 1119.46 429.025 1119.46 427.004C1119.46 425.289 1119.29 423.959 1118.96 423.015L1114.52 431.93C1115 432.622 1115.66 432.967 1116.5 432.967Z" fill="url(#paint83_linear_175_188)"/>
<path d="M1117.7 455.601H1120.64V456.658H1113.02V455.601H1116.42V444.392L1113.18 446.327L1112.62 445.429L1116.62 442.956H1117.7V455.601Z" fill="url(#paint84_linear_175_188)"/>
<path d="M1117.7 478.393H1120.64V479.45H1113.02V478.393H1116.42V467.185L1113.18 469.12L1112.62 468.222L1116.62 465.749H1117.7V478.393Z" fill="url(#paint85_linear_175_188)"/>
<path d="M1116.5 488.342C1117.93 488.342 1119.01 488.947 1119.74 490.157C1120.49 491.354 1120.86 493.096 1120.86 495.383C1120.86 497.669 1120.49 499.418 1119.74 500.628C1119.01 501.838 1117.93 502.443 1116.5 502.443C1115.09 502.443 1114.01 501.838 1113.26 500.628C1112.51 499.418 1112.14 497.669 1112.14 495.383C1112.14 493.109 1112.51 491.367 1113.26 490.157C1114.01 488.947 1115.09 488.342 1116.5 488.342ZM1113.56 495.383C1113.56 497.005 1113.71 498.274 1114 499.192L1118.44 490.357C1117.97 489.732 1117.33 489.419 1116.5 489.419C1115.58 489.419 1114.86 489.911 1114.34 490.895C1113.82 491.866 1113.56 493.362 1113.56 495.383ZM1116.5 501.346C1117.43 501.346 1118.16 500.86 1118.68 499.89C1119.2 498.906 1119.46 497.404 1119.46 495.383C1119.46 493.667 1119.29 492.338 1118.96 491.394L1114.52 500.309C1115 501 1115.66 501.346 1116.5 501.346Z" fill="url(#paint86_linear_175_188)"/>
<path d="M1117.7 523.979H1120.64V525.036H1113.02V523.979H1116.42V512.771L1113.18 514.705L1112.62 513.808L1116.62 511.335H1117.7V523.979Z" fill="url(#paint87_linear_175_188)"/>
<path d="M1116.5 533.928C1117.93 533.928 1119.01 534.533 1119.74 535.743C1120.49 536.94 1120.86 538.681 1120.86 540.968C1120.86 543.255 1120.49 545.003 1119.74 546.213C1119.01 547.423 1117.93 548.028 1116.5 548.028C1115.09 548.028 1114.01 547.423 1113.26 546.213C1112.51 545.003 1112.14 543.255 1112.14 540.968C1112.14 538.695 1112.51 536.953 1113.26 535.743C1114.01 534.533 1115.09 533.928 1116.5 533.928ZM1113.56 540.968C1113.56 542.59 1113.71 543.86 1114 544.777L1118.44 535.942C1117.97 535.317 1117.33 535.005 1116.5 535.005C1115.58 535.005 1114.86 535.497 1114.34 536.481C1113.82 537.451 1113.56 538.947 1113.56 540.968ZM1116.5 546.931C1117.43 546.931 1118.16 546.446 1118.68 545.475C1119.2 544.492 1119.46 542.989 1119.46 540.968C1119.46 539.253 1119.29 537.923 1118.96 536.979L1114.52 545.894C1115 546.586 1115.66 546.931 1116.5 546.931Z" fill="url(#paint88_linear_175_188)"/>
<path d="M1153.64 328.793C1155.07 328.793 1156.15 329.398 1156.88 330.608C1157.63 331.804 1158 333.546 1158 335.833C1158 338.12 1157.63 339.868 1156.88 341.078C1156.15 342.288 1155.07 342.893 1153.64 342.893C1152.23 342.893 1151.15 342.288 1150.4 341.078C1149.65 339.868 1149.28 338.12 1149.28 335.833C1149.28 333.559 1149.65 331.818 1150.4 330.608C1151.15 329.398 1152.23 328.793 1153.64 328.793ZM1150.7 335.833C1150.7 337.455 1150.85 338.725 1151.14 339.642L1155.58 330.807C1155.11 330.182 1154.47 329.87 1153.64 329.87C1152.72 329.87 1152 330.362 1151.48 331.346C1150.96 332.316 1150.7 333.812 1150.7 335.833ZM1153.64 341.796C1154.57 341.796 1155.3 341.311 1155.82 340.34C1156.34 339.356 1156.6 337.854 1156.6 335.833C1156.6 334.118 1156.43 332.788 1156.1 331.844L1151.66 340.759C1152.14 341.45 1152.8 341.796 1153.64 341.796Z" fill="url(#paint89_linear_175_188)"/>
<path d="M1154.84 364.429H1157.78V365.486H1150.16V364.429H1153.56V353.221L1150.32 355.156L1149.76 354.258L1153.76 351.785H1154.84V364.429Z" fill="url(#paint90_linear_175_188)"/>
<path d="M1154.84 387.222H1157.78V388.279H1150.16V387.222H1153.56V376.014L1150.32 377.948L1149.76 377.051L1153.76 374.578H1154.84V387.222Z" fill="url(#paint91_linear_175_188)"/>
<path d="M1153.64 397.171C1155.07 397.171 1156.15 397.776 1156.88 398.986C1157.63 400.183 1158 401.924 1158 404.211C1158 406.498 1157.63 408.247 1156.88 409.457C1156.15 410.666 1155.07 411.271 1153.64 411.271C1152.23 411.271 1151.15 410.666 1150.4 409.457C1149.65 408.247 1149.28 406.498 1149.28 404.211C1149.28 401.938 1149.65 400.196 1150.4 398.986C1151.15 397.776 1152.23 397.171 1153.64 397.171ZM1150.7 404.211C1150.7 405.833 1150.85 407.103 1151.14 408.021L1155.58 399.186C1155.11 398.561 1154.47 398.248 1153.64 398.248C1152.72 398.248 1152 398.74 1151.48 399.724C1150.96 400.695 1150.7 402.19 1150.7 404.211ZM1153.64 410.174C1154.57 410.174 1155.3 409.689 1155.82 408.719C1156.34 407.735 1156.6 406.232 1156.6 404.211C1156.6 402.496 1156.43 401.167 1156.1 400.223L1151.66 409.137C1152.14 409.829 1152.8 410.174 1153.64 410.174Z" fill="url(#paint92_linear_175_188)"/>
<path d="M1153.64 419.964C1155.07 419.964 1156.15 420.569 1156.88 421.779C1157.63 422.976 1158 424.717 1158 427.004C1158 429.291 1157.63 431.039 1156.88 432.249C1156.15 433.459 1155.07 434.064 1153.64 434.064C1152.23 434.064 1151.15 433.459 1150.4 432.249C1149.65 431.039 1149.28 429.291 1149.28 427.004C1149.28 424.731 1149.65 422.989 1150.4 421.779C1151.15 420.569 1152.23 419.964 1153.64 419.964ZM1150.7 427.004C1150.7 428.626 1150.85 429.896 1151.14 430.813L1155.58 421.978C1155.11 421.353 1154.47 421.041 1153.64 421.041C1152.72 421.041 1152 421.533 1151.48 422.517C1150.96 423.487 1150.7 424.983 1150.7 427.004ZM1153.64 432.967C1154.57 432.967 1155.3 432.482 1155.82 431.511C1156.34 430.528 1156.6 429.025 1156.6 427.004C1156.6 425.289 1156.43 423.959 1156.1 423.015L1151.66 431.93C1152.14 432.622 1152.8 432.967 1153.64 432.967Z" fill="url(#paint93_linear_175_188)"/>
</g>
<defs>
<filter id="filter0_f_175_188" x="-380.19" y="-380.19" width="2141.38" height="1500.38" filterUnits="userSpaceOnUse" color-interpolation-filters="sRGB">
<feFlood flood-opacity="0" result="BackgroundImageFix"/>
<feBlend mode="normal" in="SourceGraphic" in2="BackgroundImageFix" result="shape"/>
<feGaussianBlur stdDeviation="200.095" result="effect1_foregroundBlur_175_188"/>
</filter>
<linearGradient id="paint0_linear_175_188" x1="230.5" y1="606" x2="230.5" y2="917.381" gradientUnits="userSpaceOnUse">
<stop stop-color="#F7DD43"/>
<stop offset="1" stop-color="#F7DD43" stop-opacity="0"/>
</linearGradient>
<linearGradient id="paint1_linear_175_188" x1="230.5" y1="606" x2="230.5" y2="917.381" gradientUnits="userSpaceOnUse">
<stop stop-color="#F7DD43"/>
<stop offset="1" stop-color="#F7DD43" stop-opacity="0"/>
</linearGradient>
<linearGradient id="paint2_linear_175_188" x1="230.5" y1="606" x2="230.5" y2="917.381" gradientUnits="userSpaceOnUse">
<stop stop-color="#F7DD43"/>
<stop offset="1" stop-color="#F7DD43" stop-opacity="0"/>
</linearGradient>
<linearGradient id="paint3_linear_175_188" x1="230.5" y1="606" x2="230.5" y2="917.381" gradientUnits="userSpaceOnUse">
<stop stop-color="#F7DD43"/>
<stop offset="1" stop-color="#F7DD43" stop-opacity="0"/>
</linearGradient>
<linearGradient id="paint4_linear_175_188" x1="230.5" y1="606" x2="230.5" y2="917.381" gradientUnits="userSpaceOnUse">
<stop stop-color="#F7DD43"/>
<stop offset="1" stop-color="#F7DD43" stop-opacity="0"/>
</linearGradient>
<linearGradient id="paint5_linear_175_188" x1="230.5" y1="606" x2="230.5" y2="917.381" gradientUnits="userSpaceOnUse">
<stop stop-color="#F7DD43"/>
<stop offset="1" stop-color="#F7DD43" stop-opacity="0"/>
</linearGradient>
<linearGradient id="paint6_linear_175_188" x1="230.5" y1="606" x2="230.5" y2="917.381" gradientUnits="userSpaceOnUse">
<stop stop-color="#F7DD43"/>
<stop offset="1" stop-color="#F7DD43" stop-opacity="0"/>
</linearGradient>
<linearGradient id="paint7_linear_175_188" x1="230.5" y1="606" x2="230.5" y2="917.381" gradientUnits="userSpaceOnUse">
<stop stop-color="#F7DD43"/>
<stop offset="1" stop-color="#F7DD43" stop-opacity="0"/>
</linearGradient>
<linearGradient id="paint8_linear_175_188" x1="230.5" y1="606" x2="230.5" y2="917.381" gradientUnits="userSpaceOnUse">
<stop stop-color="#F7DD43"/>
<stop offset="1" stop-color="#F7DD43" stop-opacity="0"/>
</linearGradient>
<linearGradient id="paint9_linear_175_188" x1="230.5" y1="606" x2="230.5" y2="917.381" gradientUnits="userSpaceOnUse">
<stop stop-color="#F7DD43"/>
<stop offset="1" stop-color="#F7DD43" stop-opacity="0"/>
</linearGradient>
<linearGradient id="paint10_linear_175_188" x1="230.5" y1="606" x2="230.5" y2="917.381" gradientUnits="userSpaceOnUse">
<stop stop-color="#F7DD43"/>
<stop offset="1" stop-color="#F7DD43" stop-opacity="0"/>
</linearGradient>
<linearGradient id="paint11_linear_175_188" x1="230.5" y1="606" x2="230.5" y2="917.381" gradientUnits="userSpaceOnUse">
<stop stop-color="#F7DD43"/>
<stop offset="1" stop-color="#F7DD43" stop-opacity="0"/>
</linearGradient>
<linearGradient id="paint12_linear_175_188" x1="230.5" y1="606" x2="230.5" y2="917.381" gradientUnits="userSpaceOnUse">
<stop stop-color="#F7DD43"/>
<stop offset="1" stop-color="#F7DD43" stop-opacity="0"/>
</linearGradient>
<linearGradient id="paint13_linear_175_188" x1="230.5" y1="606" x2="230.5" y2="917.381" gradientUnits="userSpaceOnUse">
<stop stop-color="#F7DD43"/>
<stop offset="1" stop-color="#F7DD43" stop-opacity="0"/>
</linearGradient>
<linearGradient id="paint14_linear_175_188" x1="230.5" y1="606" x2="230.5" y2="917.381" gradientUnits="userSpaceOnUse">
<stop stop-color="#F7DD43"/>
<stop offset="1" stop-color="#F7DD43" stop-opacity="0"/>
</linearGradient>
<linearGradient id="paint15_linear_175_188" x1="230.5" y1="606" x2="230.5" y2="917.381" gradientUnits="userSpaceOnUse">
<stop stop-color="#F7DD43"/>
<stop offset="1" stop-color="#F7DD43" stop-opacity="0"/>
</linearGradient>
<linearGradient id="paint16_linear_175_188" x1="230.5" y1="606" x2="230.5" y2="917.381" gradientUnits="userSpaceOnUse">
<stop stop-color="#F7DD43"/>
<stop offset="1" stop-color="#F7DD43" stop-opacity="0"/>
</linearGradient>
<linearGradient id="paint17_linear_175_188" x1="230.5" y1="606" x2="230.5" y2="917.381" gradientUnits="userSpaceOnUse">
<stop stop-color="#F7DD43"/>
<stop offset="1" stop-color="#F7DD43" stop-opacity="0"/>
</linearGradient>
<linearGradient id="paint18_linear_175_188" x1="230.5" y1="606" x2="230.5" y2="917.381" gradientUnits="userSpaceOnUse">
<stop stop-color="#F7DD43"/>
<stop offset="1" stop-color="#F7DD43" stop-opacity="0"/>
</linearGradient>
<linearGradient id="paint19_linear_175_188" x1="230.5" y1="606" x2="230.5" y2="917.381" gradientUnits="userSpaceOnUse">
<stop stop-color="#F7DD43"/>
<stop offset="1" stop-color="#F7DD43" stop-opacity="0"/>
</linearGradient>
<linearGradient id="paint20_linear_175_188" x1="230.5" y1="606" x2="230.5" y2="917.381" gradientUnits="userSpaceOnUse">
<stop stop-color="#F7DD43"/>
<stop offset="1" stop-color="#F7DD43" stop-opacity="0"/>
</linearGradient>
<linearGradient id="paint21_linear_175_188" x1="230.5" y1="606" x2="230.5" y2="917.381" gradientUnits="userSpaceOnUse">
<stop stop-color="#F7DD43"/>
<stop offset="1" stop-color="#F7DD43" stop-opacity="0"/>
</linearGradient>
<linearGradient id="paint22_linear_175_188" x1="230.5" y1="606" x2="230.5" y2="917.381" gradientUnits="userSpaceOnUse">
<stop stop-color="#F7DD43"/>
<stop offset="1" stop-color="#F7DD43" stop-opacity="0"/>
</linearGradient>
<linearGradient id="paint23_linear_175_188" x1="230.5" y1="606" x2="230.5" y2="917.381" gradientUnits="userSpaceOnUse">
<stop stop-color="#F7DD43"/>
<stop offset="1" stop-color="#F7DD43" stop-opacity="0"/>
</linearGradient>
<linearGradient id="paint24_linear_175_188" x1="230.5" y1="606" x2="230.5" y2="917.381" gradientUnits="userSpaceOnUse">
<stop stop-color="#F7DD43"/>
<stop offset="1" stop-color="#F7DD43" stop-opacity="0"/>
</linearGradient>
<linearGradient id="paint25_linear_175_188" x1="230.5" y1="606" x2="230.5" y2="917.381" gradientUnits="userSpaceOnUse">
<stop stop-color="#F7DD43"/>
<stop offset="1" stop-color="#F7DD43" stop-opacity="0"/>
</linearGradient>
<linearGradient id="paint26_linear_175_188" x1="230.5" y1="606" x2="230.5" y2="917.381" gradientUnits="userSpaceOnUse">
<stop stop-color="#F7DD43"/>
<stop offset="1" stop-color="#F7DD43" stop-opacity="0"/>
</linearGradient>
<linearGradient id="paint27_linear_175_188" x1="230.5" y1="606" x2="230.5" y2="917.381" gradientUnits="userSpaceOnUse">
<stop stop-color="#F7DD43"/>
<stop offset="1" stop-color="#F7DD43" stop-opacity="0"/>
</linearGradient>
<linearGradient id="paint28_linear_175_188" x1="230.5" y1="606" x2="230.5" y2="917.381" gradientUnits="userSpaceOnUse">
<stop stop-color="#F7DD43"/>
<stop offset="1" stop-color="#F7DD43" stop-opacity="0"/>
</linearGradient>
<linearGradient id="paint29_linear_175_188" x1="230.5" y1="606" x2="230.5" y2="917.381" gradientUnits="userSpaceOnUse">
<stop stop-color="#F7DD43"/>
<stop offset="1" stop-color="#F7DD43" stop-opacity="0"/>
</linearGradient>
<linearGradient id="paint30_linear_175_188" x1="230.5" y1="606" x2="230.5" y2="917.381" gradientUnits="userSpaceOnUse">
<stop stop-color="#F7DD43"/>
<stop offset="1" stop-color="#F7DD43" stop-opacity="0"/>
</linearGradient>
<linearGradient id="paint31_linear_175_188" x1="230.5" y1="606" x2="230.5" y2="917.381" gradientUnits="userSpaceOnUse">
<stop stop-color="#F7DD43"/>
<stop offset="1" stop-color="#F7DD43" stop-opacity="0"/>
</linearGradient>
<linearGradient id="paint32_linear_175_188" x1="230.5" y1="606" x2="230.5" y2="917.381" gradientUnits="userSpaceOnUse">
<stop stop-color="#F7DD43"/>
<stop offset="1" stop-color="#F7DD43" stop-opacity="0"/>
</linearGradient>
<linearGradient id="paint33_linear_175_188" x1="230.5" y1="606" x2="230.5" y2="917.381" gradientUnits="userSpaceOnUse">
<stop stop-color="#F7DD43"/>
<stop offset="1" stop-color="#F7DD43" stop-opacity="0"/>
</linearGradient>
<linearGradient id="paint34_linear_175_188" x1="230.5" y1="606" x2="230.5" y2="917.381" gradientUnits="userSpaceOnUse">
<stop stop-color="#F7DD43"/>
<stop offset="1" stop-color="#F7DD43" stop-opacity="0"/>
</linearGradient>
<linearGradient id="paint35_linear_175_188" x1="230.5" y1="606" x2="230.5" y2="917.381" gradientUnits="userSpaceOnUse">
<stop stop-color="#F7DD43"/>
<stop offset="1" stop-color="#F7DD43" stop-opacity="0"/>
</linearGradient>
<linearGradient id="paint36_linear_175_188" x1="230.5" y1="606" x2="230.5" y2="917.381" gradientUnits="userSpaceOnUse">
<stop stop-color="#F7DD43"/>
<stop offset="1" stop-color="#F7DD43" stop-opacity="0"/>
</linearGradient>
<linearGradient id="paint37_linear_175_188" x1="230.5" y1="606" x2="230.5" y2="917.381" gradientUnits="userSpaceOnUse">
<stop stop-color="#F7DD43"/>
<stop offset="1" stop-color="#F7DD43" stop-opacity="0"/>
</linearGradient>
<linearGradient id="paint38_linear_175_188" x1="230.5" y1="606" x2="230.5" y2="917.381" gradientUnits="userSpaceOnUse">
<stop stop-color="#F7DD43"/>
<stop offset="1" stop-color="#F7DD43" stop-opacity="0"/>
</linearGradient>
<linearGradient id="paint39_linear_175_188" x1="230.5" y1="606" x2="230.5" y2="917.381" gradientUnits="userSpaceOnUse">
<stop stop-color="#F7DD43"/>
<stop offset="1" stop-color="#F7DD43" stop-opacity="0"/>
</linearGradient>
<linearGradient id="paint40_linear_175_188" x1="230.5" y1="606" x2="230.5" y2="917.381" gradientUnits="userSpaceOnUse">
<stop stop-color="#F7DD43"/>
<stop offset="1" stop-color="#F7DD43" stop-opacity="0"/>
</linearGradient>
<linearGradient id="paint41_linear_175_188" x1="230.5" y1="606" x2="230.5" y2="917.381" gradientUnits="userSpaceOnUse">
<stop stop-color="#F7DD43"/>
<stop offset="1" stop-color="#F7DD43" stop-opacity="0"/>
</linearGradient>
<linearGradient id="paint42_linear_175_188" x1="230.5" y1="606" x2="230.5" y2="917.381" gradientUnits="userSpaceOnUse">
<stop stop-color="#F7DD43"/>
<stop offset="1" stop-color="#F7DD43" stop-opacity="0"/>
</linearGradient>
<linearGradient id="paint43_linear_175_188" x1="230.5" y1="606" x2="230.5" y2="917.381" gradientUnits="userSpaceOnUse">
<stop stop-color="#F7DD43"/>
<stop offset="1" stop-color="#F7DD43" stop-opacity="0"/>
</linearGradient>
<linearGradient id="paint44_linear_175_188" x1="230.5" y1="606" x2="230.5" y2="917.381" gradientUnits="userSpaceOnUse">
<stop stop-color="#F7DD43"/>
<stop offset="1" stop-color="#F7DD43" stop-opacity="0"/>
</linearGradient>
<linearGradient id="paint45_linear_175_188" x1="230.5" y1="606" x2="230.5" y2="917.381" gradientUnits="userSpaceOnUse">
<stop stop-color="#F7DD43"/>
<stop offset="1" stop-color="#F7DD43" stop-opacity="0"/>
</linearGradient>
<linearGradient id="paint46_linear_175_188" x1="230.5" y1="606" x2="230.5" y2="917.381" gradientUnits="userSpaceOnUse">
<stop stop-color="#F7DD43"/>
<stop offset="1" stop-color="#F7DD43" stop-opacity="0"/>
</linearGradient>
<linearGradient id="paint47_linear_175_188" x1="1116.5" y1="306" x2="1116.5" y2="604.818" gradientUnits="userSpaceOnUse">
<stop stop-color="#F7DD43"/>
<stop offset="1" stop-color="#F7DD43" stop-opacity="0"/>
</linearGradient>
<linearGradient id="paint48_linear_175_188" x1="1116.5" y1="306" x2="1116.5" y2="604.818" gradientUnits="userSpaceOnUse">
<stop stop-color="#F7DD43"/>
<stop offset="1" stop-color="#F7DD43" stop-opacity="0"/>
</linearGradient>
<linearGradient id="paint49_linear_175_188" x1="1116.5" y1="306" x2="1116.5" y2="604.818" gradientUnits="userSpaceOnUse">
<stop stop-color="#F7DD43"/>
<stop offset="1" stop-color="#F7DD43" stop-opacity="0"/>
</linearGradient>
<linearGradient id="paint50_linear_175_188" x1="1116.5" y1="306" x2="1116.5" y2="604.818" gradientUnits="userSpaceOnUse">
<stop stop-color="#F7DD43"/>
<stop offset="1" stop-color="#F7DD43" stop-opacity="0"/>
</linearGradient>
<linearGradient id="paint51_linear_175_188" x1="1116.5" y1="306" x2="1116.5" y2="604.818" gradientUnits="userSpaceOnUse">
<stop stop-color="#F7DD43"/>
<stop offset="1" stop-color="#F7DD43" stop-opacity="0"/>
</linearGradient>
<linearGradient id="paint52_linear_175_188" x1="1116.5" y1="306" x2="1116.5" y2="604.818" gradientUnits="userSpaceOnUse">
<stop stop-color="#F7DD43"/>
<stop offset="1" stop-color="#F7DD43" stop-opacity="0"/>
</linearGradient>
<linearGradient id="paint53_linear_175_188" x1="1116.5" y1="306" x2="1116.5" y2="604.818" gradientUnits="userSpaceOnUse">
<stop stop-color="#F7DD43"/>
<stop offset="1" stop-color="#F7DD43" stop-opacity="0"/>
</linearGradient>
<linearGradient id="paint54_linear_175_188" x1="1116.5" y1="306" x2="1116.5" y2="604.818" gradientUnits="userSpaceOnUse">
<stop stop-color="#F7DD43"/>
<stop offset="1" stop-color="#F7DD43" stop-opacity="0"/>
</linearGradient>
<linearGradient id="paint55_linear_175_188" x1="1116.5" y1="306" x2="1116.5" y2="604.818" gradientUnits="userSpaceOnUse">
<stop stop-color="#F7DD43"/>
<stop offset="1" stop-color="#F7DD43" stop-opacity="0"/>
</linearGradient>
<linearGradient id="paint56_linear_175_188" x1="1116.5" y1="306" x2="1116.5" y2="604.818" gradientUnits="userSpaceOnUse">
<stop stop-color="#F7DD43"/>
<stop offset="1" stop-color="#F7DD43" stop-opacity="0"/>
</linearGradient>
<linearGradient id="paint57_linear_175_188" x1="1116.5" y1="306" x2="1116.5" y2="604.818" gradientUnits="userSpaceOnUse">
<stop stop-color="#F7DD43"/>
<stop offset="1" stop-color="#F7DD43" stop-opacity="0"/>
</linearGradient>
<linearGradient id="paint58_linear_175_188" x1="1116.5" y1="306" x2="1116.5" y2="604.818" gradientUnits="userSpaceOnUse">
<stop stop-color="#F7DD43"/>
<stop offset="1" stop-color="#F7DD43" stop-opacity="0"/>
</linearGradient>
<linearGradient id="paint59_linear_175_188" x1="1116.5" y1="306" x2="1116.5" y2="604.818" gradientUnits="userSpaceOnUse">
<stop stop-color="#F7DD43"/>
<stop offset="1" stop-color="#F7DD43" stop-opacity="0"/>
</linearGradient>
<linearGradient id="paint60_linear_175_188" x1="1116.5" y1="306" x2="1116.5" y2="604.818" gradientUnits="userSpaceOnUse">
<stop stop-color="#F7DD43"/>
<stop offset="1" stop-color="#F7DD43" stop-opacity="0"/>
</linearGradient>
<linearGradient id="paint61_linear_175_188" x1="1116.5" y1="306" x2="1116.5" y2="604.818" gradientUnits="userSpaceOnUse">
<stop stop-color="#F7DD43"/>
<stop offset="1" stop-color="#F7DD43" stop-opacity="0"/>
</linearGradient>
<linearGradient id="paint62_linear_175_188" x1="1116.5" y1="306" x2="1116.5" y2="604.818" gradientUnits="userSpaceOnUse">
<stop stop-color="#F7DD43"/>
<stop offset="1" stop-color="#F7DD43" stop-opacity="0"/>
</linearGradient>
<linearGradient id="paint63_linear_175_188" x1="1116.5" y1="306" x2="1116.5" y2="604.818" gradientUnits="userSpaceOnUse">
<stop stop-color="#F7DD43"/>
<stop offset="1" stop-color="#F7DD43" stop-opacity="0"/>
</linearGradient>
<linearGradient id="paint64_linear_175_188" x1="1116.5" y1="306" x2="1116.5" y2="604.818" gradientUnits="userSpaceOnUse">
<stop stop-color="#F7DD43"/>
<stop offset="1" stop-color="#F7DD43" stop-opacity="0"/>
</linearGradient>
<linearGradient id="paint65_linear_175_188" x1="1116.5" y1="306" x2="1116.5" y2="604.818" gradientUnits="userSpaceOnUse">
<stop stop-color="#F7DD43"/>
<stop offset="1" stop-color="#F7DD43" stop-opacity="0"/>
</linearGradient>
<linearGradient id="paint66_linear_175_188" x1="1116.5" y1="306" x2="1116.5" y2="604.818" gradientUnits="userSpaceOnUse">
<stop stop-color="#F7DD43"/>
<stop offset="1" stop-color="#F7DD43" stop-opacity="0"/>
</linearGradient>
<linearGradient id="paint67_linear_175_188" x1="1116.5" y1="306" x2="1116.5" y2="604.818" gradientUnits="userSpaceOnUse">
<stop stop-color="#F7DD43"/>
<stop offset="1" stop-color="#F7DD43" stop-opacity="0"/>
</linearGradient>
<linearGradient id="paint68_linear_175_188" x1="1116.5" y1="306" x2="1116.5" y2="604.818" gradientUnits="userSpaceOnUse">
<stop stop-color="#F7DD43"/>
<stop offset="1" stop-color="#F7DD43" stop-opacity="0"/>
</linearGradient>
<linearGradient id="paint69_linear_175_188" x1="1116.5" y1="306" x2="1116.5" y2="604.818" gradientUnits="userSpaceOnUse">
<stop stop-color="#F7DD43"/>
<stop offset="1" stop-color="#F7DD43" stop-opacity="0"/>
</linearGradient>
<linearGradient id="paint70_linear_175_188" x1="1116.5" y1="306" x2="1116.5" y2="604.818" gradientUnits="userSpaceOnUse">
<stop stop-color="#F7DD43"/>
<stop offset="1" stop-color="#F7DD43" stop-opacity="0"/>
</linearGradient>
<linearGradient id="paint71_linear_175_188" x1="1116.5" y1="306" x2="1116.5" y2="604.818" gradientUnits="userSpaceOnUse">
<stop stop-color="#F7DD43"/>
<stop offset="1" stop-color="#F7DD43" stop-opacity="0"/>
</linearGradient>
<linearGradient id="paint72_linear_175_188" x1="1116.5" y1="306" x2="1116.5" y2="604.818" gradientUnits="userSpaceOnUse">
<stop stop-color="#F7DD43"/>
<stop offset="1" stop-color="#F7DD43" stop-opacity="0"/>
</linearGradient>
<linearGradient id="paint73_linear_175_188" x1="1116.5" y1="306" x2="1116.5" y2="604.818" gradientUnits="userSpaceOnUse">
<stop stop-color="#F7DD43"/>
<stop offset="1" stop-color="#F7DD43" stop-opacity="0"/>
</linearGradient>
<linearGradient id="paint74_linear_175_188" x1="1116.5" y1="306" x2="1116.5" y2="604.818" gradientUnits="userSpaceOnUse">
<stop stop-color="#F7DD43"/>
<stop offset="1" stop-color="#F7DD43" stop-opacity="0"/>
</linearGradient>
<linearGradient id="paint75_linear_175_188" x1="1116.5" y1="306" x2="1116.5" y2="604.818" gradientUnits="userSpaceOnUse">
<stop stop-color="#F7DD43"/>
<stop offset="1" stop-color="#F7DD43" stop-opacity="0"/>
</linearGradient>
<linearGradient id="paint76_linear_175_188" x1="1116.5" y1="306" x2="1116.5" y2="604.818" gradientUnits="userSpaceOnUse">
<stop stop-color="#F7DD43"/>
<stop offset="1" stop-color="#F7DD43" stop-opacity="0"/>
</linearGradient>
<linearGradient id="paint77_linear_175_188" x1="1116.5" y1="306" x2="1116.5" y2="604.818" gradientUnits="userSpaceOnUse">
<stop stop-color="#F7DD43"/>
<stop offset="1" stop-color="#F7DD43" stop-opacity="0"/>
</linearGradient>
<linearGradient id="paint78_linear_175_188" x1="1116.5" y1="306" x2="1116.5" y2="604.818" gradientUnits="userSpaceOnUse">
<stop stop-color="#F7DD43"/>
<stop offset="1" stop-color="#F7DD43" stop-opacity="0"/>
</linearGradient>
<linearGradient id="paint79_linear_175_188" x1="1116.5" y1="306" x2="1116.5" y2="604.818" gradientUnits="userSpaceOnUse">
<stop stop-color="#F7DD43"/>
<stop offset="1" stop-color="#F7DD43" stop-opacity="0"/>
</linearGradient>
<linearGradient id="paint80_linear_175_188" x1="1116.5" y1="306" x2="1116.5" y2="604.818" gradientUnits="userSpaceOnUse">
<stop stop-color="#F7DD43"/>
<stop offset="1" stop-color="#F7DD43" stop-opacity="0"/>
</linearGradient>
<linearGradient id="paint81_linear_175_188" x1="1116.5" y1="306" x2="1116.5" y2="604.818" gradientUnits="userSpaceOnUse">
<stop stop-color="#F7DD43"/>
<stop offset="1" stop-color="#F7DD43" stop-opacity="0"/>
</linearGradient>
<linearGradient id="paint82_linear_175_188" x1="1116.5" y1="306" x2="1116.5" y2="604.818" gradientUnits="userSpaceOnUse">
<stop stop-color="#F7DD43"/>
<stop offset="1" stop-color="#F7DD43" stop-opacity="0"/>
</linearGradient>
<linearGradient id="paint83_linear_175_188" x1="1116.5" y1="306" x2="1116.5" y2="604.818" gradientUnits="userSpaceOnUse">
<stop stop-color="#F7DD43"/>
<stop offset="1" stop-color="#F7DD43" stop-opacity="0"/>
</linearGradient>
<linearGradient id="paint84_linear_175_188" x1="1116.5" y1="306" x2="1116.5" y2="604.818" gradientUnits="userSpaceOnUse">
<stop stop-color="#F7DD43"/>
<stop offset="1" stop-color="#F7DD43" stop-opacity="0"/>
</linearGradient>
<linearGradient id="paint85_linear_175_188" x1="1116.5" y1="306" x2="1116.5" y2="604.818" gradientUnits="userSpaceOnUse">
<stop stop-color="#F7DD43"/>
<stop offset="1" stop-color="#F7DD43" stop-opacity="0"/>
</linearGradient>
<linearGradient id="paint86_linear_175_188" x1="1116.5" y1="306" x2="1116.5" y2="604.818" gradientUnits="userSpaceOnUse">
<stop stop-color="#F7DD43"/>
<stop offset="1" stop-color="#F7DD43" stop-opacity="0"/>
</linearGradient>
<linearGradient id="paint87_linear_175_188" x1="1116.5" y1="306" x2="1116.5" y2="604.818" gradientUnits="userSpaceOnUse">
<stop stop-color="#F7DD43"/>
<stop offset="1" stop-color="#F7DD43" stop-opacity="0"/>
</linearGradient>
<linearGradient id="paint88_linear_175_188" x1="1116.5" y1="306" x2="1116.5" y2="604.818" gradientUnits="userSpaceOnUse">
<stop stop-color="#F7DD43"/>
<stop offset="1" stop-color="#F7DD43" stop-opacity="0"/>
</linearGradient>
<linearGradient id="paint89_linear_175_188" x1="1116.5" y1="306" x2="1116.5" y2="604.818" gradientUnits="userSpaceOnUse">
<stop stop-color="#F7DD43"/>
<stop offset="1" stop-color="#F7DD43" stop-opacity="0"/>
</linearGradient>
<linearGradient id="paint90_linear_175_188" x1="1116.5" y1="306" x2="1116.5" y2="604.818" gradientUnits="userSpaceOnUse">
<stop stop-color="#F7DD43"/>
<stop offset="1" stop-color="#F7DD43" stop-opacity="0"/>
</linearGradient>
<linearGradient id="paint91_linear_175_188" x1="1116.5" y1="306" x2="1116.5" y2="604.818" gradientUnits="userSpaceOnUse">
<stop stop-color="#F7DD43"/>
<stop offset="1" stop-color="#F7DD43" stop-opacity="0"/>
</linearGradient>
<linearGradient id="paint92_linear_175_188" x1="1116.5" y1="306" x2="1116.5" y2="604.818" gradientUnits="userSpaceOnUse">
<stop stop-color="#F7DD43"/>
<stop offset="1" stop-color="#F7DD43" stop-opacity="0"/>
</linearGradient>
<linearGradient id="paint93_linear_175_188" x1="1116.5" y1="306" x2="1116.5" y2="604.818" gradientUnits="userSpaceOnUse">
<stop stop-color="#F7DD43"/>
<stop offset="1" stop-color="#F7DD43" stop-opacity="0"/>
</linearGradient>
</defs>
</svg>
