<svg width="1361" height="1502" viewBox="0 0 1361 1502" fill="none" xmlns="http://www.w3.org/2000/svg">
<g opacity="0.2" filter="url(#filter0_f_175_194)">
<ellipse cx="690.5" cy="751" rx="670.5" ry="350" fill="#B3A659"/>
</g>
<path d="M211.035 987C212.53 987 213.662 987.63 214.431 988.891C215.213 990.138 215.605 991.953 215.605 994.336C215.605 996.719 215.213 998.541 214.431 999.802C213.662 1001.06 212.53 1001.69 211.035 1001.69C209.554 1001.69 208.422 1001.06 207.639 999.802C206.856 998.541 206.465 996.719 206.465 994.336C206.465 991.967 206.856 990.152 207.639 988.891C208.422 987.63 209.554 987 211.035 987ZM207.953 994.336C207.953 996.026 208.107 997.35 208.415 998.306L213.068 989.099C212.579 988.448 211.901 988.122 211.035 988.122C210.071 988.122 209.316 988.635 208.771 989.66C208.226 990.672 207.953 992.23 207.953 994.336ZM211.035 1000.55C212.013 1000.55 212.775 1000.04 213.32 999.033C213.865 998.008 214.137 996.442 214.137 994.336C214.137 992.549 213.963 991.163 213.613 990.18L208.96 999.469C209.463 1000.19 210.154 1000.55 211.035 1000.55Z" fill="url(#paint0_linear_175_194)" fill-opacity="0.6"/>
<path d="M212.293 1024.13H215.374V1025.24H207.387V1024.13H210.951V1012.46L207.555 1014.47L206.968 1013.54L211.161 1010.96H212.293V1024.13Z" fill="url(#paint1_linear_175_194)" fill-opacity="0.6"/>
<path d="M211.035 1034.5C212.53 1034.5 213.662 1035.13 214.431 1036.39C215.213 1037.64 215.605 1039.46 215.605 1041.84C215.605 1044.22 215.213 1046.04 214.431 1047.3C213.662 1048.56 212.53 1049.2 211.035 1049.2C209.554 1049.2 208.422 1048.56 207.639 1047.3C206.856 1046.04 206.465 1044.22 206.465 1041.84C206.465 1039.47 206.856 1037.65 207.639 1036.39C208.422 1035.13 209.554 1034.5 211.035 1034.5ZM207.953 1041.84C207.953 1043.53 208.107 1044.85 208.415 1045.81L213.068 1036.6C212.579 1035.95 211.901 1035.62 211.035 1035.62C210.071 1035.62 209.316 1036.14 208.771 1037.16C208.226 1038.17 207.953 1039.73 207.953 1041.84ZM211.035 1048.05C212.013 1048.05 212.775 1047.55 213.32 1046.53C213.865 1045.51 214.137 1043.94 214.137 1041.84C214.137 1040.05 213.963 1038.67 213.613 1037.68L208.96 1046.97C209.463 1047.69 210.154 1048.05 211.035 1048.05Z" fill="url(#paint2_linear_175_194)" fill-opacity="0.6"/>
<path d="M212.293 1071.64H215.374V1072.74H207.387V1071.64H210.951V1059.96L207.555 1061.97L206.968 1061.04L211.161 1058.46H212.293V1071.64Z" fill="url(#paint3_linear_175_194)" fill-opacity="0.6"/>
<path d="M212.293 1095.39H215.374V1096.49H207.387V1095.39H210.951V1083.71L207.555 1085.72L206.968 1084.79L211.161 1082.21H212.293V1095.39Z" fill="url(#paint4_linear_175_194)" fill-opacity="0.6"/>
<path d="M211.035 1105.76C212.53 1105.76 213.662 1106.39 214.431 1107.65C215.213 1108.89 215.605 1110.71 215.605 1113.09C215.605 1115.47 215.213 1117.3 214.431 1118.56C213.662 1119.82 212.53 1120.45 211.035 1120.45C209.554 1120.45 208.422 1119.82 207.639 1118.56C206.856 1117.3 206.465 1115.47 206.465 1113.09C206.465 1110.72 206.856 1108.91 207.639 1107.65C208.422 1106.39 209.554 1105.76 211.035 1105.76ZM207.953 1113.09C207.953 1114.78 208.107 1116.1 208.415 1117.06L213.068 1107.85C212.579 1107.2 211.901 1106.88 211.035 1106.88C210.071 1106.88 209.316 1107.39 208.771 1108.42C208.226 1109.43 207.953 1110.99 207.953 1113.09ZM211.035 1119.31C212.013 1119.31 212.775 1118.8 213.32 1117.79C213.865 1116.76 214.137 1115.2 214.137 1113.09C214.137 1111.3 213.963 1109.92 213.613 1108.93L208.96 1118.22C209.463 1118.95 210.154 1119.31 211.035 1119.31Z" fill="url(#paint5_linear_175_194)" fill-opacity="0.6"/>
<path d="M212.293 1142.89H215.374V1143.99H207.387V1142.89H210.951V1131.21L207.555 1133.23L206.968 1132.29L211.161 1129.71H212.293V1142.89Z" fill="url(#paint6_linear_175_194)" fill-opacity="0.6"/>
<path d="M211.035 1153.26C212.53 1153.26 213.662 1153.89 214.431 1155.15C215.213 1156.4 215.605 1158.21 215.605 1160.59C215.605 1162.98 215.213 1164.8 214.431 1166.06C213.662 1167.32 212.53 1167.95 211.035 1167.95C209.554 1167.95 208.422 1167.32 207.639 1166.06C206.856 1164.8 206.465 1162.98 206.465 1160.59C206.465 1158.22 206.856 1156.41 207.639 1155.15C208.422 1153.89 209.554 1153.26 211.035 1153.26ZM207.953 1160.59C207.953 1162.28 208.107 1163.61 208.415 1164.56L213.068 1155.36C212.579 1154.71 211.901 1154.38 211.035 1154.38C210.071 1154.38 209.316 1154.89 208.771 1155.92C208.226 1156.93 207.953 1158.49 207.953 1160.59ZM211.035 1166.81C212.013 1166.81 212.775 1166.3 213.32 1165.29C213.865 1164.27 214.137 1162.7 214.137 1160.59C214.137 1158.81 213.963 1157.42 213.613 1156.44L208.96 1165.73C209.463 1166.45 210.154 1166.81 211.035 1166.81Z" fill="url(#paint7_linear_175_194)" fill-opacity="0.6"/>
<path d="M211.035 1177.01C212.53 1177.01 213.662 1177.64 214.431 1178.9C215.213 1180.15 215.605 1181.96 215.605 1184.34C215.605 1186.73 215.213 1188.55 214.431 1189.81C213.662 1191.07 212.53 1191.7 211.035 1191.7C209.554 1191.7 208.422 1191.07 207.639 1189.81C206.856 1188.55 206.465 1186.73 206.465 1184.34C206.465 1181.98 206.856 1180.16 207.639 1178.9C208.422 1177.64 209.554 1177.01 211.035 1177.01ZM207.953 1184.34C207.953 1186.03 208.107 1187.36 208.415 1188.31L213.068 1179.11C212.579 1178.46 211.901 1178.13 211.035 1178.13C210.071 1178.13 209.316 1178.64 208.771 1179.67C208.226 1180.68 207.953 1182.24 207.953 1184.34ZM211.035 1190.56C212.013 1190.56 212.775 1190.05 213.32 1189.04C213.865 1188.02 214.137 1186.45 214.137 1184.34C214.137 1182.56 213.963 1181.17 213.613 1180.19L208.96 1189.48C209.463 1190.2 210.154 1190.56 211.035 1190.56Z" fill="url(#paint8_linear_175_194)" fill-opacity="0.6"/>
<path d="M212.293 1214.14H215.374V1215.24H207.387V1214.14H210.951V1202.46L207.555 1204.48L206.968 1203.54L211.161 1200.97H212.293V1214.14Z" fill="url(#paint9_linear_175_194)" fill-opacity="0.6"/>
<path d="M211.035 1224.51C212.53 1224.51 213.662 1225.14 214.431 1226.4C215.213 1227.65 215.605 1229.46 215.605 1231.85C215.605 1234.23 215.213 1236.05 214.431 1237.31C213.662 1238.57 212.53 1239.2 211.035 1239.2C209.554 1239.2 208.422 1238.57 207.639 1237.31C206.856 1236.05 206.465 1234.23 206.465 1231.85C206.465 1229.48 206.856 1227.66 207.639 1226.4C208.422 1225.14 209.554 1224.51 211.035 1224.51ZM207.953 1231.85C207.953 1233.54 208.107 1234.86 208.415 1235.82L213.068 1226.61C212.579 1225.96 211.901 1225.63 211.035 1225.63C210.071 1225.63 209.316 1226.15 208.771 1227.17C208.226 1228.18 207.953 1229.74 207.953 1231.85ZM211.035 1238.06C212.013 1238.06 212.775 1237.55 213.32 1236.54C213.865 1235.52 214.137 1233.95 214.137 1231.85C214.137 1230.06 213.963 1228.67 213.613 1227.69L208.96 1236.98C209.463 1237.7 210.154 1238.06 211.035 1238.06Z" fill="url(#paint10_linear_175_194)" fill-opacity="0.6"/>
<path d="M212.293 1261.65H215.374V1262.75H207.387V1261.65H210.951V1249.97L207.555 1251.98L206.968 1251.05L211.161 1248.47H212.293V1261.65Z" fill="url(#paint11_linear_175_194)" fill-opacity="0.6"/>
<path d="M212.293 1285.4H215.374V1286.5H207.387V1285.4H210.951V1273.72L207.555 1275.73L206.968 1274.8L211.161 1272.22H212.293V1285.4Z" fill="url(#paint12_linear_175_194)" fill-opacity="0.6"/>
<path d="M249.965 1034.5C251.46 1034.5 252.592 1035.13 253.361 1036.39C254.144 1037.64 254.535 1039.46 254.535 1041.84C254.535 1044.22 254.144 1046.04 253.361 1047.3C252.592 1048.56 251.46 1049.2 249.965 1049.2C248.484 1049.2 247.352 1048.56 246.569 1047.3C245.787 1046.04 245.395 1044.22 245.395 1041.84C245.395 1039.47 245.787 1037.65 246.569 1036.39C247.352 1035.13 248.484 1034.5 249.965 1034.5ZM246.884 1041.84C246.884 1043.53 247.037 1044.85 247.345 1045.81L251.998 1036.6C251.509 1035.95 250.832 1035.62 249.965 1035.62C249.001 1035.62 248.246 1036.14 247.701 1037.16C247.156 1038.17 246.884 1039.73 246.884 1041.84ZM249.965 1048.05C250.943 1048.05 251.705 1047.55 252.25 1046.53C252.795 1045.51 253.068 1043.94 253.068 1041.84C253.068 1040.05 252.893 1038.67 252.543 1037.68L247.89 1046.97C248.393 1047.69 249.085 1048.05 249.965 1048.05Z" fill="url(#paint13_linear_175_194)" fill-opacity="0.6"/>
<path d="M251.223 1071.64H254.304V1072.74H246.318V1071.64H249.881V1059.96L246.485 1061.97L245.898 1061.04L250.091 1058.46H251.223V1071.64Z" fill="url(#paint14_linear_175_194)" fill-opacity="0.6"/>
<path d="M249.965 1082C251.46 1082 252.592 1082.63 253.361 1083.9C254.144 1085.14 254.535 1086.96 254.535 1089.34C254.535 1091.72 254.144 1093.55 253.361 1094.81C252.592 1096.07 251.46 1096.7 249.965 1096.7C248.484 1096.7 247.352 1096.07 246.569 1094.81C245.787 1093.55 245.395 1091.72 245.395 1089.34C245.395 1086.97 245.787 1085.16 246.569 1083.9C247.352 1082.63 248.484 1082 249.965 1082ZM246.884 1089.34C246.884 1091.03 247.037 1092.35 247.345 1093.31L251.998 1084.1C251.509 1083.45 250.832 1083.13 249.965 1083.13C249.001 1083.13 248.246 1083.64 247.701 1084.66C247.156 1085.68 246.884 1087.23 246.884 1089.34ZM249.965 1095.55C250.943 1095.55 251.705 1095.05 252.25 1094.04C252.795 1093.01 253.068 1091.45 253.068 1089.34C253.068 1087.55 252.893 1086.17 252.543 1085.18L247.89 1094.47C248.393 1095.19 249.085 1095.55 249.965 1095.55Z" fill="url(#paint15_linear_175_194)" fill-opacity="0.6"/>
<path d="M249.965 1105.76C251.46 1105.76 252.592 1106.39 253.361 1107.65C254.144 1108.89 254.535 1110.71 254.535 1113.09C254.535 1115.47 254.144 1117.3 253.361 1118.56C252.592 1119.82 251.46 1120.45 249.965 1120.45C248.484 1120.45 247.352 1119.82 246.569 1118.56C245.787 1117.3 245.395 1115.47 245.395 1113.09C245.395 1110.72 245.787 1108.91 246.569 1107.65C247.352 1106.39 248.484 1105.76 249.965 1105.76ZM246.884 1113.09C246.884 1114.78 247.037 1116.1 247.345 1117.06L251.998 1107.85C251.509 1107.2 250.832 1106.88 249.965 1106.88C249.001 1106.88 248.246 1107.39 247.701 1108.42C247.156 1109.43 246.884 1110.99 246.884 1113.09ZM249.965 1119.31C250.943 1119.31 251.705 1118.8 252.25 1117.79C252.795 1116.76 253.068 1115.2 253.068 1113.09C253.068 1111.3 252.893 1109.92 252.543 1108.93L247.89 1118.22C248.393 1118.95 249.085 1119.31 249.965 1119.31Z" fill="url(#paint16_linear_175_194)" fill-opacity="0.6"/>
<path d="M251.223 1142.89H254.304V1143.99H246.318V1142.89H249.881V1131.21L246.485 1133.23L245.898 1132.29L250.091 1129.71H251.223V1142.89Z" fill="url(#paint17_linear_175_194)" fill-opacity="0.6"/>
<path d="M249.965 1153.26C251.46 1153.26 252.592 1153.89 253.361 1155.15C254.144 1156.4 254.535 1158.21 254.535 1160.59C254.535 1162.98 254.144 1164.8 253.361 1166.06C252.592 1167.32 251.46 1167.95 249.965 1167.95C248.484 1167.95 247.352 1167.32 246.569 1166.06C245.787 1164.8 245.395 1162.98 245.395 1160.59C245.395 1158.22 245.787 1156.41 246.569 1155.15C247.352 1153.89 248.484 1153.26 249.965 1153.26ZM246.884 1160.59C246.884 1162.28 247.037 1163.61 247.345 1164.56L251.998 1155.36C251.509 1154.71 250.832 1154.38 249.965 1154.38C249.001 1154.38 248.246 1154.89 247.701 1155.92C247.156 1156.93 246.884 1158.49 246.884 1160.59ZM249.965 1166.81C250.943 1166.81 251.705 1166.3 252.25 1165.29C252.795 1164.27 253.068 1162.7 253.068 1160.59C253.068 1158.81 252.893 1157.42 252.543 1156.44L247.89 1165.73C248.393 1166.45 249.085 1166.81 249.965 1166.81Z" fill="url(#paint18_linear_175_194)" fill-opacity="0.6"/>
<path d="M251.223 1190.39H254.304V1191.49H246.318V1190.39H249.881V1178.71L246.485 1180.73L245.898 1179.79L250.091 1177.22H251.223V1190.39Z" fill="url(#paint19_linear_175_194)" fill-opacity="0.6"/>
<path d="M249.965 1200.76C251.46 1200.76 252.592 1201.39 253.361 1202.65C254.144 1203.9 254.535 1205.71 254.535 1208.1C254.535 1210.48 254.144 1212.3 253.361 1213.56C252.592 1214.82 251.46 1215.45 249.965 1215.45C248.484 1215.45 247.352 1214.82 246.569 1213.56C245.787 1212.3 245.395 1210.48 245.395 1208.1C245.395 1205.73 245.787 1203.91 246.569 1202.65C247.352 1201.39 248.484 1200.76 249.965 1200.76ZM246.884 1208.1C246.884 1209.79 247.037 1211.11 247.345 1212.07L251.998 1202.86C251.509 1202.21 250.832 1201.88 249.965 1201.88C249.001 1201.88 248.246 1202.39 247.701 1203.42C247.156 1204.43 246.884 1205.99 246.884 1208.1ZM249.965 1214.31C250.943 1214.31 251.705 1213.8 252.25 1212.79C252.795 1211.77 253.068 1210.2 253.068 1208.1C253.068 1206.31 252.893 1204.92 252.543 1203.94L247.89 1213.23C248.393 1213.95 249.085 1214.31 249.965 1214.31Z" fill="url(#paint20_linear_175_194)" fill-opacity="0.6"/>
<path d="M249.965 1224.51C251.46 1224.51 252.592 1225.14 253.361 1226.4C254.144 1227.65 254.535 1229.46 254.535 1231.85C254.535 1234.23 254.144 1236.05 253.361 1237.31C252.592 1238.57 251.46 1239.2 249.965 1239.2C248.484 1239.2 247.352 1238.57 246.569 1237.31C245.787 1236.05 245.395 1234.23 245.395 1231.85C245.395 1229.48 245.787 1227.66 246.569 1226.4C247.352 1225.14 248.484 1224.51 249.965 1224.51ZM246.884 1231.85C246.884 1233.54 247.037 1234.86 247.345 1235.82L251.998 1226.61C251.509 1225.96 250.832 1225.63 249.965 1225.63C249.001 1225.63 248.246 1226.15 247.701 1227.17C247.156 1228.18 246.884 1229.74 246.884 1231.85ZM249.965 1238.06C250.943 1238.06 251.705 1237.55 252.25 1236.54C252.795 1235.52 253.068 1233.95 253.068 1231.85C253.068 1230.06 252.893 1228.67 252.543 1227.69L247.89 1236.98C248.393 1237.7 249.085 1238.06 249.965 1238.06Z" fill="url(#paint21_linear_175_194)" fill-opacity="0.6"/>
<path d="M251.223 1261.65H254.304V1262.75H246.318V1261.65H249.881V1249.97L246.485 1251.98L245.898 1251.05L250.091 1248.47H251.223V1261.65Z" fill="url(#paint22_linear_175_194)" fill-opacity="0.6"/>
<path d="M249.965 1272.01C251.46 1272.01 252.592 1272.64 253.361 1273.9C254.144 1275.15 254.535 1276.97 254.535 1279.35C254.535 1281.73 254.144 1283.55 253.361 1284.81C252.592 1286.08 251.46 1286.71 249.965 1286.71C248.484 1286.71 247.352 1286.08 246.569 1284.81C245.787 1283.55 245.395 1281.73 245.395 1279.35C245.395 1276.98 245.787 1275.16 246.569 1273.9C247.352 1272.64 248.484 1272.01 249.965 1272.01ZM246.884 1279.35C246.884 1281.04 247.037 1282.36 247.345 1283.32L251.998 1274.11C251.509 1273.46 250.832 1273.13 249.965 1273.13C249.001 1273.13 248.246 1273.65 247.701 1274.67C247.156 1275.68 246.884 1277.24 246.884 1279.35ZM249.965 1285.56C250.943 1285.56 251.705 1285.06 252.25 1284.05C252.795 1283.02 253.068 1281.45 253.068 1279.35C253.068 1277.56 252.893 1276.18 252.543 1275.19L247.89 1284.48C248.393 1285.2 249.085 1285.56 249.965 1285.56Z" fill="url(#paint23_linear_175_194)" fill-opacity="0.6"/>
<path d="M251.223 1309.15H254.304V1310.25H246.318V1309.15H249.881V1297.47L246.485 1299.48L245.898 1298.55L250.091 1295.97H251.223V1309.15Z" fill="url(#paint24_linear_175_194)" fill-opacity="0.6"/>
<path d="M251.223 1332.9H254.304V1334H246.318V1332.9H249.881V1321.22L246.485 1323.23L245.898 1322.3L250.091 1319.72H251.223V1332.9Z" fill="url(#paint25_linear_175_194)" fill-opacity="0.6"/>
<path d="M191.57 1058.25C193.065 1058.25 194.197 1058.88 194.966 1060.14C195.748 1061.39 196.14 1063.21 196.14 1065.59C196.14 1067.97 195.748 1069.79 194.966 1071.05C194.197 1072.32 193.065 1072.95 191.57 1072.95C190.088 1072.95 188.956 1072.32 188.174 1071.05C187.391 1069.79 187 1067.97 187 1065.59C187 1063.22 187.391 1061.41 188.174 1060.14C188.956 1058.88 190.088 1058.25 191.57 1058.25ZM188.488 1065.59C188.488 1067.28 188.642 1068.6 188.95 1069.56L193.603 1060.35C193.114 1059.7 192.436 1059.38 191.57 1059.38C190.606 1059.38 189.851 1059.89 189.306 1060.91C188.761 1061.92 188.488 1063.48 188.488 1065.59ZM191.57 1071.8C192.548 1071.8 193.31 1071.3 193.855 1070.29C194.4 1069.26 194.672 1067.7 194.672 1065.59C194.672 1063.8 194.498 1062.42 194.148 1061.43L189.495 1070.72C189.998 1071.44 190.689 1071.8 191.57 1071.8Z" fill="url(#paint26_linear_175_194)" fill-opacity="0.6"/>
<path d="M191.57 1082C193.065 1082 194.197 1082.63 194.966 1083.9C195.748 1085.14 196.14 1086.96 196.14 1089.34C196.14 1091.72 195.748 1093.55 194.966 1094.81C194.197 1096.07 193.065 1096.7 191.57 1096.7C190.088 1096.7 188.956 1096.07 188.174 1094.81C187.391 1093.55 187 1091.72 187 1089.34C187 1086.97 187.391 1085.16 188.174 1083.9C188.956 1082.63 190.088 1082 191.57 1082ZM188.488 1089.34C188.488 1091.03 188.642 1092.35 188.95 1093.31L193.603 1084.1C193.114 1083.45 192.436 1083.13 191.57 1083.13C190.606 1083.13 189.851 1083.64 189.306 1084.66C188.761 1085.68 188.488 1087.23 188.488 1089.34ZM191.57 1095.55C192.548 1095.55 193.31 1095.05 193.855 1094.04C194.4 1093.01 194.672 1091.45 194.672 1089.34C194.672 1087.55 194.498 1086.17 194.148 1085.18L189.495 1094.47C189.998 1095.19 190.689 1095.55 191.57 1095.55Z" fill="url(#paint27_linear_175_194)" fill-opacity="0.6"/>
<path d="M192.828 1119.14H195.909V1120.24H187.922V1119.14H191.486V1107.46L188.09 1109.48L187.503 1108.54L191.696 1105.96H192.828V1119.14Z" fill="url(#paint28_linear_175_194)" fill-opacity="0.6"/>
<path d="M191.57 1129.51C193.065 1129.51 194.197 1130.14 194.966 1131.4C195.748 1132.64 196.14 1134.46 196.14 1136.84C196.14 1139.23 195.748 1141.05 194.966 1142.31C194.197 1143.57 193.065 1144.2 191.57 1144.2C190.088 1144.2 188.956 1143.57 188.174 1142.31C187.391 1141.05 187 1139.23 187 1136.84C187 1134.47 187.391 1132.66 188.174 1131.4C188.956 1130.14 190.088 1129.51 191.57 1129.51ZM188.488 1136.84C188.488 1138.53 188.642 1139.86 188.95 1140.81L193.603 1131.61C193.114 1130.95 192.436 1130.63 191.57 1130.63C190.606 1130.63 189.851 1131.14 189.306 1132.17C188.761 1133.18 188.488 1134.74 188.488 1136.84ZM191.57 1143.06C192.548 1143.06 193.31 1142.55 193.855 1141.54C194.4 1140.51 194.672 1138.95 194.672 1136.84C194.672 1135.06 194.498 1133.67 194.148 1132.69L189.495 1141.98C189.998 1142.7 190.689 1143.06 191.57 1143.06Z" fill="url(#paint29_linear_175_194)" fill-opacity="0.6"/>
<path d="M192.828 1166.64H195.909V1167.74H187.922V1166.64H191.486V1154.96L188.09 1156.98L187.503 1156.04L191.696 1153.47H192.828V1166.64Z" fill="url(#paint30_linear_175_194)" fill-opacity="0.6"/>
<path d="M192.828 1190.39H195.909V1191.49H187.922V1190.39H191.486V1178.71L188.09 1180.73L187.503 1179.79L191.696 1177.22H192.828V1190.39Z" fill="url(#paint31_linear_175_194)" fill-opacity="0.6"/>
<path d="M231.758 1024.13H234.839V1025.24H226.853V1024.13H230.416V1012.46L227.02 1014.47L226.433 1013.54L230.626 1010.96H231.758V1024.13Z" fill="url(#paint32_linear_175_194)" fill-opacity="0.6"/>
<path d="M230.5 1034.5C231.995 1034.5 233.127 1035.13 233.896 1036.39C234.679 1037.64 235.07 1039.46 235.07 1041.84C235.07 1044.22 234.679 1046.04 233.896 1047.3C233.127 1048.56 231.995 1049.2 230.5 1049.2C229.019 1049.2 227.887 1048.56 227.104 1047.3C226.321 1046.04 225.93 1044.22 225.93 1041.84C225.93 1039.47 226.321 1037.65 227.104 1036.39C227.887 1035.13 229.019 1034.5 230.5 1034.5ZM227.419 1041.84C227.419 1043.53 227.572 1044.85 227.88 1045.81L232.533 1036.6C232.044 1035.95 231.366 1035.62 230.5 1035.62C229.536 1035.62 228.781 1036.14 228.236 1037.16C227.691 1038.17 227.419 1039.73 227.419 1041.84ZM230.5 1048.05C231.478 1048.05 232.24 1047.55 232.785 1046.53C233.33 1045.51 233.602 1043.94 233.602 1041.84C233.602 1040.05 233.428 1038.67 233.078 1037.68L228.425 1046.97C228.928 1047.69 229.62 1048.05 230.5 1048.05Z" fill="url(#paint33_linear_175_194)" fill-opacity="0.6"/>
<path d="M231.758 1071.64H234.839V1072.74H226.853V1071.64H230.416V1059.96L227.02 1061.97L226.433 1061.04L230.626 1058.46H231.758V1071.64Z" fill="url(#paint34_linear_175_194)" fill-opacity="0.6"/>
<path d="M231.758 1095.39H234.839V1096.49H226.853V1095.39H230.416V1083.71L227.02 1085.72L226.433 1084.79L230.626 1082.21H231.758V1095.39Z" fill="url(#paint35_linear_175_194)" fill-opacity="0.6"/>
<path d="M230.5 1105.76C231.995 1105.76 233.127 1106.39 233.896 1107.65C234.679 1108.89 235.07 1110.71 235.07 1113.09C235.07 1115.47 234.679 1117.3 233.896 1118.56C233.127 1119.82 231.995 1120.45 230.5 1120.45C229.019 1120.45 227.887 1119.82 227.104 1118.56C226.321 1117.3 225.93 1115.47 225.93 1113.09C225.93 1110.72 226.321 1108.91 227.104 1107.65C227.887 1106.39 229.019 1105.76 230.5 1105.76ZM227.419 1113.09C227.419 1114.78 227.572 1116.1 227.88 1117.06L232.533 1107.85C232.044 1107.2 231.366 1106.88 230.5 1106.88C229.536 1106.88 228.781 1107.39 228.236 1108.42C227.691 1109.43 227.419 1110.99 227.419 1113.09ZM230.5 1119.31C231.478 1119.31 232.24 1118.8 232.785 1117.79C233.33 1116.76 233.602 1115.2 233.602 1113.09C233.602 1111.3 233.428 1109.92 233.078 1108.93L228.425 1118.22C228.928 1118.95 229.62 1119.31 230.5 1119.31Z" fill="url(#paint36_linear_175_194)" fill-opacity="0.6"/>
<path d="M231.758 1142.89H234.839V1143.99H226.853V1142.89H230.416V1131.21L227.02 1133.23L226.433 1132.29L230.626 1129.71H231.758V1142.89Z" fill="url(#paint37_linear_175_194)" fill-opacity="0.6"/>
<path d="M231.758 1166.64H234.839V1167.74H226.853V1166.64H230.416V1154.96L227.02 1156.98L226.433 1156.04L230.626 1153.47H231.758V1166.64Z" fill="url(#paint38_linear_175_194)" fill-opacity="0.6"/>
<path d="M230.5 1177.01C231.995 1177.01 233.127 1177.64 233.896 1178.9C234.679 1180.15 235.07 1181.96 235.07 1184.34C235.07 1186.73 234.679 1188.55 233.896 1189.81C233.127 1191.07 231.995 1191.7 230.5 1191.7C229.019 1191.7 227.887 1191.07 227.104 1189.81C226.321 1188.55 225.93 1186.73 225.93 1184.34C225.93 1181.98 226.321 1180.16 227.104 1178.9C227.887 1177.64 229.019 1177.01 230.5 1177.01ZM227.419 1184.34C227.419 1186.03 227.572 1187.36 227.88 1188.31L232.533 1179.11C232.044 1178.46 231.366 1178.13 230.5 1178.13C229.536 1178.13 228.781 1178.64 228.236 1179.67C227.691 1180.68 227.419 1182.24 227.419 1184.34ZM230.5 1190.56C231.478 1190.56 232.24 1190.05 232.785 1189.04C233.33 1188.02 233.602 1186.45 233.602 1184.34C233.602 1182.56 233.428 1181.17 233.078 1180.19L228.425 1189.48C228.928 1190.2 229.62 1190.56 230.5 1190.56Z" fill="url(#paint39_linear_175_194)" fill-opacity="0.6"/>
<path d="M231.758 1214.14H234.839V1215.24H226.853V1214.14H230.416V1202.46L227.02 1204.48L226.433 1203.54L230.626 1200.97H231.758V1214.14Z" fill="url(#paint40_linear_175_194)" fill-opacity="0.6"/>
<path d="M230.5 1224.51C231.995 1224.51 233.127 1225.14 233.896 1226.4C234.679 1227.65 235.07 1229.46 235.07 1231.85C235.07 1234.23 234.679 1236.05 233.896 1237.31C233.127 1238.57 231.995 1239.2 230.5 1239.2C229.019 1239.2 227.887 1238.57 227.104 1237.31C226.321 1236.05 225.93 1234.23 225.93 1231.85C225.93 1229.48 226.321 1227.66 227.104 1226.4C227.887 1225.14 229.019 1224.51 230.5 1224.51ZM227.419 1231.85C227.419 1233.54 227.572 1234.86 227.88 1235.82L232.533 1226.61C232.044 1225.96 231.366 1225.63 230.5 1225.63C229.536 1225.63 228.781 1226.15 228.236 1227.17C227.691 1228.18 227.419 1229.74 227.419 1231.85ZM230.5 1238.06C231.478 1238.06 232.24 1237.55 232.785 1236.54C233.33 1235.52 233.602 1233.95 233.602 1231.85C233.602 1230.06 233.428 1228.67 233.078 1227.69L228.425 1236.98C228.928 1237.7 229.62 1238.06 230.5 1238.06Z" fill="url(#paint41_linear_175_194)" fill-opacity="0.6"/>
<path d="M269.43 1010.75C270.926 1010.75 272.057 1011.38 272.826 1012.64C273.609 1013.89 274 1015.7 274 1018.09C274 1020.47 273.609 1022.29 272.826 1023.55C272.057 1024.81 270.926 1025.44 269.43 1025.44C267.949 1025.44 266.817 1024.81 266.034 1023.55C265.252 1022.29 264.86 1020.47 264.86 1018.09C264.86 1015.72 265.252 1013.9 266.034 1012.64C266.817 1011.38 267.949 1010.75 269.43 1010.75ZM266.349 1018.09C266.349 1019.78 266.502 1021.1 266.81 1022.06L271.464 1012.85C270.974 1012.2 270.297 1011.87 269.43 1011.87C268.466 1011.87 267.711 1012.39 267.166 1013.41C266.621 1014.42 266.349 1015.98 266.349 1018.09ZM269.43 1024.3C270.408 1024.3 271.17 1023.8 271.715 1022.78C272.26 1021.76 272.533 1020.19 272.533 1018.09C272.533 1016.3 272.358 1014.91 272.009 1013.93L267.355 1023.22C267.858 1023.94 268.55 1024.3 269.43 1024.3Z" fill="url(#paint42_linear_175_194)" fill-opacity="0.6"/>
<path d="M270.688 1047.89H273.769V1048.99H265.783V1047.89H269.346V1036.21L265.95 1038.22L265.363 1037.29L269.556 1034.71H270.688V1047.89Z" fill="url(#paint43_linear_175_194)" fill-opacity="0.6"/>
<path d="M270.688 1071.64H273.769V1072.74H265.783V1071.64H269.346V1059.96L265.95 1061.97L265.363 1061.04L269.556 1058.46H270.688V1071.64Z" fill="url(#paint44_linear_175_194)" fill-opacity="0.6"/>
<path d="M269.43 1082C270.926 1082 272.057 1082.63 272.826 1083.9C273.609 1085.14 274 1086.96 274 1089.34C274 1091.72 273.609 1093.55 272.826 1094.81C272.057 1096.07 270.926 1096.7 269.43 1096.7C267.949 1096.7 266.817 1096.07 266.034 1094.81C265.252 1093.55 264.86 1091.72 264.86 1089.34C264.86 1086.97 265.252 1085.16 266.034 1083.9C266.817 1082.63 267.949 1082 269.43 1082ZM266.349 1089.34C266.349 1091.03 266.502 1092.35 266.81 1093.31L271.464 1084.1C270.974 1083.45 270.297 1083.13 269.43 1083.13C268.466 1083.13 267.711 1083.64 267.166 1084.66C266.621 1085.68 266.349 1087.23 266.349 1089.34ZM269.43 1095.55C270.408 1095.55 271.17 1095.05 271.715 1094.04C272.26 1093.01 272.533 1091.45 272.533 1089.34C272.533 1087.55 272.358 1086.17 272.009 1085.18L267.355 1094.47C267.858 1095.19 268.55 1095.55 269.43 1095.55Z" fill="url(#paint45_linear_175_194)" fill-opacity="0.6"/>
<path d="M269.43 1105.76C270.926 1105.76 272.057 1106.39 272.826 1107.65C273.609 1108.89 274 1110.71 274 1113.09C274 1115.47 273.609 1117.3 272.826 1118.56C272.057 1119.82 270.926 1120.45 269.43 1120.45C267.949 1120.45 266.817 1119.82 266.034 1118.56C265.252 1117.3 264.86 1115.47 264.86 1113.09C264.86 1110.72 265.252 1108.91 266.034 1107.65C266.817 1106.39 267.949 1105.76 269.43 1105.76ZM266.349 1113.09C266.349 1114.78 266.502 1116.1 266.81 1117.06L271.464 1107.85C270.974 1107.2 270.297 1106.88 269.43 1106.88C268.466 1106.88 267.711 1107.39 267.166 1108.42C266.621 1109.43 266.349 1110.99 266.349 1113.09ZM269.43 1119.31C270.408 1119.31 271.17 1118.8 271.715 1117.79C272.26 1116.76 272.533 1115.2 272.533 1113.09C272.533 1111.3 272.358 1109.92 272.009 1108.93L267.355 1118.22C267.858 1118.95 268.55 1119.31 269.43 1119.31Z" fill="url(#paint46_linear_175_194)" fill-opacity="0.6"/>
<g opacity="0.6">
<path d="M1097.93 687C1099.36 687 1100.44 687.605 1101.17 688.815C1101.92 690.011 1102.29 691.753 1102.29 694.04C1102.29 696.327 1101.92 698.075 1101.17 699.285C1100.44 700.495 1099.36 701.1 1097.93 701.1C1096.52 701.1 1095.44 700.495 1094.69 699.285C1093.94 698.075 1093.57 696.327 1093.57 694.04C1093.57 691.767 1093.94 690.025 1094.69 688.815C1095.44 687.605 1096.52 687 1097.93 687ZM1094.99 694.04C1094.99 695.662 1095.14 696.932 1095.43 697.849L1099.87 689.014C1099.4 688.389 1098.76 688.077 1097.93 688.077C1097.01 688.077 1096.29 688.569 1095.77 689.553C1095.25 690.523 1094.99 692.019 1094.99 694.04ZM1097.93 700.003C1098.86 700.003 1099.59 699.518 1100.11 698.547C1100.63 697.564 1100.89 696.061 1100.89 694.04C1100.89 692.325 1100.72 690.995 1100.39 690.051L1095.95 698.966C1096.43 699.658 1097.09 700.003 1097.93 700.003Z" fill="url(#paint47_linear_175_194)"/>
<path d="M1099.13 722.637H1102.07V723.694H1094.45V722.637H1097.85V711.428L1094.61 713.363L1094.05 712.465L1098.05 709.992H1099.13V722.637Z" fill="url(#paint48_linear_175_194)"/>
<path d="M1097.93 732.586C1099.36 732.586 1100.44 733.191 1101.17 734.4C1101.92 735.597 1102.29 737.339 1102.29 739.626C1102.29 741.913 1101.92 743.661 1101.17 744.871C1100.44 746.081 1099.36 746.686 1097.93 746.686C1096.52 746.686 1095.44 746.081 1094.69 744.871C1093.94 743.661 1093.57 741.913 1093.57 739.626C1093.57 737.352 1093.94 735.61 1094.69 734.4C1095.44 733.191 1096.52 732.586 1097.93 732.586ZM1094.99 739.626C1094.99 741.248 1095.14 742.518 1095.43 743.435L1099.87 734.6C1099.4 733.975 1098.76 733.663 1097.93 733.663C1097.01 733.663 1096.29 734.155 1095.77 735.138C1095.25 736.109 1094.99 737.605 1094.99 739.626ZM1097.93 745.589C1098.86 745.589 1099.59 745.104 1100.11 744.133C1100.63 743.149 1100.89 741.647 1100.89 739.626C1100.89 737.911 1100.72 736.581 1100.39 735.637L1095.95 744.552C1096.43 745.243 1097.09 745.589 1097.93 745.589Z" fill="url(#paint49_linear_175_194)"/>
<path d="M1099.13 768.222H1102.07V769.279H1094.45V768.222H1097.85V757.014L1094.61 758.948L1094.05 758.051L1098.05 755.578H1099.13V768.222Z" fill="url(#paint50_linear_175_194)"/>
<path d="M1099.13 791.015H1102.07V792.072H1094.45V791.015H1097.85V779.807L1094.61 781.741L1094.05 780.844L1098.05 778.371H1099.13V791.015Z" fill="url(#paint51_linear_175_194)"/>
<path d="M1097.93 800.964C1099.36 800.964 1100.44 801.569 1101.17 802.779C1101.92 803.976 1102.29 805.717 1102.29 808.004C1102.29 810.291 1101.92 812.039 1101.17 813.249C1100.44 814.459 1099.36 815.064 1097.93 815.064C1096.52 815.064 1095.44 814.459 1094.69 813.249C1093.94 812.039 1093.57 810.291 1093.57 808.004C1093.57 805.731 1093.94 803.989 1094.69 802.779C1095.44 801.569 1096.52 800.964 1097.93 800.964ZM1094.99 808.004C1094.99 809.626 1095.14 810.896 1095.43 811.813L1099.87 802.978C1099.4 802.353 1098.76 802.041 1097.93 802.041C1097.01 802.041 1096.29 802.533 1095.77 803.517C1095.25 804.487 1094.99 805.983 1094.99 808.004ZM1097.93 813.967C1098.86 813.967 1099.59 813.482 1100.11 812.511C1100.63 811.528 1100.89 810.025 1100.89 808.004C1100.89 806.289 1100.72 804.959 1100.39 804.015L1095.95 812.93C1096.43 813.622 1097.09 813.967 1097.93 813.967Z" fill="url(#paint52_linear_175_194)"/>
<path d="M1099.13 836.601H1102.07V837.658H1094.45V836.601H1097.85V825.392L1094.61 827.327L1094.05 826.429L1098.05 823.956H1099.13V836.601Z" fill="url(#paint53_linear_175_194)"/>
<path d="M1097.93 846.55C1099.36 846.55 1100.44 847.155 1101.17 848.365C1101.92 849.561 1102.29 851.303 1102.29 853.59C1102.29 855.877 1101.92 857.625 1101.17 858.835C1100.44 860.045 1099.36 860.65 1097.93 860.65C1096.52 860.65 1095.44 860.045 1094.69 858.835C1093.94 857.625 1093.57 855.877 1093.57 853.59C1093.57 851.316 1093.94 849.574 1094.69 848.365C1095.44 847.155 1096.52 846.55 1097.93 846.55ZM1094.99 853.59C1094.99 855.212 1095.14 856.482 1095.43 857.399L1099.87 848.564C1099.4 847.939 1098.76 847.627 1097.93 847.627C1097.01 847.627 1096.29 848.119 1095.77 849.102C1095.25 850.073 1094.99 851.569 1094.99 853.59ZM1097.93 859.553C1098.86 859.553 1099.59 859.068 1100.11 858.097C1100.63 857.113 1100.89 855.611 1100.89 853.59C1100.89 851.875 1100.72 850.545 1100.39 849.601L1095.95 858.516C1096.43 859.207 1097.09 859.553 1097.93 859.553Z" fill="url(#paint54_linear_175_194)"/>
<path d="M1097.93 869.342C1099.36 869.342 1100.44 869.947 1101.17 871.157C1101.92 872.354 1102.29 874.096 1102.29 876.383C1102.29 878.669 1101.92 880.418 1101.17 881.628C1100.44 882.838 1099.36 883.443 1097.93 883.443C1096.52 883.443 1095.44 882.838 1094.69 881.628C1093.94 880.418 1093.57 878.669 1093.57 876.383C1093.57 874.109 1093.94 872.367 1094.69 871.157C1095.44 869.947 1096.52 869.342 1097.93 869.342ZM1094.99 876.383C1094.99 878.005 1095.14 879.274 1095.43 880.192L1099.87 871.357C1099.4 870.732 1098.76 870.419 1097.93 870.419C1097.01 870.419 1096.29 870.911 1095.77 871.895C1095.25 872.866 1094.99 874.362 1094.99 876.383ZM1097.93 882.346C1098.86 882.346 1099.59 881.86 1100.11 880.89C1100.63 879.906 1100.89 878.404 1100.89 876.383C1100.89 874.667 1100.72 873.338 1100.39 872.394L1095.95 881.309C1096.43 882 1097.09 882.346 1097.93 882.346Z" fill="url(#paint55_linear_175_194)"/>
<path d="M1099.13 904.979H1102.07V906.036H1094.45V904.979H1097.85V893.771L1094.61 895.705L1094.05 894.808L1098.05 892.335H1099.13V904.979Z" fill="url(#paint56_linear_175_194)"/>
<path d="M1097.93 914.928C1099.36 914.928 1100.44 915.533 1101.17 916.743C1101.92 917.94 1102.29 919.681 1102.29 921.968C1102.29 924.255 1101.92 926.003 1101.17 927.213C1100.44 928.423 1099.36 929.028 1097.93 929.028C1096.52 929.028 1095.44 928.423 1094.69 927.213C1093.94 926.003 1093.57 924.255 1093.57 921.968C1093.57 919.695 1093.94 917.953 1094.69 916.743C1095.44 915.533 1096.52 914.928 1097.93 914.928ZM1094.99 921.968C1094.99 923.59 1095.14 924.86 1095.43 925.777L1099.87 916.942C1099.4 916.317 1098.76 916.005 1097.93 916.005C1097.01 916.005 1096.29 916.497 1095.77 917.481C1095.25 918.451 1094.99 919.947 1094.99 921.968ZM1097.93 927.931C1098.86 927.931 1099.59 927.446 1100.11 926.475C1100.63 925.492 1100.89 923.989 1100.89 921.968C1100.89 920.253 1100.72 918.923 1100.39 917.979L1095.95 926.894C1096.43 927.586 1097.09 927.931 1097.93 927.931Z" fill="url(#paint57_linear_175_194)"/>
<path d="M1099.13 950.565H1102.07V951.622H1094.45V950.565H1097.85V939.356L1094.61 941.291L1094.05 940.393L1098.05 937.92H1099.13V950.565Z" fill="url(#paint58_linear_175_194)"/>
<path d="M1099.13 973.357H1102.07V974.414H1094.45V973.357H1097.85V962.149L1094.61 964.084L1094.05 963.186L1098.05 960.713H1099.13V973.357Z" fill="url(#paint59_linear_175_194)"/>
<path d="M1135.07 732.586C1136.5 732.586 1137.58 733.191 1138.31 734.4C1139.06 735.597 1139.43 737.339 1139.43 739.626C1139.43 741.913 1139.06 743.661 1138.31 744.871C1137.58 746.081 1136.5 746.686 1135.07 746.686C1133.66 746.686 1132.58 746.081 1131.83 744.871C1131.08 743.661 1130.71 741.913 1130.71 739.626C1130.71 737.352 1131.08 735.61 1131.83 734.4C1132.58 733.191 1133.66 732.586 1135.07 732.586ZM1132.13 739.626C1132.13 741.248 1132.28 742.518 1132.57 743.435L1137.01 734.6C1136.54 733.975 1135.9 733.663 1135.07 733.663C1134.15 733.663 1133.43 734.155 1132.91 735.138C1132.39 736.109 1132.13 737.605 1132.13 739.626ZM1135.07 745.589C1136 745.589 1136.73 745.104 1137.25 744.133C1137.77 743.149 1138.03 741.647 1138.03 739.626C1138.03 737.911 1137.86 736.581 1137.53 735.637L1133.09 744.552C1133.57 745.243 1134.23 745.589 1135.07 745.589Z" fill="url(#paint60_linear_175_194)"/>
<path d="M1136.27 768.222H1139.21V769.279H1131.59V768.222H1134.99V757.014L1131.75 758.948L1131.19 758.051L1135.19 755.578H1136.27V768.222Z" fill="url(#paint61_linear_175_194)"/>
<path d="M1135.07 778.171C1136.5 778.171 1137.58 778.776 1138.31 779.986C1139.06 781.183 1139.43 782.924 1139.43 785.211C1139.43 787.498 1139.06 789.247 1138.31 790.457C1137.58 791.666 1136.5 792.271 1135.07 792.271C1133.66 792.271 1132.58 791.666 1131.83 790.457C1131.08 789.247 1130.71 787.498 1130.71 785.211C1130.71 782.938 1131.08 781.196 1131.83 779.986C1132.58 778.776 1133.66 778.171 1135.07 778.171ZM1132.13 785.211C1132.13 786.833 1132.28 788.103 1132.57 789.021L1137.01 780.186C1136.54 779.561 1135.9 779.248 1135.07 779.248C1134.15 779.248 1133.43 779.74 1132.91 780.724C1132.39 781.695 1132.13 783.19 1132.13 785.211ZM1135.07 791.174C1136 791.174 1136.73 790.689 1137.25 789.719C1137.77 788.735 1138.03 787.232 1138.03 785.211C1138.03 783.496 1137.86 782.167 1137.53 781.223L1133.09 790.137C1133.57 790.829 1134.23 791.174 1135.07 791.174Z" fill="url(#paint62_linear_175_194)"/>
<path d="M1135.07 800.964C1136.5 800.964 1137.58 801.569 1138.31 802.779C1139.06 803.976 1139.43 805.717 1139.43 808.004C1139.43 810.291 1139.06 812.039 1138.31 813.249C1137.58 814.459 1136.5 815.064 1135.07 815.064C1133.66 815.064 1132.58 814.459 1131.83 813.249C1131.08 812.039 1130.71 810.291 1130.71 808.004C1130.71 805.731 1131.08 803.989 1131.83 802.779C1132.58 801.569 1133.66 800.964 1135.07 800.964ZM1132.13 808.004C1132.13 809.626 1132.28 810.896 1132.57 811.813L1137.01 802.978C1136.54 802.353 1135.9 802.041 1135.07 802.041C1134.15 802.041 1133.43 802.533 1132.91 803.517C1132.39 804.487 1132.13 805.983 1132.13 808.004ZM1135.07 813.967C1136 813.967 1136.73 813.482 1137.25 812.511C1137.77 811.528 1138.03 810.025 1138.03 808.004C1138.03 806.289 1137.86 804.959 1137.53 804.015L1133.09 812.93C1133.57 813.622 1134.23 813.967 1135.07 813.967Z" fill="url(#paint63_linear_175_194)"/>
<path d="M1136.27 836.601H1139.21V837.658H1131.59V836.601H1134.99V825.392L1131.75 827.327L1131.19 826.429L1135.19 823.956H1136.27V836.601Z" fill="url(#paint64_linear_175_194)"/>
<path d="M1135.07 846.55C1136.5 846.55 1137.58 847.155 1138.31 848.365C1139.06 849.561 1139.43 851.303 1139.43 853.59C1139.43 855.877 1139.06 857.625 1138.31 858.835C1137.58 860.045 1136.5 860.65 1135.07 860.65C1133.66 860.65 1132.58 860.045 1131.83 858.835C1131.08 857.625 1130.71 855.877 1130.71 853.59C1130.71 851.316 1131.08 849.574 1131.83 848.365C1132.58 847.155 1133.66 846.55 1135.07 846.55ZM1132.13 853.59C1132.13 855.212 1132.28 856.482 1132.57 857.399L1137.01 848.564C1136.54 847.939 1135.9 847.627 1135.07 847.627C1134.15 847.627 1133.43 848.119 1132.91 849.102C1132.39 850.073 1132.13 851.569 1132.13 853.59ZM1135.07 859.553C1136 859.553 1136.73 859.068 1137.25 858.097C1137.77 857.113 1138.03 855.611 1138.03 853.59C1138.03 851.875 1137.86 850.545 1137.53 849.601L1133.09 858.516C1133.57 859.207 1134.23 859.553 1135.07 859.553Z" fill="url(#paint65_linear_175_194)"/>
<path d="M1136.27 882.186H1139.21V883.243H1131.59V882.186H1134.99V870.978L1131.75 872.912L1131.19 872.015L1135.19 869.542H1136.27V882.186Z" fill="url(#paint66_linear_175_194)"/>
<path d="M1135.07 892.135C1136.5 892.135 1137.58 892.74 1138.31 893.95C1139.06 895.147 1139.43 896.888 1139.43 899.175C1139.43 901.462 1139.06 903.211 1138.31 904.421C1137.58 905.63 1136.5 906.235 1135.07 906.235C1133.66 906.235 1132.58 905.63 1131.83 904.421C1131.08 903.211 1130.71 901.462 1130.71 899.175C1130.71 896.902 1131.08 895.16 1131.83 893.95C1132.58 892.74 1133.66 892.135 1135.07 892.135ZM1132.13 899.175C1132.13 900.797 1132.28 902.067 1132.57 902.985L1137.01 894.15C1136.54 893.525 1135.9 893.212 1135.07 893.212C1134.15 893.212 1133.43 893.704 1132.91 894.688C1132.39 895.659 1132.13 897.154 1132.13 899.175ZM1135.07 905.139C1136 905.139 1136.73 904.653 1137.25 903.683C1137.77 902.699 1138.03 901.196 1138.03 899.175C1138.03 897.46 1137.86 896.131 1137.53 895.187L1133.09 904.101C1133.57 904.793 1134.23 905.139 1135.07 905.139Z" fill="url(#paint67_linear_175_194)"/>
<path d="M1135.07 914.928C1136.5 914.928 1137.58 915.533 1138.31 916.743C1139.06 917.94 1139.43 919.681 1139.43 921.968C1139.43 924.255 1139.06 926.003 1138.31 927.213C1137.58 928.423 1136.5 929.028 1135.07 929.028C1133.66 929.028 1132.58 928.423 1131.83 927.213C1131.08 926.003 1130.71 924.255 1130.71 921.968C1130.71 919.695 1131.08 917.953 1131.83 916.743C1132.58 915.533 1133.66 914.928 1135.07 914.928ZM1132.13 921.968C1132.13 923.59 1132.28 924.86 1132.57 925.777L1137.01 916.942C1136.54 916.317 1135.9 916.005 1135.07 916.005C1134.15 916.005 1133.43 916.497 1132.91 917.481C1132.39 918.451 1132.13 919.947 1132.13 921.968ZM1135.07 927.931C1136 927.931 1136.73 927.446 1137.25 926.475C1137.77 925.492 1138.03 923.989 1138.03 921.968C1138.03 920.253 1137.86 918.923 1137.53 917.979L1133.09 926.894C1133.57 927.586 1134.23 927.931 1135.07 927.931Z" fill="url(#paint68_linear_175_194)"/>
<path d="M1136.27 950.565H1139.21V951.622H1131.59V950.565H1134.99V939.356L1131.75 941.291L1131.19 940.393L1135.19 937.92H1136.27V950.565Z" fill="url(#paint69_linear_175_194)"/>
<path d="M1135.07 960.514C1136.5 960.514 1137.58 961.119 1138.31 962.329C1139.06 963.525 1139.43 965.267 1139.43 967.554C1139.43 969.841 1139.06 971.589 1138.31 972.799C1137.58 974.009 1136.5 974.614 1135.07 974.614C1133.66 974.614 1132.58 974.009 1131.83 972.799C1131.08 971.589 1130.71 969.841 1130.71 967.554C1130.71 965.28 1131.08 963.538 1131.83 962.329C1132.58 961.119 1133.66 960.514 1135.07 960.514ZM1132.13 967.554C1132.13 969.176 1132.28 970.446 1132.57 971.363L1137.01 962.528C1136.54 961.903 1135.9 961.591 1135.07 961.591C1134.15 961.591 1133.43 962.083 1132.91 963.066C1132.39 964.037 1132.13 965.533 1132.13 967.554ZM1135.07 973.517C1136 973.517 1136.73 973.032 1137.25 972.061C1137.77 971.077 1138.03 969.575 1138.03 967.554C1138.03 965.839 1137.86 964.509 1137.53 963.565L1133.09 972.48C1133.57 973.171 1134.23 973.517 1135.07 973.517Z" fill="url(#paint70_linear_175_194)"/>
<path d="M1136.27 996.15H1139.21V997.207H1131.59V996.15H1134.99V984.942L1131.75 986.876L1131.19 985.979L1135.19 983.506H1136.27V996.15Z" fill="url(#paint71_linear_175_194)"/>
<path d="M1136.27 1018.94H1139.21V1020H1131.59V1018.94H1134.99V1007.73L1131.75 1009.67L1131.19 1008.77L1135.19 1006.3H1136.27V1018.94Z" fill="url(#paint72_linear_175_194)"/>
<path d="M1079.36 755.378C1080.79 755.378 1081.87 755.983 1082.6 757.193C1083.35 758.39 1083.72 760.132 1083.72 762.419C1083.72 764.705 1083.35 766.454 1082.6 767.664C1081.87 768.874 1080.79 769.479 1079.36 769.479C1077.95 769.479 1076.87 768.874 1076.12 767.664C1075.37 766.454 1075 764.705 1075 762.419C1075 760.145 1075.37 758.403 1076.12 757.193C1076.87 755.983 1077.95 755.378 1079.36 755.378ZM1076.42 762.419C1076.42 764.041 1076.57 765.31 1076.86 766.228L1081.3 757.393C1080.83 756.768 1080.19 756.455 1079.36 756.455C1078.44 756.455 1077.72 756.947 1077.2 757.931C1076.68 758.902 1076.42 760.398 1076.42 762.419ZM1079.36 768.382C1080.29 768.382 1081.02 767.896 1081.54 766.926C1082.06 765.942 1082.32 764.439 1082.32 762.419C1082.32 760.703 1082.15 759.374 1081.82 758.43L1077.38 767.345C1077.86 768.036 1078.52 768.382 1079.36 768.382Z" fill="url(#paint73_linear_175_194)"/>
<path d="M1079.36 778.171C1080.79 778.171 1081.87 778.776 1082.6 779.986C1083.35 781.183 1083.72 782.924 1083.72 785.211C1083.72 787.498 1083.35 789.247 1082.6 790.457C1081.87 791.666 1080.79 792.271 1079.36 792.271C1077.95 792.271 1076.87 791.666 1076.12 790.457C1075.37 789.247 1075 787.498 1075 785.211C1075 782.938 1075.37 781.196 1076.12 779.986C1076.87 778.776 1077.95 778.171 1079.36 778.171ZM1076.42 785.211C1076.42 786.833 1076.57 788.103 1076.86 789.021L1081.3 780.186C1080.83 779.561 1080.19 779.248 1079.36 779.248C1078.44 779.248 1077.72 779.74 1077.2 780.724C1076.68 781.695 1076.42 783.19 1076.42 785.211ZM1079.36 791.174C1080.29 791.174 1081.02 790.689 1081.54 789.719C1082.06 788.735 1082.32 787.232 1082.32 785.211C1082.32 783.496 1082.15 782.167 1081.82 781.223L1077.38 790.137C1077.86 790.829 1078.52 791.174 1079.36 791.174Z" fill="url(#paint74_linear_175_194)"/>
<path d="M1080.56 813.808H1083.5V814.865H1075.88V813.808H1079.28V802.599L1076.04 804.534L1075.48 803.636L1079.48 801.163H1080.56V813.808Z" fill="url(#paint75_linear_175_194)"/>
<path d="M1079.36 823.757C1080.79 823.757 1081.87 824.362 1082.6 825.572C1083.35 826.768 1083.72 828.51 1083.72 830.797C1083.72 833.084 1083.35 834.832 1082.6 836.042C1081.87 837.252 1080.79 837.857 1079.36 837.857C1077.95 837.857 1076.87 837.252 1076.12 836.042C1075.37 834.832 1075 833.084 1075 830.797C1075 828.523 1075.37 826.782 1076.12 825.572C1076.87 824.362 1077.95 823.757 1079.36 823.757ZM1076.42 830.797C1076.42 832.419 1076.57 833.689 1076.86 834.606L1081.3 825.771C1080.83 825.146 1080.19 824.834 1079.36 824.834C1078.44 824.834 1077.72 825.326 1077.2 826.31C1076.68 827.28 1076.42 828.776 1076.42 830.797ZM1079.36 836.76C1080.29 836.76 1081.02 836.275 1081.54 835.304C1082.06 834.32 1082.32 832.818 1082.32 830.797C1082.32 829.082 1082.15 827.752 1081.82 826.808L1077.38 835.723C1077.86 836.414 1078.52 836.76 1079.36 836.76Z" fill="url(#paint76_linear_175_194)"/>
<path d="M1080.56 859.393H1083.5V860.45H1075.88V859.393H1079.28V848.185L1076.04 850.12L1075.48 849.222L1079.48 846.749H1080.56V859.393Z" fill="url(#paint77_linear_175_194)"/>
<path d="M1080.56 882.186H1083.5V883.243H1075.88V882.186H1079.28V870.978L1076.04 872.912L1075.48 872.015L1079.48 869.542H1080.56V882.186Z" fill="url(#paint78_linear_175_194)"/>
<path d="M1117.7 722.637H1120.64V723.694H1113.02V722.637H1116.42V711.428L1113.18 713.363L1112.62 712.465L1116.62 709.992H1117.7V722.637Z" fill="url(#paint79_linear_175_194)"/>
<path d="M1116.5 732.586C1117.93 732.586 1119.01 733.191 1119.74 734.4C1120.49 735.597 1120.86 737.339 1120.86 739.626C1120.86 741.913 1120.49 743.661 1119.74 744.871C1119.01 746.081 1117.93 746.686 1116.5 746.686C1115.09 746.686 1114.01 746.081 1113.26 744.871C1112.51 743.661 1112.14 741.913 1112.14 739.626C1112.14 737.352 1112.51 735.61 1113.26 734.4C1114.01 733.191 1115.09 732.586 1116.5 732.586ZM1113.56 739.626C1113.56 741.248 1113.71 742.518 1114 743.435L1118.44 734.6C1117.97 733.975 1117.33 733.663 1116.5 733.663C1115.58 733.663 1114.86 734.155 1114.34 735.138C1113.82 736.109 1113.56 737.605 1113.56 739.626ZM1116.5 745.589C1117.43 745.589 1118.16 745.104 1118.68 744.133C1119.2 743.149 1119.46 741.647 1119.46 739.626C1119.46 737.911 1119.29 736.581 1118.96 735.637L1114.52 744.552C1115 745.243 1115.66 745.589 1116.5 745.589Z" fill="url(#paint80_linear_175_194)"/>
<path d="M1117.7 768.222H1120.64V769.279H1113.02V768.222H1116.42V757.014L1113.18 758.948L1112.62 758.051L1116.62 755.578H1117.7V768.222Z" fill="url(#paint81_linear_175_194)"/>
<path d="M1117.7 791.015H1120.64V792.072H1113.02V791.015H1116.42V779.807L1113.18 781.741L1112.62 780.844L1116.62 778.371H1117.7V791.015Z" fill="url(#paint82_linear_175_194)"/>
<path d="M1116.5 800.964C1117.93 800.964 1119.01 801.569 1119.74 802.779C1120.49 803.976 1120.86 805.717 1120.86 808.004C1120.86 810.291 1120.49 812.039 1119.74 813.249C1119.01 814.459 1117.93 815.064 1116.5 815.064C1115.09 815.064 1114.01 814.459 1113.26 813.249C1112.51 812.039 1112.14 810.291 1112.14 808.004C1112.14 805.731 1112.51 803.989 1113.26 802.779C1114.01 801.569 1115.09 800.964 1116.5 800.964ZM1113.56 808.004C1113.56 809.626 1113.71 810.896 1114 811.813L1118.44 802.978C1117.97 802.353 1117.33 802.041 1116.5 802.041C1115.58 802.041 1114.86 802.533 1114.34 803.517C1113.82 804.487 1113.56 805.983 1113.56 808.004ZM1116.5 813.967C1117.43 813.967 1118.16 813.482 1118.68 812.511C1119.2 811.528 1119.46 810.025 1119.46 808.004C1119.46 806.289 1119.29 804.959 1118.96 804.015L1114.52 812.93C1115 813.622 1115.66 813.967 1116.5 813.967Z" fill="url(#paint83_linear_175_194)"/>
<path d="M1117.7 836.601H1120.64V837.658H1113.02V836.601H1116.42V825.392L1113.18 827.327L1112.62 826.429L1116.62 823.956H1117.7V836.601Z" fill="url(#paint84_linear_175_194)"/>
<path d="M1117.7 859.393H1120.64V860.45H1113.02V859.393H1116.42V848.185L1113.18 850.12L1112.62 849.222L1116.62 846.749H1117.7V859.393Z" fill="url(#paint85_linear_175_194)"/>
<path d="M1116.5 869.342C1117.93 869.342 1119.01 869.947 1119.74 871.157C1120.49 872.354 1120.86 874.096 1120.86 876.383C1120.86 878.669 1120.49 880.418 1119.74 881.628C1119.01 882.838 1117.93 883.443 1116.5 883.443C1115.09 883.443 1114.01 882.838 1113.26 881.628C1112.51 880.418 1112.14 878.669 1112.14 876.383C1112.14 874.109 1112.51 872.367 1113.26 871.157C1114.01 869.947 1115.09 869.342 1116.5 869.342ZM1113.56 876.383C1113.56 878.005 1113.71 879.274 1114 880.192L1118.44 871.357C1117.97 870.732 1117.33 870.419 1116.5 870.419C1115.58 870.419 1114.86 870.911 1114.34 871.895C1113.82 872.866 1113.56 874.362 1113.56 876.383ZM1116.5 882.346C1117.43 882.346 1118.16 881.86 1118.68 880.89C1119.2 879.906 1119.46 878.404 1119.46 876.383C1119.46 874.667 1119.29 873.338 1118.96 872.394L1114.52 881.309C1115 882 1115.66 882.346 1116.5 882.346Z" fill="url(#paint86_linear_175_194)"/>
<path d="M1117.7 904.979H1120.64V906.036H1113.02V904.979H1116.42V893.771L1113.18 895.705L1112.62 894.808L1116.62 892.335H1117.7V904.979Z" fill="url(#paint87_linear_175_194)"/>
<path d="M1116.5 914.928C1117.93 914.928 1119.01 915.533 1119.74 916.743C1120.49 917.94 1120.86 919.681 1120.86 921.968C1120.86 924.255 1120.49 926.003 1119.74 927.213C1119.01 928.423 1117.93 929.028 1116.5 929.028C1115.09 929.028 1114.01 928.423 1113.26 927.213C1112.51 926.003 1112.14 924.255 1112.14 921.968C1112.14 919.695 1112.51 917.953 1113.26 916.743C1114.01 915.533 1115.09 914.928 1116.5 914.928ZM1113.56 921.968C1113.56 923.59 1113.71 924.86 1114 925.777L1118.44 916.942C1117.97 916.317 1117.33 916.005 1116.5 916.005C1115.58 916.005 1114.86 916.497 1114.34 917.481C1113.82 918.451 1113.56 919.947 1113.56 921.968ZM1116.5 927.931C1117.43 927.931 1118.16 927.446 1118.68 926.475C1119.2 925.492 1119.46 923.989 1119.46 921.968C1119.46 920.253 1119.29 918.923 1118.96 917.979L1114.52 926.894C1115 927.586 1115.66 927.931 1116.5 927.931Z" fill="url(#paint88_linear_175_194)"/>
<path d="M1153.64 709.793C1155.07 709.793 1156.15 710.398 1156.88 711.608C1157.63 712.804 1158 714.546 1158 716.833C1158 719.12 1157.63 720.868 1156.88 722.078C1156.15 723.288 1155.07 723.893 1153.64 723.893C1152.23 723.893 1151.15 723.288 1150.4 722.078C1149.65 720.868 1149.28 719.12 1149.28 716.833C1149.28 714.559 1149.65 712.818 1150.4 711.608C1151.15 710.398 1152.23 709.793 1153.64 709.793ZM1150.7 716.833C1150.7 718.455 1150.85 719.725 1151.14 720.642L1155.58 711.807C1155.11 711.182 1154.47 710.87 1153.64 710.87C1152.72 710.87 1152 711.362 1151.48 712.346C1150.96 713.316 1150.7 714.812 1150.7 716.833ZM1153.64 722.796C1154.57 722.796 1155.3 722.311 1155.82 721.34C1156.34 720.356 1156.6 718.854 1156.6 716.833C1156.6 715.118 1156.43 713.788 1156.1 712.844L1151.66 721.759C1152.14 722.45 1152.8 722.796 1153.64 722.796Z" fill="url(#paint89_linear_175_194)"/>
<path d="M1154.84 745.429H1157.78V746.486H1150.16V745.429H1153.56V734.221L1150.32 736.156L1149.76 735.258L1153.76 732.785H1154.84V745.429Z" fill="url(#paint90_linear_175_194)"/>
<path d="M1154.84 768.222H1157.78V769.279H1150.16V768.222H1153.56V757.014L1150.32 758.948L1149.76 758.051L1153.76 755.578H1154.84V768.222Z" fill="url(#paint91_linear_175_194)"/>
<path d="M1153.64 778.171C1155.07 778.171 1156.15 778.776 1156.88 779.986C1157.63 781.183 1158 782.924 1158 785.211C1158 787.498 1157.63 789.247 1156.88 790.457C1156.15 791.666 1155.07 792.271 1153.64 792.271C1152.23 792.271 1151.15 791.666 1150.4 790.457C1149.65 789.247 1149.28 787.498 1149.28 785.211C1149.28 782.938 1149.65 781.196 1150.4 779.986C1151.15 778.776 1152.23 778.171 1153.64 778.171ZM1150.7 785.211C1150.7 786.833 1150.85 788.103 1151.14 789.021L1155.58 780.186C1155.11 779.561 1154.47 779.248 1153.64 779.248C1152.72 779.248 1152 779.74 1151.48 780.724C1150.96 781.695 1150.7 783.19 1150.7 785.211ZM1153.64 791.174C1154.57 791.174 1155.3 790.689 1155.82 789.719C1156.34 788.735 1156.6 787.232 1156.6 785.211C1156.6 783.496 1156.43 782.167 1156.1 781.223L1151.66 790.137C1152.14 790.829 1152.8 791.174 1153.64 791.174Z" fill="url(#paint92_linear_175_194)"/>
<path d="M1153.64 800.964C1155.07 800.964 1156.15 801.569 1156.88 802.779C1157.63 803.976 1158 805.717 1158 808.004C1158 810.291 1157.63 812.039 1156.88 813.249C1156.15 814.459 1155.07 815.064 1153.64 815.064C1152.23 815.064 1151.15 814.459 1150.4 813.249C1149.65 812.039 1149.28 810.291 1149.28 808.004C1149.28 805.731 1149.65 803.989 1150.4 802.779C1151.15 801.569 1152.23 800.964 1153.64 800.964ZM1150.7 808.004C1150.7 809.626 1150.85 810.896 1151.14 811.813L1155.58 802.978C1155.11 802.353 1154.47 802.041 1153.64 802.041C1152.72 802.041 1152 802.533 1151.48 803.517C1150.96 804.487 1150.7 805.983 1150.7 808.004ZM1153.64 813.967C1154.57 813.967 1155.3 813.482 1155.82 812.511C1156.34 811.528 1156.6 810.025 1156.6 808.004C1156.6 806.289 1156.43 804.959 1156.1 804.015L1151.66 812.93C1152.14 813.622 1152.8 813.967 1153.64 813.967Z" fill="url(#paint93_linear_175_194)"/>
</g>
<defs>
<filter id="filter0_f_175_194" x="-380.19" y="0.809998" width="2141.38" height="1500.38" filterUnits="userSpaceOnUse" color-interpolation-filters="sRGB">
<feFlood flood-opacity="0" result="BackgroundImageFix"/>
<feBlend mode="normal" in="SourceGraphic" in2="BackgroundImageFix" result="shape"/>
<feGaussianBlur stdDeviation="200.095" result="effect1_foregroundBlur_175_194"/>
</filter>
<linearGradient id="paint0_linear_175_194" x1="230.5" y1="987" x2="230.5" y2="1298.38" gradientUnits="userSpaceOnUse">
<stop stop-color="#F7DD43"/>
<stop offset="1" stop-color="#F7DD43" stop-opacity="0"/>
</linearGradient>
<linearGradient id="paint1_linear_175_194" x1="230.5" y1="987" x2="230.5" y2="1298.38" gradientUnits="userSpaceOnUse">
<stop stop-color="#F7DD43"/>
<stop offset="1" stop-color="#F7DD43" stop-opacity="0"/>
</linearGradient>
<linearGradient id="paint2_linear_175_194" x1="230.5" y1="987" x2="230.5" y2="1298.38" gradientUnits="userSpaceOnUse">
<stop stop-color="#F7DD43"/>
<stop offset="1" stop-color="#F7DD43" stop-opacity="0"/>
</linearGradient>
<linearGradient id="paint3_linear_175_194" x1="230.5" y1="987" x2="230.5" y2="1298.38" gradientUnits="userSpaceOnUse">
<stop stop-color="#F7DD43"/>
<stop offset="1" stop-color="#F7DD43" stop-opacity="0"/>
</linearGradient>
<linearGradient id="paint4_linear_175_194" x1="230.5" y1="987" x2="230.5" y2="1298.38" gradientUnits="userSpaceOnUse">
<stop stop-color="#F7DD43"/>
<stop offset="1" stop-color="#F7DD43" stop-opacity="0"/>
</linearGradient>
<linearGradient id="paint5_linear_175_194" x1="230.5" y1="987" x2="230.5" y2="1298.38" gradientUnits="userSpaceOnUse">
<stop stop-color="#F7DD43"/>
<stop offset="1" stop-color="#F7DD43" stop-opacity="0"/>
</linearGradient>
<linearGradient id="paint6_linear_175_194" x1="230.5" y1="987" x2="230.5" y2="1298.38" gradientUnits="userSpaceOnUse">
<stop stop-color="#F7DD43"/>
<stop offset="1" stop-color="#F7DD43" stop-opacity="0"/>
</linearGradient>
<linearGradient id="paint7_linear_175_194" x1="230.5" y1="987" x2="230.5" y2="1298.38" gradientUnits="userSpaceOnUse">
<stop stop-color="#F7DD43"/>
<stop offset="1" stop-color="#F7DD43" stop-opacity="0"/>
</linearGradient>
<linearGradient id="paint8_linear_175_194" x1="230.5" y1="987" x2="230.5" y2="1298.38" gradientUnits="userSpaceOnUse">
<stop stop-color="#F7DD43"/>
<stop offset="1" stop-color="#F7DD43" stop-opacity="0"/>
</linearGradient>
<linearGradient id="paint9_linear_175_194" x1="230.5" y1="987" x2="230.5" y2="1298.38" gradientUnits="userSpaceOnUse">
<stop stop-color="#F7DD43"/>
<stop offset="1" stop-color="#F7DD43" stop-opacity="0"/>
</linearGradient>
<linearGradient id="paint10_linear_175_194" x1="230.5" y1="987" x2="230.5" y2="1298.38" gradientUnits="userSpaceOnUse">
<stop stop-color="#F7DD43"/>
<stop offset="1" stop-color="#F7DD43" stop-opacity="0"/>
</linearGradient>
<linearGradient id="paint11_linear_175_194" x1="230.5" y1="987" x2="230.5" y2="1298.38" gradientUnits="userSpaceOnUse">
<stop stop-color="#F7DD43"/>
<stop offset="1" stop-color="#F7DD43" stop-opacity="0"/>
</linearGradient>
<linearGradient id="paint12_linear_175_194" x1="230.5" y1="987" x2="230.5" y2="1298.38" gradientUnits="userSpaceOnUse">
<stop stop-color="#F7DD43"/>
<stop offset="1" stop-color="#F7DD43" stop-opacity="0"/>
</linearGradient>
<linearGradient id="paint13_linear_175_194" x1="230.5" y1="987" x2="230.5" y2="1298.38" gradientUnits="userSpaceOnUse">
<stop stop-color="#F7DD43"/>
<stop offset="1" stop-color="#F7DD43" stop-opacity="0"/>
</linearGradient>
<linearGradient id="paint14_linear_175_194" x1="230.5" y1="987" x2="230.5" y2="1298.38" gradientUnits="userSpaceOnUse">
<stop stop-color="#F7DD43"/>
<stop offset="1" stop-color="#F7DD43" stop-opacity="0"/>
</linearGradient>
<linearGradient id="paint15_linear_175_194" x1="230.5" y1="987" x2="230.5" y2="1298.38" gradientUnits="userSpaceOnUse">
<stop stop-color="#F7DD43"/>
<stop offset="1" stop-color="#F7DD43" stop-opacity="0"/>
</linearGradient>
<linearGradient id="paint16_linear_175_194" x1="230.5" y1="987" x2="230.5" y2="1298.38" gradientUnits="userSpaceOnUse">
<stop stop-color="#F7DD43"/>
<stop offset="1" stop-color="#F7DD43" stop-opacity="0"/>
</linearGradient>
<linearGradient id="paint17_linear_175_194" x1="230.5" y1="987" x2="230.5" y2="1298.38" gradientUnits="userSpaceOnUse">
<stop stop-color="#F7DD43"/>
<stop offset="1" stop-color="#F7DD43" stop-opacity="0"/>
</linearGradient>
<linearGradient id="paint18_linear_175_194" x1="230.5" y1="987" x2="230.5" y2="1298.38" gradientUnits="userSpaceOnUse">
<stop stop-color="#F7DD43"/>
<stop offset="1" stop-color="#F7DD43" stop-opacity="0"/>
</linearGradient>
<linearGradient id="paint19_linear_175_194" x1="230.5" y1="987" x2="230.5" y2="1298.38" gradientUnits="userSpaceOnUse">
<stop stop-color="#F7DD43"/>
<stop offset="1" stop-color="#F7DD43" stop-opacity="0"/>
</linearGradient>
<linearGradient id="paint20_linear_175_194" x1="230.5" y1="987" x2="230.5" y2="1298.38" gradientUnits="userSpaceOnUse">
<stop stop-color="#F7DD43"/>
<stop offset="1" stop-color="#F7DD43" stop-opacity="0"/>
</linearGradient>
<linearGradient id="paint21_linear_175_194" x1="230.5" y1="987" x2="230.5" y2="1298.38" gradientUnits="userSpaceOnUse">
<stop stop-color="#F7DD43"/>
<stop offset="1" stop-color="#F7DD43" stop-opacity="0"/>
</linearGradient>
<linearGradient id="paint22_linear_175_194" x1="230.5" y1="987" x2="230.5" y2="1298.38" gradientUnits="userSpaceOnUse">
<stop stop-color="#F7DD43"/>
<stop offset="1" stop-color="#F7DD43" stop-opacity="0"/>
</linearGradient>
<linearGradient id="paint23_linear_175_194" x1="230.5" y1="987" x2="230.5" y2="1298.38" gradientUnits="userSpaceOnUse">
<stop stop-color="#F7DD43"/>
<stop offset="1" stop-color="#F7DD43" stop-opacity="0"/>
</linearGradient>
<linearGradient id="paint24_linear_175_194" x1="230.5" y1="987" x2="230.5" y2="1298.38" gradientUnits="userSpaceOnUse">
<stop stop-color="#F7DD43"/>
<stop offset="1" stop-color="#F7DD43" stop-opacity="0"/>
</linearGradient>
<linearGradient id="paint25_linear_175_194" x1="230.5" y1="987" x2="230.5" y2="1298.38" gradientUnits="userSpaceOnUse">
<stop stop-color="#F7DD43"/>
<stop offset="1" stop-color="#F7DD43" stop-opacity="0"/>
</linearGradient>
<linearGradient id="paint26_linear_175_194" x1="230.5" y1="987" x2="230.5" y2="1298.38" gradientUnits="userSpaceOnUse">
<stop stop-color="#F7DD43"/>
<stop offset="1" stop-color="#F7DD43" stop-opacity="0"/>
</linearGradient>
<linearGradient id="paint27_linear_175_194" x1="230.5" y1="987" x2="230.5" y2="1298.38" gradientUnits="userSpaceOnUse">
<stop stop-color="#F7DD43"/>
<stop offset="1" stop-color="#F7DD43" stop-opacity="0"/>
</linearGradient>
<linearGradient id="paint28_linear_175_194" x1="230.5" y1="987" x2="230.5" y2="1298.38" gradientUnits="userSpaceOnUse">
<stop stop-color="#F7DD43"/>
<stop offset="1" stop-color="#F7DD43" stop-opacity="0"/>
</linearGradient>
<linearGradient id="paint29_linear_175_194" x1="230.5" y1="987" x2="230.5" y2="1298.38" gradientUnits="userSpaceOnUse">
<stop stop-color="#F7DD43"/>
<stop offset="1" stop-color="#F7DD43" stop-opacity="0"/>
</linearGradient>
<linearGradient id="paint30_linear_175_194" x1="230.5" y1="987" x2="230.5" y2="1298.38" gradientUnits="userSpaceOnUse">
<stop stop-color="#F7DD43"/>
<stop offset="1" stop-color="#F7DD43" stop-opacity="0"/>
</linearGradient>
<linearGradient id="paint31_linear_175_194" x1="230.5" y1="987" x2="230.5" y2="1298.38" gradientUnits="userSpaceOnUse">
<stop stop-color="#F7DD43"/>
<stop offset="1" stop-color="#F7DD43" stop-opacity="0"/>
</linearGradient>
<linearGradient id="paint32_linear_175_194" x1="230.5" y1="987" x2="230.5" y2="1298.38" gradientUnits="userSpaceOnUse">
<stop stop-color="#F7DD43"/>
<stop offset="1" stop-color="#F7DD43" stop-opacity="0"/>
</linearGradient>
<linearGradient id="paint33_linear_175_194" x1="230.5" y1="987" x2="230.5" y2="1298.38" gradientUnits="userSpaceOnUse">
<stop stop-color="#F7DD43"/>
<stop offset="1" stop-color="#F7DD43" stop-opacity="0"/>
</linearGradient>
<linearGradient id="paint34_linear_175_194" x1="230.5" y1="987" x2="230.5" y2="1298.38" gradientUnits="userSpaceOnUse">
<stop stop-color="#F7DD43"/>
<stop offset="1" stop-color="#F7DD43" stop-opacity="0"/>
</linearGradient>
<linearGradient id="paint35_linear_175_194" x1="230.5" y1="987" x2="230.5" y2="1298.38" gradientUnits="userSpaceOnUse">
<stop stop-color="#F7DD43"/>
<stop offset="1" stop-color="#F7DD43" stop-opacity="0"/>
</linearGradient>
<linearGradient id="paint36_linear_175_194" x1="230.5" y1="987" x2="230.5" y2="1298.38" gradientUnits="userSpaceOnUse">
<stop stop-color="#F7DD43"/>
<stop offset="1" stop-color="#F7DD43" stop-opacity="0"/>
</linearGradient>
<linearGradient id="paint37_linear_175_194" x1="230.5" y1="987" x2="230.5" y2="1298.38" gradientUnits="userSpaceOnUse">
<stop stop-color="#F7DD43"/>
<stop offset="1" stop-color="#F7DD43" stop-opacity="0"/>
</linearGradient>
<linearGradient id="paint38_linear_175_194" x1="230.5" y1="987" x2="230.5" y2="1298.38" gradientUnits="userSpaceOnUse">
<stop stop-color="#F7DD43"/>
<stop offset="1" stop-color="#F7DD43" stop-opacity="0"/>
</linearGradient>
<linearGradient id="paint39_linear_175_194" x1="230.5" y1="987" x2="230.5" y2="1298.38" gradientUnits="userSpaceOnUse">
<stop stop-color="#F7DD43"/>
<stop offset="1" stop-color="#F7DD43" stop-opacity="0"/>
</linearGradient>
<linearGradient id="paint40_linear_175_194" x1="230.5" y1="987" x2="230.5" y2="1298.38" gradientUnits="userSpaceOnUse">
<stop stop-color="#F7DD43"/>
<stop offset="1" stop-color="#F7DD43" stop-opacity="0"/>
</linearGradient>
<linearGradient id="paint41_linear_175_194" x1="230.5" y1="987" x2="230.5" y2="1298.38" gradientUnits="userSpaceOnUse">
<stop stop-color="#F7DD43"/>
<stop offset="1" stop-color="#F7DD43" stop-opacity="0"/>
</linearGradient>
<linearGradient id="paint42_linear_175_194" x1="230.5" y1="987" x2="230.5" y2="1298.38" gradientUnits="userSpaceOnUse">
<stop stop-color="#F7DD43"/>
<stop offset="1" stop-color="#F7DD43" stop-opacity="0"/>
</linearGradient>
<linearGradient id="paint43_linear_175_194" x1="230.5" y1="987" x2="230.5" y2="1298.38" gradientUnits="userSpaceOnUse">
<stop stop-color="#F7DD43"/>
<stop offset="1" stop-color="#F7DD43" stop-opacity="0"/>
</linearGradient>
<linearGradient id="paint44_linear_175_194" x1="230.5" y1="987" x2="230.5" y2="1298.38" gradientUnits="userSpaceOnUse">
<stop stop-color="#F7DD43"/>
<stop offset="1" stop-color="#F7DD43" stop-opacity="0"/>
</linearGradient>
<linearGradient id="paint45_linear_175_194" x1="230.5" y1="987" x2="230.5" y2="1298.38" gradientUnits="userSpaceOnUse">
<stop stop-color="#F7DD43"/>
<stop offset="1" stop-color="#F7DD43" stop-opacity="0"/>
</linearGradient>
<linearGradient id="paint46_linear_175_194" x1="230.5" y1="987" x2="230.5" y2="1298.38" gradientUnits="userSpaceOnUse">
<stop stop-color="#F7DD43"/>
<stop offset="1" stop-color="#F7DD43" stop-opacity="0"/>
</linearGradient>
<linearGradient id="paint47_linear_175_194" x1="1116.5" y1="687" x2="1116.5" y2="985.818" gradientUnits="userSpaceOnUse">
<stop stop-color="#F7DD43"/>
<stop offset="1" stop-color="#F7DD43" stop-opacity="0"/>
</linearGradient>
<linearGradient id="paint48_linear_175_194" x1="1116.5" y1="687" x2="1116.5" y2="985.818" gradientUnits="userSpaceOnUse">
<stop stop-color="#F7DD43"/>
<stop offset="1" stop-color="#F7DD43" stop-opacity="0"/>
</linearGradient>
<linearGradient id="paint49_linear_175_194" x1="1116.5" y1="687" x2="1116.5" y2="985.818" gradientUnits="userSpaceOnUse">
<stop stop-color="#F7DD43"/>
<stop offset="1" stop-color="#F7DD43" stop-opacity="0"/>
</linearGradient>
<linearGradient id="paint50_linear_175_194" x1="1116.5" y1="687" x2="1116.5" y2="985.818" gradientUnits="userSpaceOnUse">
<stop stop-color="#F7DD43"/>
<stop offset="1" stop-color="#F7DD43" stop-opacity="0"/>
</linearGradient>
<linearGradient id="paint51_linear_175_194" x1="1116.5" y1="687" x2="1116.5" y2="985.818" gradientUnits="userSpaceOnUse">
<stop stop-color="#F7DD43"/>
<stop offset="1" stop-color="#F7DD43" stop-opacity="0"/>
</linearGradient>
<linearGradient id="paint52_linear_175_194" x1="1116.5" y1="687" x2="1116.5" y2="985.818" gradientUnits="userSpaceOnUse">
<stop stop-color="#F7DD43"/>
<stop offset="1" stop-color="#F7DD43" stop-opacity="0"/>
</linearGradient>
<linearGradient id="paint53_linear_175_194" x1="1116.5" y1="687" x2="1116.5" y2="985.818" gradientUnits="userSpaceOnUse">
<stop stop-color="#F7DD43"/>
<stop offset="1" stop-color="#F7DD43" stop-opacity="0"/>
</linearGradient>
<linearGradient id="paint54_linear_175_194" x1="1116.5" y1="687" x2="1116.5" y2="985.818" gradientUnits="userSpaceOnUse">
<stop stop-color="#F7DD43"/>
<stop offset="1" stop-color="#F7DD43" stop-opacity="0"/>
</linearGradient>
<linearGradient id="paint55_linear_175_194" x1="1116.5" y1="687" x2="1116.5" y2="985.818" gradientUnits="userSpaceOnUse">
<stop stop-color="#F7DD43"/>
<stop offset="1" stop-color="#F7DD43" stop-opacity="0"/>
</linearGradient>
<linearGradient id="paint56_linear_175_194" x1="1116.5" y1="687" x2="1116.5" y2="985.818" gradientUnits="userSpaceOnUse">
<stop stop-color="#F7DD43"/>
<stop offset="1" stop-color="#F7DD43" stop-opacity="0"/>
</linearGradient>
<linearGradient id="paint57_linear_175_194" x1="1116.5" y1="687" x2="1116.5" y2="985.818" gradientUnits="userSpaceOnUse">
<stop stop-color="#F7DD43"/>
<stop offset="1" stop-color="#F7DD43" stop-opacity="0"/>
</linearGradient>
<linearGradient id="paint58_linear_175_194" x1="1116.5" y1="687" x2="1116.5" y2="985.818" gradientUnits="userSpaceOnUse">
<stop stop-color="#F7DD43"/>
<stop offset="1" stop-color="#F7DD43" stop-opacity="0"/>
</linearGradient>
<linearGradient id="paint59_linear_175_194" x1="1116.5" y1="687" x2="1116.5" y2="985.818" gradientUnits="userSpaceOnUse">
<stop stop-color="#F7DD43"/>
<stop offset="1" stop-color="#F7DD43" stop-opacity="0"/>
</linearGradient>
<linearGradient id="paint60_linear_175_194" x1="1116.5" y1="687" x2="1116.5" y2="985.818" gradientUnits="userSpaceOnUse">
<stop stop-color="#F7DD43"/>
<stop offset="1" stop-color="#F7DD43" stop-opacity="0"/>
</linearGradient>
<linearGradient id="paint61_linear_175_194" x1="1116.5" y1="687" x2="1116.5" y2="985.818" gradientUnits="userSpaceOnUse">
<stop stop-color="#F7DD43"/>
<stop offset="1" stop-color="#F7DD43" stop-opacity="0"/>
</linearGradient>
<linearGradient id="paint62_linear_175_194" x1="1116.5" y1="687" x2="1116.5" y2="985.818" gradientUnits="userSpaceOnUse">
<stop stop-color="#F7DD43"/>
<stop offset="1" stop-color="#F7DD43" stop-opacity="0"/>
</linearGradient>
<linearGradient id="paint63_linear_175_194" x1="1116.5" y1="687" x2="1116.5" y2="985.818" gradientUnits="userSpaceOnUse">
<stop stop-color="#F7DD43"/>
<stop offset="1" stop-color="#F7DD43" stop-opacity="0"/>
</linearGradient>
<linearGradient id="paint64_linear_175_194" x1="1116.5" y1="687" x2="1116.5" y2="985.818" gradientUnits="userSpaceOnUse">
<stop stop-color="#F7DD43"/>
<stop offset="1" stop-color="#F7DD43" stop-opacity="0"/>
</linearGradient>
<linearGradient id="paint65_linear_175_194" x1="1116.5" y1="687" x2="1116.5" y2="985.818" gradientUnits="userSpaceOnUse">
<stop stop-color="#F7DD43"/>
<stop offset="1" stop-color="#F7DD43" stop-opacity="0"/>
</linearGradient>
<linearGradient id="paint66_linear_175_194" x1="1116.5" y1="687" x2="1116.5" y2="985.818" gradientUnits="userSpaceOnUse">
<stop stop-color="#F7DD43"/>
<stop offset="1" stop-color="#F7DD43" stop-opacity="0"/>
</linearGradient>
<linearGradient id="paint67_linear_175_194" x1="1116.5" y1="687" x2="1116.5" y2="985.818" gradientUnits="userSpaceOnUse">
<stop stop-color="#F7DD43"/>
<stop offset="1" stop-color="#F7DD43" stop-opacity="0"/>
</linearGradient>
<linearGradient id="paint68_linear_175_194" x1="1116.5" y1="687" x2="1116.5" y2="985.818" gradientUnits="userSpaceOnUse">
<stop stop-color="#F7DD43"/>
<stop offset="1" stop-color="#F7DD43" stop-opacity="0"/>
</linearGradient>
<linearGradient id="paint69_linear_175_194" x1="1116.5" y1="687" x2="1116.5" y2="985.818" gradientUnits="userSpaceOnUse">
<stop stop-color="#F7DD43"/>
<stop offset="1" stop-color="#F7DD43" stop-opacity="0"/>
</linearGradient>
<linearGradient id="paint70_linear_175_194" x1="1116.5" y1="687" x2="1116.5" y2="985.818" gradientUnits="userSpaceOnUse">
<stop stop-color="#F7DD43"/>
<stop offset="1" stop-color="#F7DD43" stop-opacity="0"/>
</linearGradient>
<linearGradient id="paint71_linear_175_194" x1="1116.5" y1="687" x2="1116.5" y2="985.818" gradientUnits="userSpaceOnUse">
<stop stop-color="#F7DD43"/>
<stop offset="1" stop-color="#F7DD43" stop-opacity="0"/>
</linearGradient>
<linearGradient id="paint72_linear_175_194" x1="1116.5" y1="687" x2="1116.5" y2="985.818" gradientUnits="userSpaceOnUse">
<stop stop-color="#F7DD43"/>
<stop offset="1" stop-color="#F7DD43" stop-opacity="0"/>
</linearGradient>
<linearGradient id="paint73_linear_175_194" x1="1116.5" y1="687" x2="1116.5" y2="985.818" gradientUnits="userSpaceOnUse">
<stop stop-color="#F7DD43"/>
<stop offset="1" stop-color="#F7DD43" stop-opacity="0"/>
</linearGradient>
<linearGradient id="paint74_linear_175_194" x1="1116.5" y1="687" x2="1116.5" y2="985.818" gradientUnits="userSpaceOnUse">
<stop stop-color="#F7DD43"/>
<stop offset="1" stop-color="#F7DD43" stop-opacity="0"/>
</linearGradient>
<linearGradient id="paint75_linear_175_194" x1="1116.5" y1="687" x2="1116.5" y2="985.818" gradientUnits="userSpaceOnUse">
<stop stop-color="#F7DD43"/>
<stop offset="1" stop-color="#F7DD43" stop-opacity="0"/>
</linearGradient>
<linearGradient id="paint76_linear_175_194" x1="1116.5" y1="687" x2="1116.5" y2="985.818" gradientUnits="userSpaceOnUse">
<stop stop-color="#F7DD43"/>
<stop offset="1" stop-color="#F7DD43" stop-opacity="0"/>
</linearGradient>
<linearGradient id="paint77_linear_175_194" x1="1116.5" y1="687" x2="1116.5" y2="985.818" gradientUnits="userSpaceOnUse">
<stop stop-color="#F7DD43"/>
<stop offset="1" stop-color="#F7DD43" stop-opacity="0"/>
</linearGradient>
<linearGradient id="paint78_linear_175_194" x1="1116.5" y1="687" x2="1116.5" y2="985.818" gradientUnits="userSpaceOnUse">
<stop stop-color="#F7DD43"/>
<stop offset="1" stop-color="#F7DD43" stop-opacity="0"/>
</linearGradient>
<linearGradient id="paint79_linear_175_194" x1="1116.5" y1="687" x2="1116.5" y2="985.818" gradientUnits="userSpaceOnUse">
<stop stop-color="#F7DD43"/>
<stop offset="1" stop-color="#F7DD43" stop-opacity="0"/>
</linearGradient>
<linearGradient id="paint80_linear_175_194" x1="1116.5" y1="687" x2="1116.5" y2="985.818" gradientUnits="userSpaceOnUse">
<stop stop-color="#F7DD43"/>
<stop offset="1" stop-color="#F7DD43" stop-opacity="0"/>
</linearGradient>
<linearGradient id="paint81_linear_175_194" x1="1116.5" y1="687" x2="1116.5" y2="985.818" gradientUnits="userSpaceOnUse">
<stop stop-color="#F7DD43"/>
<stop offset="1" stop-color="#F7DD43" stop-opacity="0"/>
</linearGradient>
<linearGradient id="paint82_linear_175_194" x1="1116.5" y1="687" x2="1116.5" y2="985.818" gradientUnits="userSpaceOnUse">
<stop stop-color="#F7DD43"/>
<stop offset="1" stop-color="#F7DD43" stop-opacity="0"/>
</linearGradient>
<linearGradient id="paint83_linear_175_194" x1="1116.5" y1="687" x2="1116.5" y2="985.818" gradientUnits="userSpaceOnUse">
<stop stop-color="#F7DD43"/>
<stop offset="1" stop-color="#F7DD43" stop-opacity="0"/>
</linearGradient>
<linearGradient id="paint84_linear_175_194" x1="1116.5" y1="687" x2="1116.5" y2="985.818" gradientUnits="userSpaceOnUse">
<stop stop-color="#F7DD43"/>
<stop offset="1" stop-color="#F7DD43" stop-opacity="0"/>
</linearGradient>
<linearGradient id="paint85_linear_175_194" x1="1116.5" y1="687" x2="1116.5" y2="985.818" gradientUnits="userSpaceOnUse">
<stop stop-color="#F7DD43"/>
<stop offset="1" stop-color="#F7DD43" stop-opacity="0"/>
</linearGradient>
<linearGradient id="paint86_linear_175_194" x1="1116.5" y1="687" x2="1116.5" y2="985.818" gradientUnits="userSpaceOnUse">
<stop stop-color="#F7DD43"/>
<stop offset="1" stop-color="#F7DD43" stop-opacity="0"/>
</linearGradient>
<linearGradient id="paint87_linear_175_194" x1="1116.5" y1="687" x2="1116.5" y2="985.818" gradientUnits="userSpaceOnUse">
<stop stop-color="#F7DD43"/>
<stop offset="1" stop-color="#F7DD43" stop-opacity="0"/>
</linearGradient>
<linearGradient id="paint88_linear_175_194" x1="1116.5" y1="687" x2="1116.5" y2="985.818" gradientUnits="userSpaceOnUse">
<stop stop-color="#F7DD43"/>
<stop offset="1" stop-color="#F7DD43" stop-opacity="0"/>
</linearGradient>
<linearGradient id="paint89_linear_175_194" x1="1116.5" y1="687" x2="1116.5" y2="985.818" gradientUnits="userSpaceOnUse">
<stop stop-color="#F7DD43"/>
<stop offset="1" stop-color="#F7DD43" stop-opacity="0"/>
</linearGradient>
<linearGradient id="paint90_linear_175_194" x1="1116.5" y1="687" x2="1116.5" y2="985.818" gradientUnits="userSpaceOnUse">
<stop stop-color="#F7DD43"/>
<stop offset="1" stop-color="#F7DD43" stop-opacity="0"/>
</linearGradient>
<linearGradient id="paint91_linear_175_194" x1="1116.5" y1="687" x2="1116.5" y2="985.818" gradientUnits="userSpaceOnUse">
<stop stop-color="#F7DD43"/>
<stop offset="1" stop-color="#F7DD43" stop-opacity="0"/>
</linearGradient>
<linearGradient id="paint92_linear_175_194" x1="1116.5" y1="687" x2="1116.5" y2="985.818" gradientUnits="userSpaceOnUse">
<stop stop-color="#F7DD43"/>
<stop offset="1" stop-color="#F7DD43" stop-opacity="0"/>
</linearGradient>
<linearGradient id="paint93_linear_175_194" x1="1116.5" y1="687" x2="1116.5" y2="985.818" gradientUnits="userSpaceOnUse">
<stop stop-color="#F7DD43"/>
<stop offset="1" stop-color="#F7DD43" stop-opacity="0"/>
</linearGradient>
</defs>
</svg>
