<svg width="512" height="512" viewBox="0 0 512 512" fill="none" xmlns="http://www.w3.org/2000/svg">
<g clip-path="url(#clip0_105_2407)">
<path d="M111.713 467.478C152.799 495.563 202.476 512 256 512C309.524 512 359.202 495.563 400.287 467.478L256 445.217L111.713 467.478Z" fill="#D80027"/>
<path d="M400.287 44.522C359.202 16.437 309.524 0 256 0C202.476 0 152.797 16.437 111.713 44.522L256 66.783L400.287 44.522Z" fill="#D80027"/>
<path d="M111.713 467.478C152.799 495.563 202.476 512 256 512C309.524 512 359.202 495.563 400.287 467.478L256 445.217L111.713 467.478Z" fill="#D80027"/>
<path d="M400.287 44.522C359.202 16.437 309.524 0 256 0C202.476 0 152.797 16.437 111.713 44.522L256 66.783L400.287 44.522Z" fill="#D80027"/>
<path d="M511.348 239.304C505.283 160.294 457.276 83.478 400.287 44.521H111.713C48.5771 87.682 5.75009 158.37 0.538086 239.304L256 256L511.348 239.304Z" fill="#0052B4"/>
<path d="M0.538086 272.696C5.75009 353.631 48.5761 424.318 111.712 467.479H400.286C463.425 424.319 506.249 353.631 511.461 272.696L256 256L0.538086 272.696Z" fill="#0052B4"/>
<path d="M511.348 239.303H272.696V33.391H239.305V239.303H0.539C0.184 244.823 0 250.39 0 256C0 261.609 0.183 267.175 0.538 272.695H239.305V478.609H272.696V272.695H511.463C511.817 267.175 512 261.609 512 256C512 250.431 511.775 244.862 511.348 239.303Z" fill="#D80027"/>
<path d="M100.174 256L255.999 158.058L411.826 256L255.999 353.943L100.174 256Z" fill="#F0F0F0"/>
<path d="M166.957 300.522H367.304L322.783 233.739L300.522 256L278.261 244.87L256 278.261H211.478L189.217 256L166.957 300.522Z" fill="#6DA544"/>
<path d="M256 189.217L261.526 206.222H279.405L264.94 216.733L270.466 233.739L256 223.229L241.534 233.739L247.06 216.733L232.595 206.222H250.474L256 189.217Z" fill="#FFDA44"/>
<path d="M255.999 130.074L55.6523 256L255.999 381.926L456.348 256L255.999 130.074ZM118.4 256L255.999 169.513L393.6 256L255.999 342.487L118.4 256Z" fill="#D80027"/>
</g>
<defs>
<clipPath id="clip0_105_2407">
<rect width="512" height="512" fill="white"/>
</clipPath>
</defs>
</svg>
