<svg width="513" height="512" viewBox="0 0 513 512" fill="none" xmlns="http://www.w3.org/2000/svg">
<g clip-path="url(#clip0_105_2576)">
<path d="M256.578 512C397.963 512 512.578 397.385 512.578 256C512.578 114.615 397.963 0 256.578 0C115.193 0 0.578125 114.615 0.578125 256C0.578125 397.385 115.193 512 256.578 512Z" fill="#F0F0F0"/>
<path d="M256.578 0C146.507 0 52.672 69.472 16.501 166.957H496.656C460.484 69.472 366.649 0 256.578 0Z" fill="#D80027"/>
<path d="M256.578 512C366.649 512 460.484 442.528 496.655 345.043H16.501C52.672 442.528 146.507 512 256.578 512Z" fill="black"/>
<path d="M153.54 194.783L167.353 237.295H212.056L175.891 263.573L189.705 306.087L153.54 279.812L117.375 306.087L131.189 263.573L95.0244 237.295H139.727L153.54 194.783Z" fill="#6DA544"/>
<path d="M359.617 194.783L373.43 237.295H418.134L381.968 263.573L395.782 306.087L359.617 279.812L323.452 306.087L337.266 263.573L301.101 237.295H345.804L359.617 194.783Z" fill="#6DA544"/>
</g>
<defs>
<clipPath id="clip0_105_2576">
<rect width="512" height="512" fill="white" transform="translate(0.578125)"/>
</clipPath>
</defs>
</svg>
