<svg width="512" height="512" viewBox="0 0 512 512" fill="none" xmlns="http://www.w3.org/2000/svg">
<g clip-path="url(#clip0_105_1212)">
<path d="M256 512C397.385 512 512 397.385 512 256C512 114.615 397.385 0 256 0C114.615 0 0 114.615 0 256C0 397.385 114.615 512 256 512Z" fill="#F0F0F0"/>
<path d="M256 0C185.307 0 121.307 28.654 74.98 74.98L256 256V0Z" fill="black"/>
<path d="M0 256C0 326.693 28.654 390.693 74.98 437.02L256 256H0Z" fill="black"/>
<path d="M256 512C326.693 512 390.693 483.346 437.02 437.02L256 256V512Z" fill="black"/>
<path d="M512 256C512 185.307 483.346 121.307 437.02 74.98L256 256H512Z" fill="black"/>
<path d="M166.957 178.087L256 189.22L345.043 178.087V124.661L309.426 142.47L256 89.043L202.574 142.47L166.957 124.661V178.087Z" fill="#FFDA44"/>
<path d="M256 389.565C206.901 389.565 166.957 349.62 166.957 300.522V211.483L200.348 178.089H311.652L345.043 211.483V300.522C345.043 349.62 305.099 389.565 256 389.565Z" fill="#D80027"/>
<path d="M256 356.174C225.313 356.174 200.348 331.208 200.348 300.522V211.48H311.652V300.521C311.652 331.208 286.687 356.174 256 356.174Z" fill="#F0F0F0"/>
<path d="M166.957 178.087H200.348V211.478H166.957V178.087Z" fill="#FFDA44"/>
<path d="M311.652 178.087H345.043V211.478H311.652V178.087Z" fill="#FFDA44"/>
<path d="M311.652 250.435H345.043V283.826H311.652V250.435Z" fill="#FFDA44"/>
<path d="M166.957 250.435H200.348V283.826H166.957V250.435Z" fill="#FFDA44"/>
<path d="M256 356.174C250.184 356.174 244.577 355.274 239.304 353.612V387.973C244.716 389.005 250.292 389.566 256 389.566C261.708 389.566 267.284 389.005 272.696 387.973V353.612C267.423 355.273 261.816 356.174 256 356.174Z" fill="#FFDA44"/>
<path d="M201.092 309.556L174.444 336.204C179.064 346.723 185.656 356.182 193.758 364.112L217.358 340.512C208.936 332.375 203.069 321.615 201.092 309.556Z" fill="#FFDA44"/>
<path d="M337.556 336.206L310.908 309.558C308.93 321.616 303.064 332.375 294.643 340.515L318.243 364.115C326.343 356.184 332.936 346.725 337.556 336.206Z" fill="#FFDA44"/>
<path d="M244.87 230.03V248.58C244.87 254.726 249.853 259.71 256 259.71C262.147 259.71 267.13 254.726 267.13 248.58V230.03H244.87Z" fill="#0052B4"/>
<path d="M244.87 304.233V322.783C244.87 328.929 249.853 333.913 256 333.913C262.147 333.913 267.13 328.929 267.13 322.783V304.233H244.87Z" fill="#0052B4"/>
<path d="M278.261 267.13V285.682C278.261 291.828 283.244 296.812 289.391 296.812C295.538 296.812 300.521 291.828 300.521 285.682V267.13H278.261Z" fill="#0052B4"/>
<path d="M244.87 267.13V285.682C244.87 291.828 249.853 296.812 256 296.812C262.147 296.812 267.13 291.828 267.13 285.682V267.13H244.87Z" fill="#0052B4"/>
<path d="M211.478 267.13V285.682C211.478 291.828 216.461 296.812 222.608 296.812C228.755 296.812 233.738 291.828 233.738 285.682V267.13H211.478Z" fill="#0052B4"/>
</g>
<defs>
<clipPath id="clip0_105_1212">
<rect width="512" height="512" fill="white"/>
</clipPath>
</defs>
</svg>
