<svg width="512" height="512" viewBox="0 0 512 512" fill="none" xmlns="http://www.w3.org/2000/svg">
<g clip-path="url(#clip0_105_2340)">
<path d="M256 512.001C397.385 512.001 512 397.386 512 256.001C512 114.616 397.385 0.000976562 256 0.000976562C114.615 0.000976562 0 114.616 0 256.001C0 397.386 114.615 512.001 256 512.001Z" fill="#F0F0F0"/>
<path d="M509.833 222.61H289.393H289.392V2.16798C278.461 0.744977 267.317 0.000976562 256 0.000976562C244.683 0.000976562 233.539 0.744977 222.609 2.16798V222.608V222.609H2.167C0.744 233.54 0 244.684 0 256.001C0 267.318 0.744 278.462 2.167 289.392H222.607H222.608V509.834C233.539 511.257 244.683 512.001 256 512.001C267.317 512.001 278.461 511.258 289.391 509.834V289.395V289.393H509.833C511.256 278.462 512 267.318 512 256.001C512 244.684 511.256 233.54 509.833 222.61Z" fill="#D80027"/>
<path d="M378.435 89.0439C357.689 89.0439 340.258 103.233 335.316 122.435L378.435 133.565L421.554 122.435C416.612 103.234 399.181 89.0439 378.435 89.0439Z" fill="black"/>
<path d="M333.913 189.218L389.565 200.348V176.685C405.21 172.657 417.524 160.34 421.551 144.696L378.435 133.566H322.783L333.913 166.957V189.218Z" fill="black"/>
<path d="M421.554 122.436H322.783V144.697V166.958H333.913V144.697H421.551C422.467 141.14 422.957 137.41 422.957 133.567C422.957 129.723 422.47 125.993 421.554 122.436Z" fill="#ACABB1"/>
<path d="M144.696 89.0439C123.95 89.0439 106.519 103.233 101.577 122.435L144.696 133.565L187.815 122.435C182.873 103.234 165.442 89.0439 144.696 89.0439Z" fill="black"/>
<path d="M100.174 189.218L155.826 200.348V176.685C171.471 172.657 183.785 160.34 187.812 144.696L144.696 133.566H89.043L100.173 166.957V189.218H100.174Z" fill="black"/>
<path d="M187.815 122.436H89.043V144.697V166.958H100.173V144.697H187.811C188.727 141.14 189.217 137.41 189.217 133.567C189.217 129.723 188.731 125.993 187.815 122.436Z" fill="#ACABB1"/>
<path d="M378.435 311.653C357.689 311.653 340.258 325.842 335.316 345.044L378.435 356.174L421.554 345.044C416.612 325.842 399.181 311.653 378.435 311.653Z" fill="black"/>
<path d="M333.913 411.827L389.565 422.957V399.294C405.21 395.266 417.524 382.949 421.551 367.305L378.435 356.175H322.783L333.913 389.566V411.827Z" fill="black"/>
<path d="M421.554 345.044H322.783V367.305V389.566H333.913V367.305H421.551C422.467 363.748 422.957 360.018 422.957 356.175C422.957 352.332 422.47 348.602 421.554 345.044Z" fill="#ACABB1"/>
<path d="M144.696 311.653C123.95 311.653 106.519 325.842 101.577 345.044L144.696 356.174L187.815 345.044C182.873 325.842 165.442 311.653 144.696 311.653Z" fill="black"/>
<path d="M100.174 411.827L155.826 422.957V399.294C171.471 395.266 183.785 382.949 187.812 367.305L144.696 356.175H89.043L100.173 389.566V411.827H100.174Z" fill="black"/>
<path d="M187.815 345.044H89.043V367.305V389.566H100.173V367.305H187.811C188.727 363.748 189.217 360.018 189.217 356.175C189.217 352.332 188.731 348.602 187.815 345.044Z" fill="#ACABB1"/>
</g>
<defs>
<clipPath id="clip0_105_2340">
<rect width="512" height="512" fill="white" transform="translate(0 0.000976562)"/>
</clipPath>
</defs>
</svg>
