<svg width="512" height="512" viewBox="0 0 512 512" fill="none" xmlns="http://www.w3.org/2000/svg">
<g clip-path="url(#clip0_105_760)">
<path d="M256 512C397.385 512 512 397.385 512 256C512 114.615 397.385 0 256 0C114.615 0 0 114.615 0 256C0 397.385 114.615 512 256 512Z" fill="#F0F0F0"/>
<path d="M435.138 73.144C388.965 27.904 325.747 0 256 0C233.739 0 168.606 27.904 122.435 73.144H435.138Z" fill="#6DA544"/>
<path d="M256 219.429H509.388C505.694 193.604 498.151 169.024 487.35 146.286H244.87L256 219.429Z" fill="#6DA544"/>
<path d="M24.6508 365.715H487.349C498.151 342.978 505.694 318.396 509.388 292.571H2.61182C6.30682 318.397 13.8478 342.979 24.6508 365.715Z" fill="#6DA544"/>
<path d="M76.8618 438.856C123.035 484.096 186.253 512 256 512C325.747 512 388.965 484.096 435.138 438.856H76.8618Z" fill="#6DA544"/>
<path d="M256 0C127.034 0 20.3598 95.371 2.61182 219.429H256V0Z" fill="#D80027"/>
<path d="M128 196.267L116.87 174.007V129.485L144.696 107.224L172.522 129.485V162.876L183.652 151.746V174.007L161.391 196.267H128Z" fill="#F0F0F0"/>
<path d="M68.1349 128L71.0819 137.07H80.6179L72.9029 142.677L75.8509 151.746L68.1349 146.14L60.4189 151.746L63.3669 142.677L55.6519 137.07H65.1879L68.1349 128Z" fill="#F0F0F0"/>
<path d="M90.3961 105.739L93.3431 114.809H102.88L95.1641 120.416L98.1111 129.485L90.3961 123.88L82.6811 129.485L85.6291 120.416L77.9131 114.809H87.4481L90.3961 105.739Z" fill="#F0F0F0"/>
<path d="M112.657 83.478L115.604 92.548H125.139L117.425 98.155L120.371 107.224L112.657 101.619L104.941 107.224L107.888 98.155L100.174 92.548H109.709L112.657 83.478Z" fill="#F0F0F0"/>
<path d="M221.256 128L218.309 137.07H208.774L216.488 142.677L213.541 151.746L221.256 146.14L228.972 151.746L226.025 142.677L233.739 137.07H224.204L221.256 128Z" fill="#F0F0F0"/>
<path d="M198.995 105.739L196.048 114.809H186.513L194.227 120.416L191.28 129.485L198.995 123.88L206.711 129.485L203.763 120.416L211.478 114.809H201.943L198.995 105.739Z" fill="#F0F0F0"/>
<path d="M176.735 83.478L173.787 92.548H164.252L171.966 98.155L169.019 107.224L176.735 101.619L184.45 107.224L181.503 98.155L189.217 92.548H179.682L176.735 83.478Z" fill="#F0F0F0"/>
<path d="M144.696 72.3481L141.748 81.4181H132.213L139.927 87.0241L136.98 96.0931L144.696 90.4881L152.411 96.0931L149.464 87.0241L157.178 81.4181H147.643L144.696 72.3481Z" fill="#F0F0F0"/>
</g>
<defs>
<clipPath id="clip0_105_760">
<rect width="512" height="512" fill="white"/>
</clipPath>
</defs>
</svg>
