<svg width="512" height="512" viewBox="0 0 512 512" fill="none" xmlns="http://www.w3.org/2000/svg">
<g clip-path="url(#clip0_105_1624)">
<path d="M256 0C232.894 0 210.51 3.08 189.217 8.819L166.957 256L189.218 503.181C210.51 508.92 232.894 512 256 512C397.384 512 512 397.384 512 256C512 114.616 397.384 0 256 0Z" fill="#FFDA44"/>
<path d="M166.957 256L189.218 503.181C210.51 508.92 232.894 512 256 512C397.384 512 512 397.384 512 256H166.957Z" fill="#6DA544"/>
<path d="M0 256C0 353.035 53.99 437.455 133.565 480.873V31.1272C53.99 74.5452 0 158.965 0 256Z" fill="#D80027"/>
<path d="M0 256C0 374.279 80.221 473.805 189.217 503.181V8.81909C80.221 38.1951 0 137.721 0 256Z" fill="#D80027"/>
<path d="M96.736 189.217L113.311 240.233H166.957L123.559 271.765L140.133 322.783L96.736 291.252L53.337 322.783L69.915 271.765L26.517 240.233H80.16L96.736 189.217Z" fill="black"/>
</g>
<defs>
<clipPath id="clip0_105_1624">
<rect width="512" height="512" fill="white"/>
</clipPath>
</defs>
</svg>
