<svg width="512" height="512" viewBox="0 0 512 512" fill="none" xmlns="http://www.w3.org/2000/svg">
<g clip-path="url(#clip0_105_947)">
<path d="M256 512C397.385 512 512 397.385 512 256C512 114.615 397.385 0 256 0C114.615 0 0 114.615 0 256C0 397.385 114.615 512 256 512Z" fill="#FCFCFC"/>
<path d="M105.739 237.449L77.9131 186.966L105.739 137.275L133.565 186.966L105.739 237.449Z" fill="#A2001D"/>
<path d="M50.0872 237.449L22.2612 186.966L50.0872 137.275L77.9132 186.966L50.0872 237.449Z" fill="#A2001D"/>
<path d="M105.739 374.725L77.9131 324.242L105.739 274.551L133.565 324.242L105.739 374.725Z" fill="#A2001D"/>
<path d="M50.0872 374.725L22.2612 324.242L50.0872 274.551L77.9132 324.242L50.0872 374.725Z" fill="#A2001D"/>
<path d="M133.565 49.692L125.687 35.624C111.557 43.996 98.3043 53.689 86.0933 64.533L105.739 100.174L133.565 49.692Z" fill="#A2001D"/>
<path d="M105.739 411.826L85.8853 447.282C98.0853 458.14 111.329 467.848 125.453 476.237L133.566 461.518L105.739 411.826Z" fill="#A2001D"/>
<path d="M155.826 322.783V491.646C186.595 504.743 220.448 512 256 512C366.071 512 459.906 442.528 496.077 345.043L155.826 322.783Z" fill="#6DA544"/>
<path d="M496.077 345.043C506.368 317.31 512 287.314 512 256C512 114.616 397.384 0 256 0C220.451 0 186.595 7.253 155.826 20.348V345.044H496.077V345.043Z" fill="#A2001D"/>
</g>
<defs>
<clipPath id="clip0_105_947">
<rect width="512" height="512" fill="white"/>
</clipPath>
</defs>
</svg>
