<svg width="512" height="512" viewBox="0 0 512 512" fill="none" xmlns="http://www.w3.org/2000/svg">
<g clip-path="url(#clip0_105_1333)">
<path d="M0.001 44.522H0V467.478H0.001V256.001V44.522Z" fill="#FF9811"/>
<path d="M255.999 511.999C397.383 511.999 511.998 397.384 511.998 256C511.998 114.616 397.383 0.00100708 255.999 0.00100708C114.615 0.00100708 0 114.616 0 256C0 397.384 114.615 511.999 255.999 511.999Z" fill="#F0F0F0"/>
<path d="M256.001 0.0019989C172.249 0.0019989 97.8949 40.225 51.1899 102.402H460.811C414.107 40.224 339.752 0.0019989 256.001 0.0019989Z" fill="#0052B4"/>
<path d="M256.001 511.999C339.753 511.999 414.107 471.776 460.812 409.599H51.1899C97.8939 471.777 172.249 511.999 256.001 511.999Z" fill="#0052B4"/>
<path d="M0.000976562 256.001C0.000976562 273.536 1.76898 290.658 5.12798 307.201H506.875C510.234 290.658 512.001 273.536 512.001 256.001C512.001 238.466 510.233 221.344 506.875 204.801H5.12798C1.76898 221.344 0.000976562 238.466 0.000976562 256.001Z" fill="#0052B4"/>
<path d="M74.9812 74.982C-24.9918 174.955 -24.9918 337.046 74.9812 437.021C116.294 395.708 156.026 355.975 256 256.002L74.9812 74.982Z" fill="#D80027"/>
<path d="M103.611 189.219L120.185 240.234H173.831L130.434 271.766L147.008 322.782L103.611 291.252L60.2121 322.782L76.7901 271.766L33.3921 240.234H87.0341L103.611 189.219Z" fill="#F0F0F0"/>
</g>
<defs>
<clipPath id="clip0_105_1333">
<rect width="512" height="512" fill="white"/>
</clipPath>
</defs>
</svg>
