<svg width="512" height="512" viewBox="0 0 512 512" fill="none" xmlns="http://www.w3.org/2000/svg">
<g clip-path="url(#clip0_105_2650)">
<path d="M503.181 189.217C473.805 80.221 374.279 0 256 0C137.721 0 38.1953 80.221 8.81934 189.217L256 200.348L503.181 189.217Z" fill="#A2001D"/>
<path d="M8.81934 322.783C38.1953 431.778 137.721 512 256 512C374.279 512 473.805 431.779 503.181 322.783L256 311.652L8.81934 322.783Z" fill="#A2001D"/>
<path d="M503.181 189.217H8.819C3.08 210.51 0 232.893 0 256C0 279.107 3.08 301.49 8.819 322.783H503.182C508.92 301.49 512 279.107 512 256C512 232.893 508.92 210.51 503.181 189.217Z" fill="#6DA544"/>
</g>
<defs>
<clipPath id="clip0_105_2650">
<rect width="512" height="512" fill="white"/>
</clipPath>
</defs>
</svg>
