<svg width="512" height="512" viewBox="0 0 512 512" fill="none" xmlns="http://www.w3.org/2000/svg">
<g clip-path="url(#clip0_105_2637)">
<path d="M256 512C397.385 512 512 397.385 512 256C512 114.615 397.385 0 256 0C114.615 0 0 114.615 0 256C0 397.385 114.615 512 256 512Z" fill="#FFDA44"/>
<path d="M411.826 122.435C409.53 133.47 408.487 145.223 408.487 156.939C408.487 224.473 448.746 282.924 506.441 309.237C510.074 292.061 512 274.256 512 256C512 114.616 397.384 0 256 0C114.616 0 0 114.616 0 256C0 397.384 114.616 512 256 512C343.682 512 421.058 467.908 467.196 400.696H144.696V367.305H486.598C490.097 360.069 493.258 352.64 496.078 345.044H144.696L411.826 122.435Z" fill="#0052B4"/>
<path d="M188.072 133.565L193.598 150.571H211.478L197.013 161.082L202.539 178.087L188.072 167.578L173.607 178.087L179.132 161.082L164.665 150.571H182.546L188.072 133.565Z" fill="#F0F0F0"/>
<path d="M115.438 256L122.346 277.259H144.696L126.613 290.394L133.521 311.652L115.438 298.514L97.3557 311.652L104.263 290.394L86.1807 277.259H108.531L115.438 256Z" fill="#F0F0F0"/>
<path d="M115.438 77.9131L122.346 99.1721H144.696L126.613 112.307L133.521 133.565L115.438 120.427L97.3557 133.565L104.263 112.307L86.1807 99.1721H108.531L115.438 77.9131Z" fill="#F0F0F0"/>
<path d="M59.7858 178.087L66.6938 199.346H89.0428L70.9608 212.481L77.8688 233.739L59.7858 220.601L41.7038 233.739L48.6108 212.481L30.5288 199.346H52.8778L59.7858 178.087Z" fill="#F0F0F0"/>
</g>
<defs>
<clipPath id="clip0_105_2637">
<rect width="512" height="512" fill="white"/>
</clipPath>
</defs>
</svg>
