<svg width="512" height="512" viewBox="0 0 512 512" fill="none" xmlns="http://www.w3.org/2000/svg">
<g clip-path="url(#clip0_105_1782)">
<path d="M256 512C397.385 512 512 397.385 512 256C512 114.615 397.385 0 256 0C114.615 0 0 114.615 0 256C0 397.385 114.615 512 256 512Z" fill="#0052B4"/>
<path d="M112.449 155.827L117.975 172.835H135.855L121.39 183.344L126.915 200.349L112.449 189.84L97.982 200.349L103.509 183.344L89.043 172.835H106.922L112.449 155.827Z" fill="#F0F0F0"/>
<path d="M168.101 139.132L173.627 156.139H191.507L177.042 166.648L182.567 183.653L168.101 173.144L153.635 183.653L159.161 166.648L144.696 156.139H162.576L168.101 139.132Z" fill="#F0F0F0"/>
<path d="M223.753 122.436L229.279 139.443H247.159L232.694 149.953L238.219 166.958L223.753 156.448L209.287 166.958L214.813 149.953L200.348 139.443H218.228L223.753 122.436Z" fill="#F0F0F0"/>
<path d="M399.551 155.827L394.025 172.835H376.145L390.611 183.344L385.085 200.349L399.551 189.84L414.018 200.349L408.491 183.344L422.957 172.835H405.077L399.551 155.827Z" fill="#F0F0F0"/>
<path d="M343.899 139.132L338.373 156.139H320.493L334.959 166.648L329.433 183.653L343.899 173.144L358.365 183.653L352.839 166.648L367.304 156.139H349.424L343.899 139.132Z" fill="#F0F0F0"/>
<path d="M288.247 122.436L282.721 139.443H264.841L279.306 149.953L273.781 166.958L288.247 156.448L302.713 166.958L297.187 149.953L311.652 139.443H293.772L288.247 122.436Z" fill="#F0F0F0"/>
<path d="M300.522 267.13L256 211.478L233.739 222.608V244.869L200.348 267.13H178.087V295.889C210.715 309.101 233.739 341.07 233.739 378.435H256V356.174L278.261 333.913L300.522 356.174L322.783 333.913V311.652L345.044 278.261L300.522 267.13Z" fill="#FFDA44"/>
</g>
<defs>
<clipPath id="clip0_105_1782">
<rect width="512" height="512" fill="white"/>
</clipPath>
</defs>
</svg>
