<svg width="512" height="512" viewBox="0 0 512 512" fill="none" xmlns="http://www.w3.org/2000/svg">
<g clip-path="url(#clip0_105_2769)">
<path d="M256 512C397.385 512 512 397.385 512 256C512 114.615 397.385 0 256 0C114.615 0 0 114.615 0 256C0 397.385 114.615 512 256 512Z" fill="#338AF3"/>
<path d="M255.261 166.957C206.082 166.957 166.218 206.823 166.218 256C166.218 305.177 206.083 345.043 255.261 345.043C304.437 345.043 344.304 305.177 344.304 256C344.304 206.823 304.436 166.957 255.261 166.957ZM233 256C233 243.706 242.966 233.739 255.261 233.739C267.555 233.739 277.522 243.706 277.522 256C277.522 268.295 267.555 278.261 255.261 278.261C242.966 278.261 233 268.295 233 256ZM278.341 217.921C274.886 215.822 271.12 214.192 267.132 213.091V190.291C277.173 192.093 286.431 196.132 294.377 201.886L278.341 217.921ZM244.872 212.71C240.695 213.709 236.749 215.296 233.123 217.379L217.013 201.269C225.157 195.567 234.625 191.628 244.872 190.025V212.71ZM233.122 294.621C236.748 296.703 240.694 298.291 244.871 299.289V321.973C234.623 320.372 225.157 316.431 217.013 310.729L233.122 294.621ZM267.133 298.909C271.12 297.808 274.888 296.179 278.341 294.08L294.376 310.115C286.43 315.868 277.173 319.908 267.132 321.71V298.91H267.133V298.909ZM293.881 278.14C295.842 274.727 297.375 271.035 298.38 267.131H321.102C319.43 277.093 315.556 286.302 309.992 294.248L293.881 278.14ZM298.38 244.87C297.375 240.965 295.842 237.276 293.881 233.862L309.991 217.752C315.555 225.699 319.43 234.907 321.101 244.869H298.379V244.87H298.38ZM201.146 216.885L217.181 232.92C214.952 236.59 213.239 240.606 212.141 244.87H189.419C191.152 234.544 195.251 225.026 201.146 216.885ZM189.419 267.13H212.141C213.238 271.394 214.951 275.41 217.181 279.08L201.146 295.115C195.251 286.974 191.152 277.457 189.419 267.13Z" fill="#F0F0F0"/>
<path d="M399.955 256C399.955 216.42 384.057 180.559 358.307 154.435L334.696 178.046C354.404 198.126 366.564 225.642 366.564 256C366.564 317.472 316.731 367.304 255.26 367.304C193.787 367.304 143.956 317.472 143.956 256C143.956 225.263 156.413 197.437 176.556 177.296L152.945 153.685C126.76 179.87 110.565 216.044 110.565 256C110.565 322.215 155.042 378.042 215.751 395.235C209.095 407.879 210.109 423.798 219.617 435.663C232.105 425.655 245.034 415.293 256.002 406.505C266.97 415.294 279.9 425.655 292.387 435.663C301.989 423.68 302.934 407.559 296.057 394.854C356.102 377.239 399.955 321.745 399.955 256Z" fill="#F0F0F0"/>
</g>
<defs>
<clipPath id="clip0_105_2769">
<rect width="512" height="512" fill="white"/>
</clipPath>
</defs>
</svg>
