<svg width="512" height="512" viewBox="0 0 512 512" fill="none" xmlns="http://www.w3.org/2000/svg">
<g clip-path="url(#clip0_105_2613)">
<path d="M256 512C397.385 512 512 397.385 512 256C512 114.615 397.385 0 256 0C114.615 0 0 114.615 0 256C0 397.385 114.615 512 256 512Z" fill="#F0F0F0"/>
<path d="M111.713 44.522C152.798 16.436 202.476 0 256 0C309.524 0 359.202 16.436 400.287 44.522L256 55.652L111.713 44.522Z" fill="#FFDA44"/>
<path d="M74.994 437.006L193.036 318.966L256 211.478L318.957 318.959L437.006 437.006C483.336 390.682 512 326.693 512 256C512 168.139 467.731 90.625 400.287 44.522H111.713C44.269 90.625 0 168.139 0 256C0 326.693 28.664 390.682 74.994 437.006Z" fill="#D80027"/>
<path d="M492.552 354.021L305.382 276.463L318.948 318.947L437.006 437.005C460.578 413.436 479.576 385.294 492.552 354.021Z" fill="#0052B4"/>
<path d="M512 256C512 221.275 505.079 188.17 492.552 157.979L256 256H512Z" fill="#0052B4"/>
<path d="M437.006 74.994C425.754 63.744 413.465 53.531 400.287 44.522H343.632L256 256L437.006 74.994Z" fill="#0052B4"/>
<path d="M256 44.522H168.369L256 256V44.522Z" fill="#0052B4"/>
<path d="M74.9942 74.9939C51.4222 98.5639 32.4252 126.705 19.4492 157.978L256 256L74.9942 74.9939Z" fill="#0052B4"/>
<path d="M0 256C0 290.725 6.921 323.83 19.448 354.021L256 256H0Z" fill="#0052B4"/>
<path d="M111.713 467.478C152.797 495.564 202.476 512 256 512C309.524 512 359.202 495.564 400.287 467.478H111.713Z" fill="#FFDA44"/>
<path d="M256 256L318.963 318.963C335.078 302.849 345.044 280.589 345.044 256C345.044 206.822 305.178 166.957 256.001 166.957C206.824 166.957 166.957 206.822 166.957 256C166.957 280.588 176.923 302.849 193.038 318.963L256 256Z" fill="#FFDA44"/>
<path d="M294.957 384C294.957 405.515 277.514 411.826 256 411.826C234.486 411.826 217.043 405.515 217.043 384C217.043 362.485 234.486 345.043 256 345.043C277.514 345.043 294.957 362.485 294.957 384Z" fill="#FFDA44"/>
<path d="M294.957 384C294.957 405.515 277.514 422.957 256 422.957C234.486 422.957 217.043 405.515 217.043 384" fill="#0052B4"/>
</g>
<defs>
<clipPath id="clip0_105_2613">
<rect width="512" height="512" fill="white"/>
</clipPath>
</defs>
</svg>
