          <svg
            xmlns="http://www.w3.org/2000/svg"
            viewBox="0 0 128 128"
            style="enable-background: new 0 0 128 128"
            xml:space="preserve"
          >
            <path
              fill="#000000"
              d="M64 45.364c-10.34 0-18.72 8.38-18.72 18.72 0 10.34 8.38 18.72 18.72 18.72s18.72-8.38 18.72-18.72c0-10.34-8.38-18.72-18.72-18.72zm0 3.72c-8.27 0-15 6.73-15 15h-1c0-8.82 7.18-16 16-16v1zm4.01-7.893h-8.02L64 32l4.01 9.191zM64 96l4.01-9.191h-8.02L64 96zm22.809-27.99v-8.02L96 64l-9.191 4.01zM32 64l9.191 4.01v-8.02L32 64zm50.964-13.293-5.672-5.672 9.335-3.663-3.663 9.335zm-41.591 35.92 9.335-3.663-5.672-5.672-3.663 9.335zm35.92-3.663 5.672-5.672 3.663 9.335-9.335-3.663zm-35.92-41.591 3.663 9.335 5.672-5.672-9.335-3.663z"
            />
          </svg>