<svg
  width="50"
  height="51"
  viewBox="0 0 50 51"
  fill="none"
  xmlns="http://www.w3.org/2000/svg"
>
  <g clip-path="url(#clip0_402_273)">
    <path
      d="M25 50.9091C38.8071 50.9091 50 39.7162 50 25.9091C50 12.1019 38.8071 0.909058 25 0.909058C11.1929 0.909058 0 12.1019 0 25.9091C0 39.7162 11.1929 50.9091 25 50.9091Z"
      fill="#F0F0F0"
    />
    <path
      d="M25 0.909058C15.0885 0.909058 6.5244 6.67712 2.48065 15.0395H47.5192C43.4756 6.67712 34.9114 0.909058 25 0.909058Z"
      fill="#338AF3"
    />
    <path
      d="M25 50.909C34.9114 50.909 43.4756 45.141 47.5193 36.7786H2.48065C6.5244 45.141 15.0885 50.909 25 50.909Z"
      fill="#338AF3"
    />
    <path
      d="M32.4722 25.9091L29.4189 27.3453L31.0448 30.3022L27.7294 29.668L27.3093 33.0172L25 30.5539L22.6906 33.0172L22.2706 29.668L18.9552 30.3021L20.581 27.3452L17.5278 25.9091L20.5811 24.4728L18.9552 21.516L22.2705 22.1502L22.6907 18.801L25 21.2642L27.3094 18.801L27.7294 22.1502L31.0449 21.516L29.419 24.4729L32.4722 25.9091Z"
      fill="#FFDA44"
    />
  </g>
  <defs>
    <clipPath id="clip0_402_273">
      <rect
        width="50"
        height="50"
        fill="white"
        transform="translate(0 0.909058)"
      />
    </clipPath>
  </defs>
</svg>
