<svg width="50" height="51" viewBox="0 0 50 51" fill="none" xmlns="http://www.w3.org/2000/svg">
<g clip-path="url(#clip0_402_268)">
<path d="M1.55498 17.2135C0.550098 19.9219 0 22.8511 0 25.9091C0 28.9671 0.550098 31.8965 1.55498 34.6047L25 36.7786L48.445 34.6047C49.4499 31.8965 50 28.9671 50 25.9091C50 22.8511 49.4499 19.9219 48.445 17.2135L25 15.0396L1.55498 17.2135Z" fill="#F0F0F0"/>
<path d="M25 0.909058C14.251 0.909058 5.08731 7.69343 1.55508 17.2135H48.4452C44.9127 7.69343 35.7492 0.909058 25 0.909058Z" fill="#D80027"/>
<path d="M25 50.9091C35.7492 50.9091 44.9127 44.1247 48.4451 34.6047H1.55508C5.08731 44.1247 14.251 50.9091 25 50.9091Z" fill="#6DA544"/>
</g>
<defs>
<clipPath id="clip0_402_268">
<rect width="50" height="50" fill="white" transform="translate(0 0.909058)"/>
</clipPath>
</defs>
</svg>
