<svg width="50" height="51" viewBox="0 0 50 51" fill="none" xmlns="http://www.w3.org/2000/svg">
<g clip-path="url(#clip0_402_347)">
<path d="M25 50.6362C38.8071 50.6362 50 39.4434 50 25.6362C50 11.8291 38.8071 0.63623 25 0.63623C11.1929 0.63623 0 11.8291 0 25.6362C0 39.4434 11.1929 50.6362 25 50.6362Z" fill="#F0F0F0"/>
<path d="M49.9991 25.5638H22.8985C17.518 30.9445 14.2643 35.0985 10.942 38.4208L25.0725 39.6942L46.9996 37.5203C48.9132 33.9856 50 29.9379 50 25.6362C50 25.612 49.9991 25.5881 49.9991 25.5638V25.5638Z" fill="#D80027"/>
<path d="M10.9421 13.6073H46.9198C42.6681 5.87607 34.4464 0.63623 25 0.63623C18.1148 0.63623 11.8808 3.42051 7.35977 7.92373L10.9421 13.6073Z" fill="#FFDA44"/>
<path d="M12.029 37.5203C9.78156 39.7677 8.913 41.6507 7.28693 43.2767C11.8138 47.8223 18.0779 50.6362 25 50.6362C34.5055 50.6362 42.7715 45.331 46.9997 37.5203H12.029Z" fill="#0052B4"/>
<path d="M7.32225 7.88611C-2.44083 17.6492 -2.44083 33.4784 7.32225 43.2416C11.3567 39.2071 15.2369 35.3269 25 25.5638L7.32225 7.88611Z" fill="#6DA544"/>
<path d="M6.59425 25.5639C6.59425 21.9215 9.15411 18.8786 12.5725 18.1322C12.0471 18.0174 11.502 17.9552 10.942 17.9552C6.73976 17.9552 3.33331 21.3616 3.33331 25.5639C3.33331 29.7661 6.73976 33.1726 10.942 33.1726C11.5019 33.1726 12.047 33.1104 12.5725 32.9956C9.15411 32.249 6.59425 29.2063 6.59425 25.5639V25.5639Z" fill="#F0F0F0"/>
<path d="M12.4886 19.0421L12.8934 20.2876H14.2029L13.1434 21.0574L13.5482 22.303L12.4886 21.5332L11.429 22.303L11.8338 21.0574L10.7742 20.2876H12.0838L12.4886 19.0421Z" fill="#F0F0F0"/>
<path d="M12.4886 22.303L12.8934 23.5486H14.2029L13.1434 24.3183L13.5482 25.5639L12.4886 24.7941L11.429 25.5639L11.8338 24.3183L10.7742 23.5486H12.0838L12.4886 22.303Z" fill="#F0F0F0"/>
<path d="M12.4886 25.5638L12.8934 26.8094H14.2029L13.1434 27.5792L13.5482 28.8247L12.4886 28.0549L11.429 28.8247L11.8338 27.5792L10.7742 26.8094H12.0838L12.4886 25.5638Z" fill="#F0F0F0"/>
<path d="M12.4886 28.8247L12.8934 30.0702H14.2029L13.1434 30.84L13.5482 32.0855L12.4886 31.3158L11.429 32.0855L11.8338 30.84L10.7742 30.0702H12.0838L12.4886 28.8247Z" fill="#F0F0F0"/>
</g>
<defs>
<clipPath id="clip0_402_347">
<rect width="50" height="50" fill="white" transform="translate(0 0.63623)"/>
</clipPath>
</defs>
</svg>
