<svg width="50" height="51" viewBox="0 0 50 51" fill="none" xmlns="http://www.w3.org/2000/svg">
<g clip-path="url(#clip0_402_341)">
<path d="M50 25.7272C50 22.6692 49.45 19.7398 48.445 17.0316L25 15.9446L1.55498 17.0315C0.550098 19.7398 0 22.6692 0 25.7272C0 28.7852 0.550098 31.7146 1.55498 34.4228L25 35.5098L48.445 34.4229C49.45 31.7146 50 28.7852 50 25.7272Z" fill="#0052B4"/>
<path d="M25 50.7271C35.7491 50.7271 44.9127 43.9427 48.445 34.4227H1.55499C5.08732 43.9427 14.2509 50.7271 25 50.7271Z" fill="#FF9811"/>
<path d="M1.55499 17.0316H48.4451C44.9127 7.51155 35.7491 0.727173 25 0.727173C14.2509 0.727173 5.08732 7.51155 1.55499 17.0316V17.0316Z" fill="#D80027"/>
</g>
<defs>
<clipPath id="clip0_402_341">
<rect width="50" height="50" fill="white" transform="translate(0 0.727173)"/>
</clipPath>
</defs>
</svg>
