<svg width="50" height="51" viewBox="0 0 50 51" fill="none" xmlns="http://www.w3.org/2000/svg">
<g clip-path="url(#clip0_402_360)">
<path d="M25 50.6362C38.8071 50.6362 50 39.4434 50 25.6362C50 11.8291 38.8071 0.63623 25 0.63623C11.1929 0.63623 0 11.8291 0 25.6362C0 39.4434 11.1929 50.6362 25 50.6362Z" fill="#F0F0F0"/>
<path d="M15.2174 16.9406H48.4449C44.9127 7.4206 35.749 0.63623 25 0.63623C18.0963 0.63623 11.8469 3.43496 7.32312 7.95937L15.2174 16.9406Z" fill="black"/>
<path d="M15.2174 34.3318H48.4449C44.9127 43.8518 35.749 50.6362 25 50.6362C18.0963 50.6362 11.8469 47.8374 7.32312 43.313L15.2174 34.3318Z" fill="#6DA544"/>
<path d="M7.32225 7.9585C-2.44083 17.7216 -2.44083 33.5508 7.32225 43.314C11.3567 39.2795 15.2369 35.3993 25 25.6362L7.32225 7.9585Z" fill="#D80027"/>
<path d="M9.92235 20.2014L11.2943 23.0705L14.3929 22.3543L13.0052 25.2158L15.4969 27.1917L12.3946 27.8909L12.4032 31.0709L9.92235 29.0814L7.44139 31.0709L7.45009 27.8909L4.34784 27.1917L6.83944 25.2158L5.45194 22.3543L8.55028 23.0705L9.92235 20.2014Z" fill="#F0F0F0"/>
</g>
<defs>
<clipPath id="clip0_402_360">
<rect width="50" height="50" fill="white" transform="translate(0 0.63623)"/>
</clipPath>
</defs>
</svg>
