<svg width="50" height="51" viewBox="0 0 50 51" fill="none" xmlns="http://www.w3.org/2000/svg">
<g clip-path="url(#clip0_402_296)">
<path d="M0 25.8181C0 12.0111 11.193 0.818115 25 0.818115C38.807 0.818115 50 12.0111 50 25.8181H0Z" fill="#F0F0F0"/>
<path d="M18.4782 24.4514L17.1115 25.8181H18.4782V24.4514Z" fill="#0052B4"/>
<path d="M31.5218 24.4515V25.8181H32.8884L31.5218 24.4515Z" fill="#0052B4"/>
<path d="M0.721289 19.84C0.251074 21.7556 0 23.7574 0 25.8181H7.88838L13.8665 19.84H0.721289Z" fill="#0052B4"/>
<path d="M36.1333 19.84L42.1114 25.8181H50C50 23.7574 49.7488 21.7556 49.2787 19.84H36.1333Z" fill="#0052B4"/>
<path d="M34.5961 19.84H31.5218L37.4999 25.8181H40.5743L34.5961 19.84Z" fill="#D80027"/>
<path d="M18.4782 22.9141V19.84H18.478L12.4999 25.8181H15.5743L18.4782 22.9141Z" fill="#D80027"/>
<path d="M11.7111 4.64062C10.6807 5.28867 9.70087 6.00957 8.7789 6.79639H13.8668L11.7111 4.64062Z" fill="#0052B4"/>
<path d="M41.2211 6.79639C40.2991 6.00947 39.3194 5.28857 38.2891 4.64062L36.1334 6.79639H41.2211Z" fill="#0052B4"/>
<path d="M28.2608 16.579H48.2364C47.2913 14.2041 45.9923 12.0089 44.4051 10.0572H28.2609H28.2608V1.02974C27.1935 0.890771 26.1052 0.818115 25 0.818115C23.8946 0.818115 22.8065 0.890771 21.7392 1.02974V10.0571V10.0572H5.59493C4.00772 12.0089 2.7087 14.2041 1.76358 16.579H21.739H21.7391V25.8181H28.2608V16.5791V16.579Z" fill="#D80027"/>
<path d="M18.4782 6.79629V6.79619L14.7094 3.02734C14.0126 3.34248 13.3335 3.68965 12.6727 4.06494L15.404 6.79629H18.4782Z" fill="#D80027"/>
<path d="M31.5218 6.79634L35.2907 3.02749C34.5738 2.70337 33.8388 2.41274 33.0878 2.15601L31.5218 3.72212V6.79634Z" fill="#D80027"/>
<path d="M50 25.8181C50 39.6251 38.807 50.8181 25 50.8181C11.193 50.8181 0 39.6251 0 25.8181H50Z" fill="#F0F0F0"/>
<path d="M45.833 29.0066C43.7497 29.0066 43.7497 27.1017 41.6663 27.1017C39.583 27.1017 39.583 29.0066 37.4998 29.0066C35.4166 29.0066 35.4165 27.1017 33.3333 27.1017C31.25 27.1017 31.25 29.0066 29.1666 29.0066C27.0832 29.0066 27.0831 27.1017 24.9996 27.1017C22.9163 27.1017 22.9163 29.0066 20.8331 29.0066C18.7501 29.0066 18.7501 27.1017 16.6668 27.1017C14.5833 27.1017 14.5833 29.0066 12.4998 29.0066C10.4163 29.0066 10.4163 27.1017 8.33282 27.1017C6.24982 27.1017 6.24982 29.0066 4.16652 29.0066C2.09445 29.0066 2.08243 27.1227 0.0325317 27.1026C0.0902466 28.2461 0.22677 29.3688 0.433215 30.4666C2.09376 30.7107 2.23917 32.3399 4.16661 32.3399C6.24991 32.3399 6.24991 30.4352 8.33292 30.4352C10.4164 30.4352 10.4164 32.3399 12.4999 32.3399C14.5834 32.3399 14.5834 30.4352 16.6669 30.4352C18.7502 30.4352 18.7502 32.3399 20.8332 32.3399C22.9165 32.3399 22.9165 30.4352 24.9997 30.4352C27.0832 30.4352 27.0832 32.3399 29.1667 32.3399C31.2502 32.3399 31.2502 30.4352 33.3334 30.4352C35.4167 30.4352 35.4167 32.3399 37.4999 32.3399C39.5831 32.3399 39.5832 30.4352 41.6664 30.4352C43.7499 30.4352 43.7499 32.3399 45.8331 32.3399C47.7607 32.3399 47.9062 30.7108 49.5668 30.4667C49.7733 29.3688 49.9097 28.2462 49.9677 27.1027C47.9174 27.1229 47.9052 29.0066 45.833 29.0066V29.0066Z" fill="#0052B4"/>
<path d="M41.6663 33.6234C39.583 33.6234 39.583 35.5283 37.4998 35.5283C35.4166 35.5283 35.4165 33.6234 33.3333 33.6234C31.25 33.6234 31.25 35.5283 29.1666 35.5283C27.0831 35.5283 27.0831 33.6234 24.9996 33.6234C22.9163 33.6234 22.9163 35.5283 20.8331 35.5283C18.7501 35.5283 18.7501 33.6234 16.6668 33.6234C14.5833 33.6234 14.5833 35.5283 12.4998 35.5283C10.4163 35.5283 10.4163 33.6234 8.33282 33.6234C6.24982 33.6234 6.24982 35.5283 4.16652 35.5283C2.67794 35.5283 2.25275 34.556 1.3714 34.0006C1.95812 35.6958 2.7214 37.3084 3.64064 38.8158C3.8005 38.8453 3.97452 38.8616 4.16652 38.8616C6.24982 38.8616 6.24982 36.9569 8.33282 36.9569C10.4163 36.9569 10.4163 38.8616 12.4998 38.8616C14.5833 38.8616 14.5833 36.9569 16.6668 36.9569C18.7501 36.9569 18.7501 38.8616 20.8331 38.8616C22.9164 38.8616 22.9164 36.9569 24.9996 36.9569C27.0831 36.9569 27.0831 38.8616 29.1666 38.8616C31.2501 38.8616 31.2501 36.9569 33.3333 36.9569C35.4166 36.9569 35.4166 38.8616 37.4998 38.8616C39.583 38.8616 39.5831 36.9569 41.6663 36.9569C43.7498 36.9569 43.7498 38.8616 45.833 38.8616C46.0251 38.8616 46.1992 38.8453 46.3591 38.8157C47.2783 37.3084 48.0416 35.6958 48.6285 34.0007C47.7471 34.5558 47.3219 35.5283 45.833 35.5283C43.7498 35.5283 43.7498 33.6234 41.6663 33.6234Z" fill="#0052B4"/>
<path d="M49.9865 25.0327C49.9887 25.1021 49.9911 25.1716 49.9927 25.2413C49.9911 25.1717 49.9886 25.1021 49.9865 25.0327Z" fill="#F0F0F0"/>
<path d="M0.00732422 25.2412C0.00898437 25.1716 0.0113281 25.1021 0.0134766 25.0326C0.0114258 25.1021 0.00888672 25.1717 0.00732422 25.2412V25.2412Z" fill="#F0F0F0"/>
<path d="M0 25.8182C0 25.6253 0.00292969 25.4332 0.00732422 25.2412C0.00283203 25.4332 0 25.6253 0 25.8182Z" fill="#F0F0F0"/>
<path d="M0 25.8181C0 26.2735 0.0128906 26.7259 0.037207 27.1752C2.08242 27.1982 2.096 29.079 4.1666 29.079C6.2499 29.079 6.2499 27.1743 8.33291 27.1743C10.4164 27.1743 10.4164 29.079 12.4999 29.079C14.5834 29.079 14.5834 27.1743 16.6669 27.1743C18.7502 27.1743 18.7502 29.079 20.8332 29.079C22.9165 29.079 22.9165 27.1743 24.9997 27.1743C27.0832 27.1743 27.0832 29.079 29.1667 29.079C31.2502 29.079 31.2502 27.1743 33.3334 27.1743C35.4167 27.1743 35.4167 29.079 37.4999 29.079C39.5831 29.079 39.5832 27.1743 41.6664 27.1743C43.7499 27.1743 43.7499 29.079 45.8331 29.079C47.9039 29.079 47.9175 27.1982 49.9631 27.1752C49.9871 26.7258 50 26.2735 50 25.8181H0Z" fill="#F0F0F0"/>
<path d="M49.9927 25.2412C49.9971 25.433 50 25.6252 50 25.8182C50 25.6253 49.9972 25.4332 49.9927 25.2412Z" fill="#F0F0F0"/>
<path d="M41.6663 40.1451C39.583 40.1451 39.583 42.05 37.4998 42.05C35.4166 42.05 35.4165 40.1451 33.3333 40.1451C31.25 40.1451 31.25 42.05 29.1666 42.05C27.0831 42.05 27.0831 40.1451 24.9996 40.1451C22.9163 40.1451 22.9163 42.05 20.8331 42.05C18.7501 42.05 18.7501 40.1451 16.6668 40.1451C14.5833 40.1451 14.5833 42.05 12.4998 42.05C10.4163 42.05 10.4163 40.1451 8.33281 40.1451C6.89395 40.1451 6.44873 41.0537 5.62451 41.6159C7.81094 44.2943 10.5424 46.5095 13.6483 48.0956L25 47.5238L36.3516 48.0955C39.4574 46.5093 42.1889 44.2944 44.3753 41.616C43.5507 41.0539 43.1055 40.1451 41.6663 40.1451V40.1451Z" fill="#0052B4"/>
<path d="M38.8655 40.7413L31.2606 42.1959L30.2971 34.5138L25 40.1637L19.7031 34.5137L18.7393 42.1958L11.1347 40.7412L14.8641 47.5236L13.6461 48.0965C17.0531 49.8365 20.9118 50.8181 25 50.8181C29.0882 50.8181 32.9469 49.8365 36.3539 48.0967L35.1364 47.5239L38.8655 40.7413Z" fill="#FFDA44"/>
</g>
<defs>
<clipPath id="clip0_402_296">
<rect width="50" height="50" fill="white" transform="translate(0 0.818115)"/>
</clipPath>
</defs>
</svg>
