<svg width="50" height="51" viewBox="0 0 50 51" fill="none" xmlns="http://www.w3.org/2000/svg">
<g clip-path="url(#clip0_402_333)">
<path d="M25 50.7272C38.8071 50.7272 50 39.5343 50 25.7272C50 11.9201 38.8071 0.727173 25 0.727173C11.1929 0.727173 0 11.9201 0 25.7272C0 39.5343 11.1929 50.7272 25 50.7272Z" fill="#F0F0F0"/>
<path d="M25 0.727173C15.0885 0.727173 6.5244 6.49524 2.48065 14.8576H47.5192C43.4756 6.49524 34.9114 0.727173 25 0.727173V0.727173Z" fill="#FF9811"/>
<path d="M25 50.7271C34.9114 50.7271 43.4756 44.9591 47.5193 36.5967H2.48065C6.5244 44.9591 15.0885 50.7271 25 50.7271Z" fill="#6DA544"/>
<path d="M25 34.4228C29.8024 34.4228 33.6956 30.5297 33.6956 25.7272C33.6956 20.9248 29.8024 17.0316 25 17.0316C20.1975 17.0316 16.3044 20.9248 16.3044 25.7272C16.3044 30.5297 20.1975 34.4228 25 34.4228Z" fill="#0052B4"/>
<path d="M25 31.1619C28.0015 31.1619 30.4348 28.7287 30.4348 25.7271C30.4348 22.7256 28.0015 20.2924 25 20.2924C21.9985 20.2924 19.5652 22.7256 19.5652 25.7271C19.5652 28.7287 21.9985 31.1619 25 31.1619Z" fill="#F0F0F0"/>
<path d="M25 19.0208L26.6766 22.8233L30.8079 22.374L28.3532 25.7272L30.8079 29.0804L26.6766 28.6311L25 32.4336L23.3233 28.6311L19.1921 29.0803L21.6468 25.7272L19.1921 22.374L23.3233 22.8233L25 19.0208Z" fill="#0052B4"/>
</g>
<defs>
<clipPath id="clip0_402_333">
<rect width="50" height="50" fill="white" transform="translate(0 0.727173)"/>
</clipPath>
</defs>
</svg>
