<svg width="50" height="51" viewBox="0 0 50 51" fill="none" xmlns="http://www.w3.org/2000/svg">
<g clip-path="url(#clip0_402_158)">
<path d="M0 25.9091C0 28.9671 0.550098 31.8964 1.55498 34.6047L25 35.6917L48.445 34.6048C49.45 31.8964 50 28.9671 50 25.9091C50 22.8511 49.45 19.9218 48.445 17.2135L25 16.1265L1.55498 17.2134C0.550098 19.9218 0 22.8511 0 25.9091H0Z" fill="#FFDA44"/>
<path d="M25 0.909058C14.2508 0.909058 5.08726 7.69343 1.55493 17.2135H48.4451C44.9126 7.69343 35.7491 0.909058 25 0.909058V0.909058Z" fill="#D80027"/>
<path d="M48.445 34.6047H1.55493C5.08726 44.1246 14.2508 50.9091 25 50.9091C35.7491 50.9091 44.9126 44.1246 48.445 34.6047Z" fill="#496E2D"/>
<path d="M24.9998 17.2134L27.158 23.856H34.1431L28.4925 27.9618L30.6507 34.6047L24.9998 30.4992L19.3489 34.6047L21.5075 27.9618L15.8568 23.856H22.8416L24.9998 17.2134Z" fill="black"/>
</g>
<defs>
<clipPath id="clip0_402_158">
<rect width="50" height="50" fill="white" transform="translate(0 0.909058)"/>
</clipPath>
</defs>
</svg>
