<svg width="50" height="50" viewBox="0 0 50 50" fill="none" xmlns="http://www.w3.org/2000/svg">
<g clip-path="url(#clip0_402_253)">
<path d="M25 50C38.8071 50 50 38.8071 50 25C50 11.1929 38.8071 0 25 0C11.1929 0 0 11.1929 0 25C0 38.8071 11.1929 50 25 50Z" fill="#6DA544"/>
<path d="M25 9.78259L45.6521 25L25 40.2174L4.34784 25L25 9.78259Z" fill="#FFDA44"/>
<path d="M25 33.6956C29.8024 33.6956 33.6956 29.8024 33.6956 25C33.6956 20.1975 29.8024 16.3044 25 16.3044C20.1975 16.3044 16.3044 20.1975 16.3044 25C16.3044 29.8024 20.1975 33.6956 25 33.6956Z" fill="#F0F0F0"/>
<path d="M20.6521 24.4565C19.14 24.4565 17.6808 24.6865 16.3071 25.1133C16.368 29.8633 20.2355 33.6957 25 33.6957C27.9461 33.6957 30.548 32.2292 32.121 29.9879C29.4299 26.619 25.2892 24.4565 20.6521 24.4565Z" fill="#0052B4"/>
<path d="M33.5345 26.666C33.6392 26.1266 33.6957 25.57 33.6957 25C33.6957 20.1974 29.8025 16.3044 25.0001 16.3044C21.4167 16.3044 18.3405 18.4724 17.0093 21.568C18.186 21.3241 19.4044 21.1957 20.6523 21.1957C25.7028 21.1956 30.2718 23.295 33.5345 26.666Z" fill="#0052B4"/>
</g>
<defs>
<clipPath id="clip0_402_253">
<rect width="50" height="50" fill="white"/>
</clipPath>
</defs>
</svg>
