<svg width="98" height="18" viewBox="0 0 98 18" fill="none" xmlns="http://www.w3.org/2000/svg">
<path fill-rule="evenodd" clip-rule="evenodd" d="M6.01263 9.2816V7.20316L0.266985 9.33873H0.256104V11.4716H0.266985L6.01263 13.6072V11.526L3.06635 10.3997L6.01263 9.27888V9.2816Z" fill="#F7DD43"/>
<path fill-rule="evenodd" clip-rule="evenodd" d="M39.2922 13.5037V11.4253L42.2358 10.3072L39.2922 9.18905V7.1106L45.0297 9.24618H45.0433V11.3817H45.0297L39.2922 13.5064V13.5037ZM36.8275 4.16977L33.4541 15H35.4564L38.8298 4.16977H36.8275Z" fill="#F7DD43"/>
<path fill-rule="evenodd" clip-rule="evenodd" d="M14.4544 6.91747C15.0257 7.54317 15.3249 8.3702 15.2896 9.21627V13.8302H13.2873V9.64066C13.3118 9.17274 13.1621 8.7157 12.8683 8.35116C12.5908 8.02742 12.1801 7.84787 11.7529 7.86691C10.4988 7.86691 9.87037 8.73746 9.87037 10.4758V13.8302H7.8681V6.25639H9.87037V6.93923C10.507 6.32168 11.3694 5.99251 12.2562 6.03059C13.0833 5.99523 13.8831 6.31896 14.4544 6.91747Z" fill="#F7DD43"/>
<path fill-rule="evenodd" clip-rule="evenodd" d="M17.8413 3V13.8302H19.8436V3H17.8413Z" fill="#F7DD43"/>
<path fill-rule="evenodd" clip-rule="evenodd" d="M31.1661 13.8302H29.4958L27.858 9.36862L26.204 13.8302H24.5336L21.7261 6.2428H23.8671L25.445 10.7806L27.0718 6.2428H28.6361L30.2629 10.7942L31.8408 6.2428H33.9818L31.1716 13.8302H31.1661Z" fill="#F7DD43"/>
<path d="M54.5795 17.9981C52.6532 17.9981 50.6294 17.6331 49.0433 16.754V1.24411C50.6046 0.389878 52.6284 2.85548e-05 54.5795 2.85548e-05C56.5307 2.85548e-05 58.5067 0.365035 60.0661 1.24411V7.19505H56.1389V3.14558C55.6765 2.95066 55.1146 2.87804 54.5547 2.87804C53.9947 2.87804 53.4807 2.95066 52.9934 3.14558V14.8525C53.4558 15.0475 53.9928 15.1201 54.5547 15.1201C55.1165 15.1201 55.6516 15.0475 56.1389 14.8525V10.805H60.0661V16.7559C58.5296 17.6101 56.5058 17.9752 54.5795 18V17.9981Z" fill="#F7DD43"/>
<path d="M67.4313 17.9981C65.3578 17.9981 63.3589 17.5585 61.7727 16.6565V1.3167C63.334 0.439536 65.3349 0 67.4313 0C69.5277 0 71.4788 0.414693 73.0401 1.3167V16.6565C71.5037 17.5585 69.4799 17.9732 67.4313 17.9981ZM69.1149 3.19524C68.6524 3.00031 68.0906 2.90285 67.4083 2.90285C66.7261 2.90285 66.1891 3.00031 65.7247 3.19524V14.7799C66.1872 14.9997 66.749 15.0971 67.4083 15.0971C68.0676 15.0971 68.6276 14.9997 69.1149 14.7799V3.19524Z" fill="#F7DD43"/>
<path d="M79.893 11.4127H78.8439V17.7783H74.8689V0.219779H79.893C82.2837 0.219779 84.0877 0.707092 85.5019 1.70656V9.92589C84.1126 10.9024 82.2818 11.4127 79.893 11.4127ZM81.5518 3.24303C81.1868 2.97548 80.6975 2.85318 79.8682 2.85318H78.7942V8.77927H79.8682C80.6727 8.77927 81.16 8.65697 81.5518 8.41427V3.24303Z" fill="#F7DD43"/>
<path d="M93.8168 17.7783V11.4127H90.891V17.7783H86.9409V1.29185C88.3799 0.437625 90.4037 0 92.3548 0C94.306 0 96.3049 0.439537 97.7439 1.29185V17.7783H93.8168ZM93.8168 3.04809C93.4021 2.85316 92.8899 2.7557 92.3529 2.7557C91.8159 2.7557 91.3038 2.85316 90.8891 3.04809V8.63211H93.8148V3.04809H93.8168Z" fill="#F7DD43"/>
</svg>
